<svg width="25" height="29" viewBox="0 0 25 29" fill="none" xmlns="http://www.w3.org/2000/svg">
<g clip-path="url(#clip0_122_686)">
<path opacity="0.4" d="M3.57143 0C1.60156 0 0 1.62559 0 3.625V25.375C0 27.3744 1.60156 29 3.57143 29H21.4286C23.3984 29 25 27.3744 25 25.375V3.625C25 1.62559 23.3984 0 21.4286 0H3.57143ZM3.57143 6.34375C3.57143 5.84531 3.97321 5.4375 4.46429 5.4375H6.25C6.74107 5.4375 7.14286 5.84531 7.14286 6.34375V8.15625C7.14286 8.65469 6.74107 9.0625 6.25 9.0625H4.46429C3.97321 9.0625 3.57143 8.65469 3.57143 8.15625V6.34375ZM3.57143 20.8438C3.57143 20.3453 3.97321 19.9375 4.46429 19.9375H6.25C6.74107 19.9375 7.14286 20.3453 7.14286 20.8438V22.6562C7.14286 23.1547 6.74107 23.5625 6.25 23.5625H4.46429C3.97321 23.5625 3.57143 23.1547 3.57143 22.6562V20.8438ZM11.6071 20.8438H20.5357C21.0268 20.8438 21.4286 21.2516 21.4286 21.75C21.4286 22.2484 21.0268 22.6562 20.5357 22.6562H11.6071C11.1161 22.6562 10.7143 22.2484 10.7143 21.75C10.7143 21.2516 11.1161 20.8438 11.6071 20.8438ZM10.7143 7.25C10.7143 6.75156 11.1161 6.34375 11.6071 6.34375H20.5357C21.0268 6.34375 21.4286 6.75156 21.4286 7.25C21.4286 7.74844 21.0268 8.15625 20.5357 8.15625H11.6071C11.1161 8.15625 10.7143 7.74844 10.7143 7.25ZM11.6071 13.5938H20.5357C21.0268 13.5938 21.4286 14.0016 21.4286 14.5C21.4286 14.9984 21.0268 15.4062 20.5357 15.4062H11.6071C11.1161 15.4062 10.7143 14.9984 10.7143 14.5C10.7143 14.0016 11.1161 13.5938 11.6071 13.5938ZM8.6663 12.0475C9.01228 12.3986 9.01228 12.9764 8.6663 13.3275L5.98772 16.0463C5.64174 16.3975 5.07254 16.3975 4.72656 16.0463L3.38728 14.6869C3.04129 14.3357 3.04129 13.758 3.38728 13.4068C3.73326 13.0557 4.30246 13.0557 4.64844 13.4068L5.35714 14.1262L7.40513 12.0475C7.75112 11.6963 8.32031 11.6963 8.6663 12.0475Z" fill="#D11F1F"/>
<path d="M3.57132 6.34375V8.15625C3.57132 8.65469 3.97311 9.0625 4.46418 9.0625H6.2499C6.74097 9.0625 7.14275 8.65469 7.14275 8.15625V6.34375C7.14275 5.84531 6.74097 5.4375 6.2499 5.4375H4.46418C3.97311 5.4375 3.57132 5.84531 3.57132 6.34375ZM3.57132 20.8438V22.6562C3.57132 23.1547 3.97311 23.5625 4.46418 23.5625H6.2499C6.74097 23.5625 7.14275 23.1547 7.14275 22.6562V20.8438C7.14275 20.3453 6.74097 19.9375 6.2499 19.9375H4.46418C3.97311 19.9375 3.57132 20.3453 3.57132 20.8438ZM8.66619 13.3275C9.01217 12.9764 9.01217 12.3986 8.66619 12.0475C8.32021 11.6963 7.75101 11.6963 7.40503 12.0475L5.35704 14.1262L4.64833 13.4068C4.30235 13.0557 3.73315 13.0557 3.38717 13.4068C3.04119 13.758 3.04119 14.3357 3.38717 14.6869L4.72646 16.0463C5.07244 16.3975 5.64164 16.3975 5.98762 16.0463L8.66619 13.3275Z" fill="#D11F1F"/>
</g>
<defs>
<clipPath id="clip0_122_686">
<rect width="25" height="29" fill="white"/>
</clipPath>
</defs>
</svg>
