<svg width="494" height="496" viewBox="0 0 494 496" fill="none" xmlns="http://www.w3.org/2000/svg">
<path d="M98.5487 197.97C105.769 177.531 117.49 158.311 133.994 141.904C192.6 83.3072 287.588 83.3072 346.194 141.904L362.229 158.03H330.066C313.468 158.03 300.059 171.437 300.059 188.032C300.059 204.626 313.468 218.033 330.066 218.033H434.619H434.994C451.591 218.033 465 204.626 465 188.032V83.026C465 66.4313 451.591 53.0243 434.994 53.0243C418.397 53.0243 404.988 66.4313 404.988 83.026V116.028L388.578 99.5269C306.529 17.491 173.564 17.491 91.5159 99.5269C68.6362 122.403 52.1327 149.311 42.0056 178.094C36.4732 193.751 44.7249 210.814 60.2907 216.346C75.8564 221.877 93.0163 213.627 98.5487 198.064V197.97ZM36.567 279.256C31.8785 280.662 27.3776 283.193 23.7206 286.944C19.9698 290.694 17.438 295.194 16.1252 300.069C15.8439 301.194 15.5626 302.413 15.3751 303.632C15.0938 305.226 15 306.82 15 308.414V413.044C15 429.639 28.409 443.046 45.0063 443.046C61.6035 443.046 75.0125 429.639 75.0125 413.044V380.136L91.5159 396.543C173.564 478.486 306.529 478.486 388.484 396.543C411.364 373.667 427.961 346.759 438.088 318.07C443.621 302.413 435.369 285.35 419.803 279.818C404.237 274.287 387.078 282.537 381.545 298.1C374.325 318.539 362.604 337.759 346.1 354.166C287.494 412.763 192.506 412.763 133.9 354.166L133.806 354.072L117.771 338.04H150.028C166.625 338.04 180.034 324.633 180.034 308.039C180.034 291.444 166.625 278.037 150.028 278.037H45.3813C43.881 278.037 42.3807 278.131 40.8804 278.318C39.3801 278.506 37.9735 278.787 36.567 279.256Z" fill="white"/>
</svg>
