<svg width="28" height="28" viewBox="0 0 28 28" fill="none" xmlns="http://www.w3.org/2000/svg">
<g clip-path="url(#clip0_122_585)">
<path opacity="0.4" d="M25.4691 13.5835C26.4082 13.5835 27.167 14.3423 27.167 15.2814C27.167 19.972 23.3679 23.7711 18.6773 23.7711H10.1876V25.4691C10.1876 26.1536 9.77371 26.7744 9.13699 27.0397C8.50026 27.305 7.77333 27.1564 7.28517 26.6736L3.88929 23.2777C3.22603 22.6144 3.22603 21.5373 3.88929 20.874L7.28517 17.4781C7.77333 16.99 8.50026 16.8467 9.13699 17.112C9.77371 17.3773 10.1876 17.9928 10.1876 18.6826V20.3806H18.6773C21.4895 20.3806 23.7711 18.099 23.7711 15.2867C23.7711 14.3476 24.5299 13.5888 25.4691 13.5888V13.5835Z" fill="#D11F1F"/>
<path d="M1.69794 13.5838C0.758767 13.5838 0 12.825 0 11.8859C0 7.19529 3.79914 3.39615 8.4897 3.39615H16.9794V1.69821C16.9794 1.01373 17.3933 0.392917 18.03 0.127614C18.6667 -0.137689 19.3937 0.0108804 19.8818 0.493732L23.2777 3.88961C23.941 4.55287 23.941 5.63 23.2777 6.29326L19.8818 9.68914C19.3937 10.1773 18.6667 10.3206 18.03 10.0553C17.3933 9.78996 16.9794 9.17445 16.9794 8.48467V6.79203H8.4897C5.67749 6.79203 3.39588 9.07364 3.39588 11.8859C3.39588 12.825 2.63711 13.5838 1.69794 13.5838Z" fill="#D11F1F"/>
</g>
<defs>
<clipPath id="clip0_122_585">
<rect width="27.1671" height="27.1671" fill="white"/>
</clipPath>
</defs>
</svg>
