<svg width="35" height="28" viewBox="0 0 35 28" fill="none" xmlns="http://www.w3.org/2000/svg">
<g clip-path="url(#clip0_122_564)">
<path opacity="0.4" d="M0.17334 13.7816C0.17334 12.8424 0.937728 12.0836 1.88386 12.0836V15.4795C0.937728 15.4795 0.17334 14.7207 0.17334 13.7816ZM24.1206 15.4795H10.4364V12.0836H24.1206V15.4795ZM32.6732 15.4795V12.0836C33.6193 12.0836 34.3837 12.8424 34.3837 13.7816C34.3837 14.7207 33.6193 15.4795 32.6732 15.4795Z" fill="#D11F1F"/>
<path d="M7.01534 1.896C6.06921 1.896 5.30483 2.65476 5.30483 3.59394V6.98982H3.59431C2.64818 6.98982 1.88379 7.74859 1.88379 8.68776V18.8754C1.88379 19.8146 2.64818 20.5733 3.59431 20.5733H5.30483V23.9692C5.30483 24.9084 6.06921 25.6672 7.01534 25.6672H8.72586C9.67199 25.6672 10.4364 24.9084 10.4364 23.9692V3.59394C10.4364 2.65476 9.67199 1.896 8.72586 1.896H7.01534ZM27.5416 1.896H25.831C24.8849 1.896 24.1205 2.65476 24.1205 3.59394V23.9692C24.1205 24.9084 24.8849 25.6672 25.831 25.6672H27.5416C28.4877 25.6672 29.2521 24.9084 29.2521 23.9692V20.5733H30.9626C31.9087 20.5733 32.6731 19.8146 32.6731 18.8754V8.68776C32.6731 7.74859 31.9087 6.98982 30.9626 6.98982H29.2521V3.59394C29.2521 2.65476 28.4877 1.896 27.5416 1.896Z" fill="#D11F1F"/>
</g>
<defs>
<clipPath id="clip0_122_564">
<rect width="34.2104" height="27.1671" fill="white" transform="translate(0.17334 0.197998)"/>
</clipPath>
</defs>
</svg>
