<svg width="150" height="50" viewBox="0 0 150 50" fill="none" xmlns="http://www.w3.org/2000/svg">
<path d="M72.6682 22.0178C71.7976 22.8418 70.8493 23.4481 69.8232 23.8368C68.7971 24.2099 67.7633 24.3809 66.7216 24.3498C65.6956 24.3187 64.7006 24.1088 63.7367 23.7202C62.7728 23.3315 61.91 22.7874 61.1482 22.0878C60.3864 21.3726 59.7645 20.5253 59.2826 19.5459C58.8007 18.5665 58.5364 17.4782 58.4897 16.2811C58.4431 15.084 58.6141 13.9802 59.0028 12.9697C59.407 11.9436 59.9589 11.0497 60.6585 10.2879C61.3581 9.52611 62.1743 8.91202 63.1071 8.44562C64.0554 7.97922 65.0426 7.69161 66.0687 7.58278C67.0948 7.47395 68.1364 7.56723 69.1936 7.86262C70.2507 8.14246 71.2457 8.66327 72.1785 9.42506C72.2873 9.50279 72.3417 9.61161 72.3417 9.75153C72.3573 9.87591 72.3184 9.99251 72.2251 10.1013C71.9142 10.4278 71.6111 10.7543 71.3157 11.0808C71.0358 11.4072 70.7404 11.7337 70.4295 12.0602C70.243 12.2623 70.0331 12.2779 69.7999 12.1068C68.9915 11.485 68.1208 11.1585 67.188 11.1274C66.2708 11.0808 65.4235 11.2596 64.6462 11.6638C63.8844 12.068 63.2548 12.6587 62.7573 13.4361C62.2598 14.2134 62.0343 15.1151 62.081 16.1412C62.1276 17.1517 62.423 18.0301 62.9671 18.7763C63.5268 19.507 64.2109 20.0434 65.0193 20.3854C65.8277 20.7119 66.6828 20.8207 67.5845 20.7119C68.5017 20.6031 69.3413 20.2066 70.103 19.5226C70.3207 19.3516 70.5306 19.3593 70.7327 19.5459C71.0436 19.8413 71.3623 20.1367 71.6888 20.4321C72.0153 20.7274 72.3417 21.0306 72.6682 21.3415C72.7615 21.4348 72.8081 21.5514 72.8081 21.6913C72.8081 21.8157 72.7615 21.9245 72.6682 22.0178ZM74.2137 24.07C74.0893 24.07 73.9805 24.0233 73.8872 23.93C73.794 23.8368 73.7473 23.7202 73.7473 23.5802V8.23574C73.7473 8.11137 73.794 8.00254 73.8872 7.90926C73.9805 7.81598 74.0893 7.76934 74.2137 7.76934H83.3318C83.4562 7.76934 83.565 7.81598 83.6583 7.90926C83.7516 8.00254 83.7982 8.11137 83.7982 8.23574V10.731C83.7982 10.8553 83.7516 10.9642 83.6583 11.0574C83.565 11.1507 83.4562 11.1974 83.3318 11.1974H77.6651V16.1412H81.4662C81.5906 16.1412 81.6994 16.1878 81.7927 16.2811C81.886 16.3744 81.9326 16.4832 81.9326 16.6076V19.1028C81.9326 19.2272 81.886 19.336 81.7927 19.4293C81.6994 19.5226 81.5906 19.5692 81.4662 19.5692H77.6651V20.6419H84.0314C84.1558 20.6419 84.2646 20.6886 84.3579 20.7819C84.4512 20.8751 84.4978 20.984 84.4978 21.1083V23.5802C84.4978 23.7202 84.4512 23.8368 84.3579 23.93C84.2646 24.0233 84.1558 24.07 84.0314 24.07H74.2137ZM85.43 8.23574C85.43 8.01809 85.5389 7.87817 85.7565 7.81598C85.9742 7.73825 86.153 7.78489 86.2929 7.9559C87.5211 9.60384 88.7415 11.244 89.9541 12.8764C91.1823 14.4932 92.4105 16.1256 93.6387 17.7736V8.23574C93.6387 8.11137 93.6853 8.00254 93.7786 7.90926C93.8719 7.81598 93.9807 7.76934 94.1051 7.76934H97.0667C97.2066 7.76934 97.3232 7.81598 97.4165 7.90926C97.5098 8.00254 97.5564 8.11137 97.5564 8.23574V23.5802C97.5564 23.7046 97.5098 23.8212 97.4165 23.93C97.3232 24.0233 97.2066 24.07 97.0667 24.07H94.1051C93.9496 24.07 93.8252 24 93.7319 23.8601C92.9857 22.8806 92.255 21.909 91.5399 20.9451C90.8247 19.9657 90.094 18.9862 89.3478 18.0068V23.5802C89.3478 23.7046 89.3012 23.8212 89.2079 23.93C89.1146 24.0233 88.998 24.07 88.8581 24.07H85.8964C85.7721 24.07 85.6632 24.0233 85.57 23.93C85.4767 23.8212 85.43 23.7046 85.43 23.5802V8.23574ZM98.4792 8.23574C98.4792 8.11137 98.5258 8.00254 98.6191 7.90926C98.7124 7.81598 98.8212 7.76934 98.9456 7.76934H110.139C110.264 7.76934 110.372 7.81598 110.466 7.90926C110.559 8.00254 110.606 8.11137 110.606 8.23574V10.731C110.606 10.8553 110.559 10.9642 110.466 11.0574C110.372 11.1507 110.264 11.1974 110.139 11.1974H106.501V23.5802C106.501 23.7046 106.455 23.8212 106.361 23.93C106.268 24.0233 106.159 24.07 106.035 24.07H103.073C102.933 24.07 102.817 24.0233 102.723 23.93C102.63 23.8212 102.583 23.7046 102.583 23.5802V11.1974H98.9456C98.8212 11.1974 98.7124 11.1507 98.6191 11.0574C98.5258 10.9642 98.4792 10.8553 98.4792 10.731V8.23574ZM119.527 18.8463C119.962 19.5925 120.39 20.3465 120.81 21.1083C121.245 21.8546 121.68 22.6008 122.116 23.347C122.193 23.5181 122.186 23.6813 122.092 23.8368C122.014 23.9922 121.882 24.07 121.696 24.07H119.107C118.936 24.07 118.796 23.9845 118.688 23.8134L116.379 19.7558L114.77 20.1056V23.5802C114.77 23.7202 114.723 23.8368 114.63 23.93C114.537 24.0233 114.428 24.07 114.303 24.07H111.995C111.87 24.07 111.762 24.0233 111.668 23.93C111.575 23.8368 111.528 23.7202 111.528 23.5802V8.23574C111.528 8.11137 111.575 8.00254 111.668 7.90926C111.762 7.81598 111.87 7.76934 111.995 7.76934H116.589C117.257 7.76934 117.895 7.87817 118.501 8.09582C119.123 8.31347 119.683 8.61663 120.18 9.0053C120.693 9.39396 121.136 9.86036 121.509 10.4045C121.882 10.9331 122.154 11.5238 122.325 12.1768C122.496 12.8298 122.551 13.4827 122.489 14.1357C122.442 14.7731 122.294 15.3872 122.046 15.978C121.812 16.5687 121.478 17.1129 121.043 17.6103C120.608 18.1078 120.102 18.5198 119.527 18.8463ZM117.102 16.1412C117.584 16.0324 117.98 15.838 118.291 15.5582C118.602 15.2784 118.82 14.9519 118.944 14.5788C119.068 14.2056 119.107 13.8247 119.061 13.4361C119.03 13.0319 118.913 12.6665 118.711 12.34C118.509 12.0136 118.229 11.7415 117.871 11.5238C117.514 11.3062 117.086 11.1974 116.589 11.1974H114.77V16.6309C115.174 16.5532 115.563 16.4754 115.936 16.3977C116.324 16.3044 116.713 16.2189 117.102 16.1412ZM137.407 23.4403C137.453 23.5958 137.43 23.7435 137.337 23.8834C137.244 24.0078 137.119 24.07 136.964 24.07H134.259C134.041 24.07 133.886 23.9611 133.792 23.7435C133.621 23.1993 133.45 22.663 133.279 22.1344C133.124 21.6058 132.961 21.0772 132.79 20.5487H128.102C127.931 21.0772 127.76 21.6058 127.589 22.1344C127.434 22.663 127.27 23.1993 127.099 23.7435C127.006 23.9611 126.851 24.07 126.633 24.07H123.928C123.772 24.07 123.648 24.0078 123.555 23.8834C123.462 23.7435 123.438 23.5958 123.485 23.4403C124.309 20.8751 125.125 18.3177 125.933 15.7681C126.742 13.2184 127.558 10.661 128.382 8.09582C128.444 7.87817 128.592 7.76934 128.825 7.76934H132.067C132.3 7.76934 132.447 7.87817 132.51 8.09582C133.334 10.661 134.15 13.2184 134.958 15.7681C135.767 18.3177 136.583 20.8751 137.407 23.4403ZM131.693 17.1439L130.434 13.2029L129.198 17.1439H131.693ZM141.807 7.76934C141.931 7.76934 142.04 7.81598 142.133 7.90926C142.226 8.00254 142.273 8.11137 142.273 8.23574V20.6419H148.639C148.764 20.6419 148.873 20.6886 148.966 20.7819C149.059 20.8751 149.106 20.984 149.106 21.1083V23.5802C149.106 23.7202 149.059 23.8368 148.966 23.93C148.873 24.0233 148.764 24.07 148.639 24.07H138.822C138.697 24.07 138.589 24.0233 138.495 23.93C138.402 23.8368 138.355 23.7202 138.355 23.5802V8.23574C138.355 8.11137 138.402 8.00254 138.495 7.90926C138.589 7.81598 138.697 7.76934 138.822 7.76934H141.807Z" fill="white"/>
<path d="M72.6682 41.9641C71.7976 42.788 70.8493 43.3944 69.8232 43.783C68.7971 44.1561 67.7633 44.3272 66.7216 44.2961C65.6956 44.265 64.7006 44.0551 63.7367 43.6664C62.7728 43.2778 61.91 42.7336 61.1482 42.034C60.3864 41.3189 59.7645 40.4716 59.2826 39.4922C58.8007 38.5127 58.5364 37.4245 58.4897 36.2274C58.4431 35.0303 58.6141 33.9265 59.0028 32.9159C59.407 31.8899 59.9589 30.9959 60.6585 30.2342C61.3581 29.4724 62.1743 28.8583 63.1071 28.3919C64.0554 27.9255 65.0426 27.6379 66.0687 27.529C67.0948 27.4202 68.1364 27.5135 69.1936 27.8089C70.2507 28.0887 71.2457 28.6095 72.1785 29.3713C72.2873 29.449 72.3417 29.5579 72.3417 29.6978C72.3573 29.8222 72.3184 29.9388 72.2251 30.0476C71.9142 30.3741 71.6111 30.7005 71.3157 31.027C71.0358 31.3535 70.7404 31.68 70.4295 32.0065C70.243 32.2086 70.0331 32.2241 69.7999 32.0531C68.9915 31.4312 68.1208 31.1048 67.188 31.0737C66.2708 31.027 65.4235 31.2058 64.6462 31.61C63.8844 32.0142 63.2548 32.605 62.7573 33.3823C62.2598 34.1597 62.0343 35.0614 62.081 36.0874C62.1276 37.098 62.423 37.9764 62.9671 38.7226C63.5268 39.4533 64.2109 39.9896 65.0193 40.3317C65.8277 40.6582 66.6828 40.767 67.5845 40.6582C68.5017 40.5493 69.3413 40.1529 70.103 39.4688C70.3207 39.2978 70.5306 39.3056 70.7327 39.4922C71.0436 39.7875 71.3623 40.0829 71.6888 40.3783C72.0153 40.6737 72.3417 40.9769 72.6682 41.2878C72.7615 41.3811 72.8081 41.4977 72.8081 41.6376C72.8081 41.762 72.7615 41.8708 72.6682 41.9641ZM82.1751 28.0421C82.9991 30.6073 83.8153 33.1647 84.6237 35.7143C85.4321 38.264 86.2483 40.8214 87.0723 43.3866C87.1189 43.542 87.0956 43.6897 87.0023 43.8297C86.909 43.954 86.7847 44.0162 86.6292 44.0162H83.9241C83.7064 44.0162 83.551 43.9074 83.4577 43.6897C83.24 42.9901 83.0224 42.3061 82.8047 41.6376C82.6026 40.9691 82.3927 40.285 82.1751 39.5854C81.4289 39.7564 80.6904 39.9197 79.9597 40.0752C79.2446 40.2151 78.5139 40.3628 77.7676 40.5182C77.5966 41.0468 77.4256 41.5754 77.2546 42.104C77.0991 42.617 76.9359 43.1456 76.7649 43.6897C76.6716 43.9074 76.5161 44.0162 76.2985 44.0162H73.5934C73.4379 44.0162 73.3135 43.954 73.2202 43.8297C73.127 43.6897 73.1037 43.542 73.1503 43.3866C73.9743 40.8214 74.7905 38.264 75.5989 35.7143C76.4073 33.1647 77.2235 30.6073 78.0475 28.0421C78.1097 27.8244 78.2574 27.7156 78.4906 27.7156H81.732C81.9652 27.7156 82.1129 27.8244 82.1751 28.0421ZM81.1257 36.344L80.0996 33.1491L78.9569 36.787L81.1257 36.344ZM89.7461 44.0162C89.5129 44.0162 89.3652 43.9074 89.303 43.6897C88.479 41.109 87.6628 38.5516 86.8544 36.0175C86.046 33.4678 85.2298 30.9027 84.4058 28.3219C84.3592 28.1665 84.3825 28.0265 84.4758 27.9022C84.569 27.7778 84.6934 27.7156 84.8489 27.7156H87.9038C88.137 27.7156 88.2847 27.8244 88.3469 28.0421L91.3551 37.4866C91.8682 35.9009 92.3734 34.3307 92.8709 32.776C93.384 31.2058 93.8892 29.6278 94.3867 28.0421C94.4489 27.8244 94.5966 27.7156 94.8298 27.7156H97.8847C98.0402 27.7156 98.1645 27.7778 98.2578 27.9022C98.3511 28.0265 98.3744 28.1665 98.3278 28.3219C97.5038 30.9027 96.6876 33.4678 95.8792 36.0175C95.0708 38.5516 94.2546 41.109 93.4306 43.6897C93.3684 43.9074 93.2207 44.0162 92.9875 44.0162H89.7461ZM99.7426 44.0162C99.6183 44.0162 99.5094 43.9696 99.4162 43.8763C99.3229 43.783 99.2762 43.6664 99.2762 43.5265V28.182C99.2762 28.0576 99.3229 27.9488 99.4162 27.8555C99.5094 27.7622 99.6183 27.7156 99.7426 27.7156H108.861C108.985 27.7156 109.094 27.7622 109.187 27.8555C109.28 27.9488 109.327 28.0576 109.327 28.182V30.6772C109.327 30.8016 109.28 30.9104 109.187 31.0037C109.094 31.097 108.985 31.1436 108.861 31.1436H103.194V36.0874H106.995C107.12 36.0874 107.228 36.1341 107.322 36.2274C107.415 36.3206 107.462 36.4295 107.462 36.5538V39.0491C107.462 39.1734 107.415 39.2823 107.322 39.3756C107.228 39.4688 107.12 39.5155 106.995 39.5155H103.194V40.5882H109.56C109.685 40.5882 109.794 40.6348 109.887 40.7281C109.98 40.8214 110.027 40.9302 110.027 41.0546V43.5265C110.027 43.6664 109.98 43.783 109.887 43.8763C109.794 43.9696 109.685 44.0162 109.56 44.0162H99.7426ZM118.958 38.7926C119.393 39.5388 119.821 40.2928 120.24 41.0546C120.676 41.8008 121.111 42.5471 121.546 43.2933C121.624 43.4643 121.616 43.6276 121.523 43.783C121.445 43.9385 121.313 44.0162 121.126 44.0162H118.538C118.367 44.0162 118.227 43.9307 118.118 43.7597L115.81 39.702L114.2 40.0518V43.5265C114.2 43.6664 114.154 43.783 114.061 43.8763C113.967 43.9696 113.858 44.0162 113.734 44.0162H111.425C111.301 44.0162 111.192 43.9696 111.099 43.8763C111.006 43.783 110.959 43.6664 110.959 43.5265V28.182C110.959 28.0576 111.006 27.9488 111.099 27.8555C111.192 27.7622 111.301 27.7156 111.425 27.7156H116.019C116.688 27.7156 117.325 27.8244 117.932 28.0421C118.553 28.2597 119.113 28.5629 119.611 28.9516C120.124 29.3402 120.567 29.8066 120.94 30.3507C121.313 30.8793 121.585 31.4701 121.756 32.1231C121.927 32.776 121.982 33.429 121.919 34.0819C121.873 34.7193 121.725 35.3334 121.476 35.9242C121.243 36.515 120.909 37.0591 120.473 37.5566C120.038 38.0541 119.533 38.4661 118.958 38.7926ZM116.532 36.0874C117.014 35.9786 117.411 35.7843 117.722 35.5044C118.033 35.2246 118.25 34.8981 118.375 34.525C118.499 34.1519 118.538 33.771 118.491 33.3823C118.46 32.9781 118.344 32.6128 118.142 32.2863C117.939 31.9598 117.66 31.6878 117.302 31.4701C116.944 31.2525 116.517 31.1436 116.019 31.1436H114.2V36.5772C114.605 36.4994 114.993 36.4217 115.366 36.344C115.755 36.2507 116.144 36.1652 116.532 36.0874ZM122.892 28.182C122.892 27.9643 123.001 27.8244 123.219 27.7622C123.436 27.6845 123.615 27.7311 123.755 27.9022C124.983 29.5501 126.204 31.1903 127.416 32.8227C128.644 34.4395 129.873 36.0719 131.101 37.7198V28.182C131.101 28.0576 131.147 27.9488 131.241 27.8555C131.334 27.7622 131.443 27.7156 131.567 27.7156H134.529C134.669 27.7156 134.785 27.7622 134.879 27.8555C134.972 27.9488 135.019 28.0576 135.019 28.182V43.5265C135.019 43.6509 134.972 43.7675 134.879 43.8763C134.785 43.9696 134.669 44.0162 134.529 44.0162H131.567C131.412 44.0162 131.287 43.9463 131.194 43.8063C130.448 42.8269 129.717 41.8552 129.002 40.8913C128.287 39.9119 127.556 38.9325 126.81 37.953V43.5265C126.81 43.6509 126.763 43.7675 126.67 43.8763C126.577 43.9696 126.46 44.0162 126.32 44.0162H123.359C123.234 44.0162 123.125 43.9696 123.032 43.8763C122.939 43.7675 122.892 43.6509 122.892 43.5265V28.182ZM144.756 28.0421C145.58 30.6073 146.396 33.1647 147.205 35.7143C148.013 38.264 148.829 40.8214 149.653 43.3866C149.7 43.542 149.677 43.6897 149.583 43.8297C149.49 43.954 149.366 44.0162 149.21 44.0162H146.505C146.288 44.0162 146.132 43.9074 146.039 43.6897C145.821 42.9901 145.604 42.3061 145.386 41.6376C145.184 40.9691 144.974 40.285 144.756 39.5854C144.01 39.7564 143.272 39.9197 142.541 40.0752C141.826 40.2151 141.095 40.3628 140.349 40.5182C140.178 41.0468 140.007 41.5754 139.836 42.104C139.68 42.617 139.517 43.1456 139.346 43.6897C139.253 43.9074 139.097 44.0162 138.88 44.0162H136.175C136.019 44.0162 135.895 43.954 135.801 43.8297C135.708 43.6897 135.685 43.542 135.731 43.3866C136.555 40.8214 137.372 38.264 138.18 35.7143C138.988 33.1647 139.805 30.6073 140.629 28.0421C140.691 27.8244 140.839 27.7156 141.072 27.7156H144.313C144.546 27.7156 144.694 27.8244 144.756 28.0421ZM143.707 36.344L142.681 33.1491L141.538 36.787L143.707 36.344Z" fill="#D11F1F"/>
<path fill-rule="evenodd" clip-rule="evenodd" d="M27.7321 0.999985C26.9623 -0.333328 25.0378 -0.333328 24.268 0.999985L0.732057 41.7654C-0.0377493 43.0987 0.924501 44.7654 2.46411 44.7654H9.68604C9.91611 39.689 12.4965 35.2355 16.4571 32.3662L17.2557 31.812L18.6133 36.7995C18.9327 37.5119 19.9708 37.3536 20.0507 36.6411L22.127 26.1121C22.2867 25.3204 23.3248 25.2413 23.6442 25.9538L25.2414 30.3079C25.481 31.0204 26.4392 30.9412 26.6788 30.3079L27.7968 27.0621C28.0364 26.2704 29.2342 26.4288 29.3141 27.2996L29.8731 37.7495C29.9529 38.6994 31.3105 38.6994 31.3904 37.8286L32.5084 29.5954C32.5882 28.7246 33.8659 28.7246 34.0257 29.5162L36.9005 40.6786C37.0602 41.4702 38.2581 41.4702 38.4178 40.6786L39.3761 36.2453C41.0814 38.6709 42.1672 41.5744 42.3138 44.7654H49.5359C51.0755 44.7654 52.0378 43.0987 51.2679 41.7654L27.7321 0.999985Z" fill="#D11F1F"/>
</svg>
