<svg width="77" height="39" viewBox="0 0 77 39" fill="none" xmlns="http://www.w3.org/2000/svg">
<path d="M64.5921 15.2447C63.6739 14.6671 62.9112 13.9563 62.3041 13.1122C61.7117 12.2533 61.2971 11.3351 61.0601 10.3577C60.8232 9.36549 60.7713 8.35107 60.9046 7.31443C61.0379 6.2778 61.3711 5.29299 61.9042 4.36002C62.4374 3.41224 63.1186 2.62736 63.9479 2.00538C64.792 1.36859 65.6953 0.916917 66.6579 0.650354C67.6205 0.383791 68.6201 0.324554 69.6568 0.472645C70.6934 0.605926 71.6782 0.961344 72.6112 1.5389C73.5293 2.11645 74.2846 2.83469 74.877 3.69362C75.4693 4.53773 75.884 5.45589 76.1209 6.4481C76.3579 7.4255 76.4097 8.43252 76.2764 9.46915C76.1579 10.5058 75.8321 11.4906 75.299 12.4236C74.7659 13.3713 74.0773 14.1636 73.2332 14.8004C72.4038 15.4224 71.5079 15.8667 70.5453 16.1332C69.5827 16.3998 68.5831 16.459 67.5465 16.3109C66.5098 16.1777 65.525 15.8222 64.5921 15.2447ZM64.6809 6.22597C64.3996 6.7739 64.2293 7.34405 64.17 7.93641C64.1108 8.52878 64.1552 9.10633 64.3033 9.66907C64.4662 10.217 64.7253 10.7353 65.0808 11.224C65.451 11.6979 65.9027 12.0904 66.4358 12.4013C66.9837 12.7123 67.5539 12.8974 68.1462 12.9567C68.7386 13.0159 69.3088 12.9641 69.8567 12.8012C70.4194 12.6235 70.9303 12.3495 71.3894 11.9793C71.8485 11.5943 72.2261 11.1204 72.5223 10.5576C72.8037 10.0097 72.9666 9.43953 73.011 8.84717C73.0703 8.25481 73.0184 7.67725 72.8555 7.11451C72.7074 6.55177 72.4557 6.03345 72.1003 5.55956C71.7448 5.08567 71.2932 4.69323 70.7452 4.38224C70.1973 4.07125 69.6272 3.88613 69.0348 3.8269C68.4424 3.76766 67.8723 3.8269 67.3243 4.00461C66.7764 4.16751 66.2655 4.44147 65.7916 4.82651C65.3325 5.21154 64.9623 5.67803 64.6809 6.22597Z" fill="#0B0B0B"/>
<path d="M56.6395 16.0666C56.521 16.0666 56.4173 16.0222 56.3285 15.9333C56.2396 15.8297 56.1952 15.7186 56.1952 15.6001V0.983578C56.1952 0.865106 56.2396 0.761443 56.3285 0.672588C56.4173 0.583734 56.521 0.539307 56.6395 0.539307H59.4606C59.5939 0.539307 59.7049 0.583734 59.7938 0.672588C59.8826 0.761443 59.9271 0.865106 59.9271 0.983578V15.6001C59.9271 15.7186 59.8826 15.8297 59.7938 15.9333C59.7049 16.0222 59.5939 16.0666 59.4606 16.0666H56.6395Z" fill="#0B0B0B"/>
<path d="M46.1835 16.0666C46.065 16.0666 45.9613 16.0222 45.8725 15.9333C45.7836 15.8445 45.7392 15.7334 45.7392 15.6001V0.983578C45.7392 0.865106 45.7836 0.761443 45.8725 0.672588C45.9613 0.583734 46.065 0.539307 46.1835 0.539307H54.869C54.9875 0.539307 55.0911 0.583734 55.18 0.672588C55.2688 0.761443 55.3133 0.865106 55.3133 0.983578V3.36043C55.3133 3.47891 55.2688 3.58257 55.18 3.67142C55.0911 3.76028 54.9875 3.80471 54.869 3.80471H49.4711V8.51399H53.0919C53.2104 8.51399 53.314 8.55841 53.4029 8.64727C53.4917 8.73612 53.5362 8.83979 53.5362 8.95826V11.3351C53.5362 11.4536 53.4917 11.5572 53.4029 11.6461C53.314 11.735 53.2104 11.7794 53.0919 11.7794H49.4711V15.6001C49.4711 15.7334 49.4267 15.8445 49.3378 15.9333C49.2489 16.0222 49.1453 16.0666 49.0268 16.0666H46.1835Z" fill="#0B0B0B"/>
<path d="M44.5754 15.4668C44.6198 15.6149 44.5976 15.7556 44.5088 15.8889C44.4199 16.0074 44.3014 16.0666 44.1534 16.0666H41.5766C41.3693 16.0666 41.2212 15.9629 41.1323 15.7556C40.9694 15.2373 40.8065 14.7264 40.6436 14.2229C40.4955 13.7194 40.34 13.2159 40.1771 12.7124H35.7122C35.5493 13.2159 35.3864 13.7194 35.2235 14.2229C35.0754 14.7264 34.9199 15.2373 34.757 15.7556C34.6682 15.9629 34.5201 16.0666 34.3127 16.0666H31.736C31.5879 16.0666 31.4694 16.0074 31.3805 15.8889C31.2917 15.7556 31.2695 15.6149 31.3139 15.4668C32.0988 13.0233 32.8763 10.5873 33.6463 8.15857C34.4164 5.72988 35.1939 3.29379 35.9788 0.850297C36.038 0.64297 36.1787 0.539307 36.4008 0.539307H39.4885C39.7106 0.539307 39.8513 0.64297 39.9106 0.850297C40.6954 3.29379 41.4729 5.72988 42.243 8.15857C43.0131 10.5873 43.7905 13.0233 44.5754 15.4668ZM39.1331 9.46917L37.9336 5.71507L36.7562 9.46917H39.1331Z" fill="#0B0B0B"/>
<path d="M28.7973 8.26963C29.4637 8.56581 29.982 8.96565 30.3523 9.46916C30.7373 9.97267 30.9816 10.5132 31.0853 11.0908C31.2038 11.6683 31.1964 12.2533 31.0631 12.8456C30.9446 13.4232 30.7077 13.9563 30.3523 14.445C30.0117 14.9189 29.56 15.3039 28.9972 15.6001C28.4493 15.8963 27.8125 16.0444 27.0869 16.0444H26.0428C25.9243 16.0444 25.8207 16 25.7318 15.9111C25.643 15.8222 25.5985 15.7186 25.5985 15.6001V13.2233C25.5985 13.1048 25.643 13.0011 25.7318 12.9123C25.8207 12.8234 25.9243 12.779 26.0428 12.779H27.0869C27.309 12.779 27.4867 12.7198 27.62 12.6013C27.7533 12.468 27.8347 12.3199 27.8643 12.157C27.9088 11.9793 27.894 11.8016 27.8199 11.6239C27.7459 11.4462 27.6126 11.3129 27.4201 11.224C26.8425 10.9575 26.3316 10.6095 25.8873 10.18C25.4431 9.75053 25.0802 9.26924 24.7989 8.73611C24.5175 8.18818 24.325 7.61062 24.2213 7.00345C24.1176 6.38147 24.125 5.75209 24.2435 5.1153C24.3472 4.49332 24.5545 3.91576 24.8655 3.38264C25.1765 2.8347 25.5541 2.35341 25.9984 1.93875C26.4427 1.5241 26.9462 1.1909 27.5089 0.939142C28.0717 0.687387 28.6714 0.531892 29.3082 0.472656C29.4415 0.457847 29.5526 0.49487 29.6414 0.583725C29.7451 0.672579 29.7969 0.783647 29.7969 0.916928V3.316C29.7969 3.56775 29.671 3.71584 29.4193 3.76027C28.8417 3.84912 28.3827 4.08607 28.042 4.4711C27.7014 4.85614 27.4941 5.29301 27.4201 5.78171C27.3608 6.25559 27.4423 6.72948 27.6644 7.20337C27.8866 7.66246 28.2642 8.01787 28.7973 8.26963Z" fill="#0B0B0B"/>
<path d="M14.5117 16.0666C14.3932 16.0666 14.2896 16.0222 14.2007 15.9333C14.1119 15.8445 14.0674 15.7334 14.0674 15.6001V0.983578C14.0674 0.865106 14.1119 0.761443 14.2007 0.672588C14.2896 0.583734 14.3932 0.539307 14.5117 0.539307H23.1972C23.3157 0.539307 23.4194 0.583734 23.5082 0.672588C23.5971 0.761443 23.6415 0.865106 23.6415 0.983578V3.36043C23.6415 3.47891 23.5971 3.58257 23.5082 3.67142C23.4194 3.76028 23.3157 3.80471 23.1972 3.80471H17.7993V8.51399H21.4201C21.5386 8.51399 21.6423 8.55841 21.7311 8.64727C21.82 8.73612 21.8644 8.83979 21.8644 8.95826V11.3351C21.8644 11.4536 21.82 11.5572 21.7311 11.6461C21.6423 11.735 21.5386 11.7794 21.4201 11.7794H17.7993V12.8012H23.8636C23.9821 12.8012 24.0858 12.8456 24.1746 12.9345C24.2635 13.0233 24.3079 13.127 24.3079 13.2455V15.6001C24.3079 15.7334 24.2635 15.8445 24.1746 15.9333C24.0858 16.0222 23.9821 16.0666 23.8636 16.0666H14.5117Z" fill="#0B0B0B"/>
<path d="M0.888547 16.0666C0.770074 16.0666 0.666411 16.0222 0.577556 15.9333C0.488702 15.8445 0.444275 15.7334 0.444275 15.6001V0.983578C0.444275 0.865106 0.488702 0.761443 0.577556 0.672588C0.666411 0.583734 0.770074 0.539307 0.888547 0.539307H5.39791C6.46416 0.539307 7.47118 0.746633 8.41895 1.16129C9.36673 1.56113 10.1886 2.10907 10.8847 2.80509C11.5955 3.50112 12.1508 4.32302 12.5507 5.2708C12.9653 6.21858 13.1727 7.2256 13.1727 8.29185C13.1727 9.3581 12.9653 10.3651 12.5507 11.3129C12.1508 12.2607 11.5955 13.09 10.8847 13.8008C10.1886 14.4968 9.36673 15.0522 8.41895 15.4668C7.47118 15.8667 6.46416 16.0666 5.39791 16.0666H0.888547ZM7.77476 4.51554C7.46377 4.32302 7.15278 4.18234 6.84179 4.09348C6.54561 4.00463 6.24202 3.94539 5.93103 3.91577C5.63485 3.87135 5.33127 3.84913 5.02028 3.84913C4.70928 3.84913 4.39089 3.84913 4.06509 3.84913V12.7568H5.39791C6.07912 12.7568 6.70851 12.6161 7.28606 12.3347C7.87842 12.0534 8.37453 11.6757 8.77437 11.2018C9.18903 10.7279 9.48521 10.18 9.66292 9.55803C9.85543 8.93604 9.89986 8.29185 9.7962 7.62544C9.70734 6.97384 9.48521 6.38148 9.12979 5.84836C8.77437 5.30042 8.3227 4.85615 7.77476 4.51554Z" fill="#0B0B0B"/>
<path d="M71.7536 30.4833C72.42 30.7794 72.9383 31.1793 73.3086 31.6828C73.6936 32.1863 73.9379 32.7268 74.0416 33.3044C74.1601 33.8819 74.1527 34.4669 74.0194 35.0593C73.9009 35.6368 73.664 36.1699 73.3086 36.6586C72.9679 37.1325 72.5163 37.5176 71.9535 37.8137C71.4056 38.1099 70.7688 38.258 70.0432 38.258H68.9991C68.8806 38.258 68.777 38.2136 68.6881 38.1247C68.5993 38.0359 68.5548 37.9322 68.5548 37.8137V35.4369C68.5548 35.3184 68.5993 35.2147 68.6881 35.1259C68.777 35.037 68.8806 34.9926 68.9991 34.9926H70.0432C70.2653 34.9926 70.443 34.9334 70.5763 34.8149C70.7096 34.6816 70.791 34.5335 70.8206 34.3706C70.8651 34.1929 70.8503 34.0152 70.7762 33.8375C70.7022 33.6598 70.5689 33.5265 70.3764 33.4377C69.7988 33.1711 69.2879 32.8231 68.8436 32.3936C68.3994 31.9642 68.0365 31.4829 67.7552 30.9497C67.4738 30.4018 67.2813 29.8242 67.1776 29.2171C67.0739 28.5951 67.0813 27.9657 67.1998 27.3289C67.3035 26.7069 67.5108 26.1294 67.8218 25.5963C68.1328 25.0483 68.5104 24.567 68.9547 24.1524C69.399 23.7377 69.9025 23.4045 70.4652 23.1528C71.028 22.901 71.6277 22.7455 72.2645 22.6863C72.3978 22.6715 72.5089 22.7085 72.5977 22.7973C72.7014 22.8862 72.7532 22.9973 72.7532 23.1306V25.5296C72.7532 25.7814 72.6273 25.9295 72.3756 25.9739C71.798 26.0627 71.339 26.2997 70.9983 26.6847C70.6577 27.0698 70.4504 27.5066 70.3764 27.9953C70.3171 28.4692 70.3986 28.9431 70.6207 29.417C70.8428 29.8761 71.2205 30.2315 71.7536 30.4833Z" fill="#D11F1F"/>
<path d="M63.814 30.4833C64.4804 30.7794 64.9988 31.1793 65.369 31.6828C65.754 32.1863 65.9984 32.7268 66.102 33.3044C66.2205 33.8819 66.2131 34.4669 66.0798 35.0593C65.9613 35.6368 65.7244 36.1699 65.369 36.6586C65.0284 37.1325 64.5767 37.5176 64.014 37.8137C63.466 38.1099 62.8292 38.258 62.1036 38.258H61.0595C60.9411 38.258 60.8374 38.2136 60.7486 38.1247C60.6597 38.0359 60.6153 37.9322 60.6153 37.8137V35.4369C60.6153 35.3184 60.6597 35.2147 60.7486 35.1259C60.8374 35.037 60.9411 34.9926 61.0595 34.9926H62.1036C62.3257 34.9926 62.5034 34.9334 62.6367 34.8149C62.77 34.6816 62.8514 34.5335 62.8811 34.3706C62.9255 34.1929 62.9107 34.0152 62.8366 33.8375C62.7626 33.6598 62.6293 33.5265 62.4368 33.4377C61.8592 33.1711 61.3483 32.8231 60.9041 32.3936C60.4598 31.9642 60.097 31.4829 59.8156 30.9497C59.5342 30.4018 59.3417 29.8242 59.238 29.2171C59.1344 28.5951 59.1418 27.9657 59.2602 27.3289C59.3639 26.7069 59.5712 26.1294 59.8822 25.5963C60.1932 25.0483 60.5708 24.567 61.0151 24.1524C61.4594 23.7377 61.9629 23.4045 62.5256 23.1528C63.0884 22.901 63.6882 22.7455 64.3249 22.6863C64.4582 22.6715 64.5693 22.7085 64.6581 22.7973C64.7618 22.8862 64.8136 22.9973 64.8136 23.1306V25.5296C64.8136 25.7814 64.6878 25.9295 64.436 25.9739C63.8585 26.0627 63.3994 26.2997 63.0588 26.6847C62.7182 27.0698 62.5108 27.5066 62.4368 27.9953C62.3776 28.4692 62.459 28.9431 62.6811 29.417C62.9033 29.8761 63.2809 30.2315 63.814 30.4833Z" fill="#D11F1F"/>
<path d="M49.5284 38.2802C49.41 38.2802 49.3063 38.2358 49.2174 38.1469C49.1286 38.0581 49.0842 37.947 49.0842 37.8137V23.1972C49.0842 23.0787 49.1286 22.9751 49.2174 22.8862C49.3063 22.7974 49.41 22.7529 49.5284 22.7529H58.214C58.3324 22.7529 58.4361 22.7974 58.5249 22.8862C58.6138 22.9751 58.6582 23.0787 58.6582 23.1972V25.5741C58.6582 25.6925 58.6138 25.7962 58.5249 25.885C58.4361 25.9739 58.3324 26.0183 58.214 26.0183H52.8161V30.7276H56.4369C56.5553 30.7276 56.659 30.772 56.7479 30.8609C56.8367 30.9497 56.8811 31.0534 56.8811 31.1719V33.5487C56.8811 33.6672 56.8367 33.7709 56.7479 33.8597C56.659 33.9486 56.5553 33.993 56.4369 33.993H52.8161V35.0148H58.8804C58.9988 35.0148 59.1025 35.0593 59.1914 35.1481C59.2802 35.237 59.3246 35.3406 59.3246 35.4591V37.8137C59.3246 37.947 59.2802 38.0581 59.1914 38.1469C59.1025 38.2358 58.9988 38.2802 58.8804 38.2802H49.5284Z" fill="#D11F1F"/>
<path d="M45.3363 33.3044C45.751 34.0152 46.1582 34.7335 46.5581 35.4591C46.9727 36.1699 47.3874 36.8808 47.802 37.5916C47.8761 37.7545 47.8687 37.91 47.7798 38.0581C47.7058 38.2062 47.5799 38.2802 47.4022 38.2802H44.9365C44.7736 38.2802 44.6403 38.1988 44.5366 38.0359L42.3375 34.1707L40.8047 34.5039V37.8137C40.8047 37.947 40.7603 38.0581 40.6715 38.1469C40.5826 38.2358 40.4789 38.2802 40.3605 38.2802H38.1613C38.0428 38.2802 37.9392 38.2358 37.8503 38.1469C37.7615 38.0581 37.717 37.947 37.717 37.8137V23.1972C37.717 23.0787 37.7615 22.9751 37.8503 22.8862C37.9392 22.7974 38.0428 22.7529 38.1613 22.7529H42.5374C43.1742 22.7529 43.7814 22.8566 44.3589 23.0639C44.9513 23.2712 45.4844 23.56 45.9583 23.9303C46.447 24.3005 46.869 24.7447 47.2245 25.2631C47.5799 25.7666 47.839 26.3293 48.0019 26.9513C48.1648 27.5733 48.2167 28.1953 48.1574 28.8172C48.113 29.4244 47.9723 30.0094 47.7354 30.5721C47.5132 31.1349 47.1948 31.6532 46.7802 32.1271C46.3655 32.601 45.8842 32.9934 45.3363 33.3044ZM43.0261 30.7276C43.4852 30.6239 43.8628 30.4388 44.159 30.1723C44.4552 29.9057 44.6625 29.5947 44.781 29.2393C44.8994 28.8839 44.9365 28.5211 44.892 28.1508C44.8624 27.7658 44.7513 27.4178 44.5588 27.1068C44.3663 26.7958 44.0997 26.5366 43.7591 26.3293C43.4185 26.122 43.0113 26.0183 42.5374 26.0183H40.8047V31.1941C41.1898 31.12 41.56 31.046 41.9154 30.972C42.2856 30.8831 42.6559 30.8017 43.0261 30.7276Z" fill="#D11F1F"/>
<path d="M36.7903 27.7954C36.8643 28.5211 36.8051 29.2171 36.6126 29.8835C36.4201 30.5499 36.1239 31.1571 35.7241 31.705C35.3242 32.2529 34.8355 32.7194 34.258 33.1045C33.6804 33.4895 33.0362 33.7561 32.3254 33.9042C31.8515 34.0078 31.3702 34.1115 30.8815 34.2151C30.4076 34.304 29.9263 34.4003 29.4376 34.5039V37.8137C29.4376 37.947 29.3932 38.0581 29.3043 38.1469C29.2155 38.2358 29.1118 38.2802 28.9933 38.2802H26.7942C26.6757 38.2802 26.5721 38.2358 26.4832 38.1469C26.3943 38.0581 26.3499 37.947 26.3499 37.8137V23.1972C26.3499 23.0787 26.3943 22.9751 26.4832 22.8862C26.5721 22.7974 26.6757 22.7529 26.7942 22.7529H31.1703C31.8959 22.7529 32.5771 22.8862 33.2139 23.1528C33.8655 23.4045 34.4431 23.7599 34.9466 24.219C35.4501 24.6633 35.8647 25.1964 36.1905 25.8184C36.5163 26.4256 36.7163 27.0846 36.7903 27.7954ZM29.4376 31.1941C29.8226 31.12 30.1929 31.046 30.5483 30.972C30.9185 30.8831 31.2887 30.8017 31.659 30.7276C32.118 30.6239 32.4957 30.4388 32.7919 30.1723C33.088 29.9057 33.2954 29.5947 33.4138 29.2393C33.5323 28.8839 33.5693 28.5211 33.5249 28.1508C33.4953 27.7658 33.3842 27.4178 33.1917 27.1068C32.9992 26.7958 32.7326 26.5366 32.392 26.3293C32.0514 26.122 31.6442 26.0183 31.1703 26.0183H29.4376V31.1941Z" fill="#D11F1F"/>
<path d="M24.9937 22.7529C25.1714 22.7529 25.2973 22.827 25.3713 22.9751C25.4602 23.1232 25.4676 23.2712 25.3935 23.4193C24.7123 24.6189 24.0385 25.8036 23.3721 26.9735C22.7057 28.1434 22.0393 29.3207 21.3729 30.5055C22.0393 31.705 22.7057 32.8897 23.3721 34.0596C24.0385 35.2296 24.7123 36.4143 25.3935 37.6138C25.4676 37.7619 25.4602 37.91 25.3713 38.0581C25.2973 38.2062 25.1714 38.2802 24.9937 38.2802H22.1726C21.9949 38.2802 21.869 38.1988 21.7949 38.0359C21.4099 37.3399 21.0175 36.6512 20.6176 35.97C20.2178 35.2888 19.8253 34.6002 19.4403 33.9042L17.1079 38.0359C17.0042 38.1988 16.8709 38.2802 16.708 38.2802H13.8869C13.724 38.2802 13.5981 38.2062 13.5093 38.0581C13.4204 37.91 13.4204 37.7619 13.5093 37.6138C14.1757 36.4143 14.8421 35.2296 15.5085 34.0596C16.1749 32.8897 16.8487 31.705 17.5299 30.5055C16.8487 29.3207 16.1749 28.1434 15.5085 26.9735C14.8421 25.8036 14.1757 24.6189 13.5093 23.4193C13.4204 23.2712 13.4204 23.1232 13.5093 22.9751C13.5981 22.827 13.724 22.7529 13.8869 22.7529H16.708C16.8709 22.7529 17.0042 22.827 17.1079 22.9751C17.4929 23.6711 17.8779 24.3671 18.263 25.0631C18.6628 25.7444 19.0553 26.433 19.4403 27.129C19.8253 26.433 20.2178 25.7444 20.6176 25.0631C21.0175 24.3671 21.4099 23.6711 21.7949 22.9751C21.8838 22.827 22.0097 22.7529 22.1726 22.7529H24.9937Z" fill="#D11F1F"/>
<path d="M2.88855 38.2802C2.77007 38.2802 2.66641 38.2358 2.57756 38.1469C2.4887 38.0581 2.44427 37.947 2.44427 37.8137V23.1972C2.44427 23.0787 2.4887 22.9751 2.57756 22.8862C2.66641 22.7974 2.77007 22.7529 2.88855 22.7529H11.5741C11.6925 22.7529 11.7962 22.7974 11.8851 22.8862C11.9739 22.9751 12.0183 23.0787 12.0183 23.1972V25.5741C12.0183 25.6925 11.9739 25.7962 11.8851 25.885C11.7962 25.9739 11.6925 26.0183 11.5741 26.0183H6.17616V30.7276H9.79697C9.91545 30.7276 10.0191 30.772 10.108 30.8609C10.1968 30.9497 10.2412 31.0534 10.2412 31.1719V33.5487C10.2412 33.6672 10.1968 33.7709 10.108 33.8597C10.0191 33.9486 9.91545 33.993 9.79697 33.993H6.17616V35.0148H12.2405C12.3589 35.0148 12.4626 35.0593 12.5515 35.1481C12.6403 35.237 12.6847 35.3406 12.6847 35.4591V37.8137C12.6847 37.947 12.6403 38.0581 12.5515 38.1469C12.4626 38.2358 12.3589 38.2802 12.2405 38.2802H2.88855Z" fill="#D11F1F"/>
</svg>
