<svg width="140" height="45" viewBox="0 0 140 45" fill="none" xmlns="http://www.w3.org/2000/svg">
<path d="M14.5465 5.95183C15.5848 5.95183 17.6085 8.20038 18.8518 13.2265C18.9386 13.5635 19.091 13.8801 19.3002 14.1582C19.5094 14.4362 19.7713 14.6704 20.071 14.8473C20.3707 15.0241 20.7022 15.1402 21.0468 15.1889C21.3914 15.2377 21.7421 15.218 22.0791 15.1312C22.4161 15.0443 22.7326 14.892 23.0107 14.6828C23.2888 14.4736 23.523 14.2117 23.6998 13.912C23.8767 13.6123 23.9928 13.2807 24.0415 12.9362C24.0902 12.5916 24.0706 12.2408 23.9838 11.9039C22.2114 4.76804 18.7724 0.661133 14.5465 0.661133C9.74516 0.661133 5.94909 6.01796 4.55367 14.5492H1.52474C1.2278 14.5498 0.937464 14.6369 0.689242 14.7999C0.441019 14.9628 0.245673 15.1946 0.127095 15.4668C0.00851682 15.7391 -0.0281524 16.04 0.0215735 16.3327C0.0712994 16.6255 0.205265 16.8974 0.407083 17.1152L5.19516 22.2406C5.46118 22.5249 5.78276 22.7516 6.13996 22.9065C6.49717 23.0615 6.88239 23.1415 7.27176 23.1415C7.66113 23.1415 8.04636 23.0615 8.40356 22.9065C8.76077 22.7516 9.08234 22.5249 9.34836 22.2406L14.1364 17.1152C14.3383 16.8974 14.4722 16.6255 14.5219 16.3327C14.5717 16.04 14.535 15.7391 14.4164 15.4668C14.2979 15.1946 14.1025 14.9628 13.8543 14.7999C13.6061 14.6369 13.3157 14.5498 13.0188 14.5492H9.91711C11.0877 8.82865 13.3428 5.95183 14.5465 5.95183Z" fill="black"/>
<path d="M14.5465 42.3255C15.3302 42.3224 16.1064 42.1721 16.8347 41.8824C17.1582 41.7556 17.4536 41.5663 17.7039 41.3254C17.9543 41.0844 18.1547 40.7965 18.2938 40.4781C18.4329 40.1597 18.508 39.817 18.5146 39.4696C18.5213 39.1222 18.4594 38.7769 18.3326 38.4534C18.2058 38.1299 18.0166 37.8345 17.7756 37.5841C17.5347 37.3338 17.2468 37.1333 16.9283 36.9942C16.6099 36.8551 16.2672 36.7801 15.9198 36.7735C15.5724 36.7668 15.2271 36.8286 14.9036 36.9554C14.7905 37.0038 14.6694 37.0307 14.5465 37.0348C13.4354 37.0348 11.3191 34.5945 10.0957 29.1781C9.92354 28.5127 9.4992 27.9405 8.9125 27.5825C8.3258 27.2245 7.62281 27.1089 6.95238 27.2602C6.28195 27.4115 5.69671 27.8177 5.32059 28.393C4.94446 28.9682 4.80698 29.6672 4.93724 30.3421C6.61043 37.8483 10.2213 42.3255 14.5465 42.3255Z" fill="black"/>
<path d="M38.3546 23.1467C39.8156 23.1467 41 21.9623 41 20.5013C41 19.0403 39.8156 17.856 38.3546 17.856C36.8937 17.856 35.7093 19.0403 35.7093 20.5013C35.7093 21.9623 36.8937 23.1467 38.3546 23.1467Z" fill="black"/>
<path d="M30.0879 5.35683C30.1932 5.31487 30.3053 5.29246 30.4186 5.2907C31.5363 5.2907 33.2227 7.47311 34.3866 11.3419C34.5505 11.8877 34.8861 12.366 35.3437 12.7056C35.8013 13.0452 36.3563 13.228 36.9262 13.2267C37.3421 13.2289 37.7527 13.133 38.1246 12.9468C38.4965 12.7605 38.8193 12.4892 39.0667 12.1548C39.3141 11.8205 39.4792 11.4325 39.5485 11.0223C39.6178 10.6122 39.5895 10.1915 39.4657 9.7944C37.7925 4.13336 34.7504 0 30.4186 0C29.6326 0.001758 28.854 0.152096 28.1238 0.443096C27.6866 0.60978 27.3014 0.889447 27.0075 1.25357C26.7137 1.6177 26.5216 2.05325 26.4511 2.5158C26.3805 2.97835 26.4338 3.45135 26.6057 3.88656C26.7776 4.32176 27.0618 4.70359 27.4294 4.9931C27.7965 5.29181 28.2387 5.48376 28.7076 5.54792C29.1765 5.61207 29.6541 5.54597 30.0879 5.35683Z" fill="black"/>
<path d="M30.4186 41.6643C35.1207 41.6643 38.3017 36.7837 39.8691 30.3687C40.0375 29.6864 39.9279 28.9652 39.5645 28.3636C39.2011 27.7621 38.6136 27.3296 37.9314 27.1612C37.2491 26.9928 36.5278 27.1024 35.9263 27.4658C35.3248 27.8292 34.8923 28.4166 34.7239 29.0989C33.5665 33.7283 31.6553 36.3736 30.4252 36.3736C29.1951 36.3736 26.9664 33.4968 25.7958 27.7763H28.8512C29.15 27.7764 29.4423 27.6893 29.6923 27.5257C29.9423 27.362 30.1391 27.1289 30.2585 26.855C30.3779 26.5811 30.4147 26.2783 30.3644 25.9838C30.3141 25.6893 30.179 25.4158 29.9755 25.197L25.2006 20.0783C24.9351 19.7931 24.6137 19.5656 24.2564 19.4101C23.8992 19.2546 23.5137 19.1743 23.124 19.1743C22.7344 19.1743 22.3489 19.2546 21.9916 19.4101C21.6343 19.5656 21.3129 19.7931 21.0474 20.0783L16.2924 25.197C16.0889 25.4158 15.9537 25.6893 15.9035 25.9838C15.8532 26.2783 15.89 26.5811 16.0094 26.855C16.1288 27.1289 16.3256 27.362 16.5756 27.5257C16.8256 27.6893 17.1179 27.7764 17.4167 27.7763H20.4324C21.8212 36.3075 25.6239 41.6643 30.4186 41.6643Z" fill="black"/>
<path d="M52.8885 17.0666C52.7701 17.0666 52.6664 17.0222 52.5776 16.9334C52.4887 16.8445 52.4443 16.7334 52.4443 16.6002V1.98361C52.4443 1.86514 52.4887 1.76147 52.5776 1.67262C52.6664 1.58377 52.7701 1.53934 52.8885 1.53934H61.5741C61.6925 1.53934 61.7962 1.58377 61.885 1.67262C61.9739 1.76147 62.0183 1.86514 62.0183 1.98361V4.36047C62.0183 4.47894 61.9739 4.5826 61.885 4.67146C61.7962 4.76031 61.6925 4.80474 61.5741 4.80474H56.1762V9.51402H59.797C59.9154 9.51402 60.0191 9.55845 60.108 9.6473C60.1968 9.73615 60.2412 9.83982 60.2412 9.95829V12.3351C60.2412 12.4536 60.1968 12.5573 60.108 12.6461C60.0191 12.735 59.9154 12.7794 59.797 12.7794H56.1762V16.6002C56.1762 16.7334 56.1317 16.8445 56.0429 16.9334C55.954 17.0222 55.8504 17.0666 55.7319 17.0666H52.8885ZM66.1879 1.53934C66.3064 1.53934 66.41 1.58377 66.4989 1.67262C66.5877 1.76147 66.6322 1.86514 66.6322 1.98361V13.8012H72.6965C72.8149 13.8012 72.9186 13.8457 73.0075 13.9345C73.0963 14.0234 73.1407 14.127 73.1407 14.2455V16.6002C73.1407 16.7334 73.0963 16.8445 73.0075 16.9334C72.9186 17.0222 72.8149 17.0666 72.6965 17.0666H63.3446C63.2261 17.0666 63.1224 17.0222 63.0336 16.9334C62.9447 16.8445 62.9003 16.7334 62.9003 16.6002V1.98361C62.9003 1.86514 62.9447 1.76147 63.0336 1.67262C63.1224 1.58377 63.2261 1.53934 63.3446 1.53934H66.1879ZM76.5252 16.2447C75.607 15.6672 74.8444 14.9563 74.2372 14.1122C73.6448 13.2533 73.2302 12.3351 72.9932 11.3577C72.7563 10.3655 72.7045 9.35112 72.8377 8.31448C72.971 7.27785 73.3042 6.29305 73.8373 5.36008C74.3705 4.4123 75.0517 3.62742 75.881 3.00544C76.7251 2.36865 77.6285 1.91697 78.5911 1.65041C79.5536 1.38384 80.5533 1.32461 81.5899 1.4727C82.6265 1.60598 83.6113 1.9614 84.5443 2.53895C85.4625 3.1165 86.2177 3.83474 86.8101 4.69367C87.4025 5.53779 87.8171 6.45595 88.054 7.44816C88.291 8.42555 88.3428 9.43257 88.2095 10.4692C88.0911 11.5058 87.7653 12.4906 87.2321 13.4236C86.699 14.3714 86.0104 15.1637 85.1663 15.8005C84.337 16.4224 83.441 16.8667 82.4784 17.1333C81.5158 17.3998 80.5162 17.4591 79.4796 17.311C78.443 17.1777 77.4582 16.8223 76.5252 16.2447ZM76.614 7.22602C76.3327 7.77395 76.1624 8.3441 76.1031 8.93647C76.0439 9.52883 76.0883 10.1064 76.2364 10.6691C76.3993 11.2171 76.6585 11.7354 77.0139 12.2241C77.3841 12.698 77.8358 13.0904 78.3689 13.4014C78.9169 13.7124 79.487 13.8975 80.0794 13.9567C80.6717 14.016 81.2419 13.9641 81.7898 13.8012C82.3526 13.6235 82.8635 13.3496 83.3226 12.9793C83.7816 12.5943 84.1593 12.1204 84.4554 11.5577C84.7368 11.0097 84.8997 10.4396 84.9441 9.84722C85.0034 9.25486 84.9516 8.67731 84.7887 8.11456C84.6406 7.55182 84.3888 7.0335 84.0334 6.55961C83.678 6.08572 83.2263 5.69328 82.6784 5.38229C82.1304 5.0713 81.5603 4.88619 80.9679 4.82695C80.3756 4.76771 79.8054 4.82695 79.2575 5.00466C78.7095 5.16756 78.1986 5.44153 77.7247 5.82656C77.2656 6.2116 76.8954 6.67808 76.614 7.22602ZM96.119 16.7557C96.0597 16.963 95.919 17.0666 95.6969 17.0666H92.6092C92.3871 17.0666 92.2464 16.963 92.1872 16.7557C91.4023 14.2973 90.6248 11.8613 89.8547 9.44738C89.0847 7.01869 88.3072 4.5752 87.5223 2.11689C87.4779 1.9688 87.5001 1.83552 87.589 1.71705C87.6778 1.59858 87.7963 1.53934 87.9444 1.53934H90.8543C91.0765 1.53934 91.2172 1.643 91.2764 1.85033L94.142 10.8468C94.6159 9.33631 95.0971 7.84059 95.5858 6.35969C96.0745 4.86397 96.5558 3.36085 97.0297 1.85033C97.089 1.643 97.2296 1.53934 97.4518 1.53934C97.6739 1.53934 97.8146 1.643 97.8738 1.85033L100.739 10.8468L103.605 1.85033C103.694 1.643 103.842 1.53934 104.049 1.53934H106.937C107.1 1.53934 107.226 1.59858 107.315 1.71705C107.403 1.83552 107.426 1.9688 107.381 2.11689C106.596 4.5752 105.819 7.01869 105.049 9.44738C104.279 11.8613 103.501 14.2973 102.716 16.7557C102.628 16.963 102.479 17.0666 102.272 17.0666H99.2067C98.9845 17.0666 98.8438 16.963 98.7846 16.7557L97.4518 12.5573L96.119 16.7557Z" fill="black"/>
<path d="M65.9723 37.3252C65.143 38.1101 64.2397 38.6877 63.2623 39.0579C62.2849 39.4133 61.3001 39.5762 60.3079 39.5466C59.3305 39.517 58.3827 39.317 57.4645 38.9468C56.5464 38.5766 55.7245 38.0583 54.9988 37.3919C54.2732 36.7106 53.6808 35.9036 53.2217 34.9706C52.7627 34.0376 52.5109 33.001 52.4665 31.8607C52.4221 30.7204 52.585 29.6689 52.9552 28.7063C53.3402 27.729 53.8659 26.8774 54.5323 26.1518C55.1988 25.4261 55.9762 24.8412 56.8648 24.3969C57.7681 23.9526 58.7085 23.6787 59.6859 23.575C60.6633 23.4713 61.6555 23.5602 62.6625 23.8416C63.6695 24.1081 64.6173 24.6042 65.5059 25.3299C65.6095 25.4039 65.6614 25.5076 65.6614 25.6409C65.6762 25.7593 65.6391 25.8704 65.5503 25.9741C65.2541 26.2851 64.9653 26.5961 64.684 26.907C64.4174 27.218 64.136 27.529 63.8398 27.84C63.6621 28.0325 63.4622 28.0473 63.2401 27.8844C62.47 27.2921 61.6407 26.9811 60.7522 26.9515C59.8784 26.907 59.0713 27.0774 58.3309 27.4624C57.6052 27.8474 57.0055 28.4102 56.5316 29.1506C56.0577 29.8911 55.843 30.75 55.8874 31.7274C55.9318 32.69 56.2132 33.5267 56.7315 34.2375C57.2646 34.9336 57.9162 35.4445 58.6863 35.7703C59.4564 36.0813 60.2709 36.1849 61.1298 36.0813C62.0035 35.9776 62.8032 35.6 63.5289 34.9484C63.7362 34.7855 63.9361 34.7929 64.1286 34.9706C64.4248 35.252 64.7284 35.5333 65.0394 35.8147C65.3504 36.0961 65.6614 36.3848 65.9723 36.681C66.0612 36.7699 66.1056 36.881 66.1056 37.0142C66.1056 37.1327 66.0612 37.2364 65.9723 37.3252ZM75.0282 24.0637C75.8131 26.5072 76.5906 28.9433 77.3606 31.372C78.1307 33.8007 78.9082 36.2368 79.6931 38.6803C79.7375 38.8283 79.7153 38.969 79.6264 39.1023C79.5376 39.2208 79.4191 39.28 79.271 39.28H76.6942C76.4869 39.28 76.3388 39.1764 76.25 38.969C76.0426 38.3026 75.8353 37.651 75.628 37.0142C75.4355 36.3774 75.2355 35.7258 75.0282 35.0594C74.3174 35.2223 73.6139 35.3778 72.9179 35.5259C72.2367 35.6592 71.5407 35.7999 70.8298 35.948C70.6669 36.4515 70.504 36.955 70.3411 37.4585C70.193 37.9472 70.0376 38.4507 69.8747 38.969C69.7858 39.1764 69.6377 39.28 69.4304 39.28H66.8536C66.7055 39.28 66.587 39.2208 66.4982 39.1023C66.4093 38.969 66.3871 38.8283 66.4315 38.6803C67.2164 36.2368 67.9939 33.8007 68.764 31.372C69.534 28.9433 70.3115 26.5072 71.0964 24.0637C71.1556 23.8564 71.2963 23.7527 71.5185 23.7527H74.6061C74.8283 23.7527 74.969 23.8564 75.0282 24.0637ZM74.0286 31.9717L73.0512 28.9285L71.9627 32.3938L74.0286 31.9717ZM82.24 39.28C82.0179 39.28 81.8772 39.1764 81.8179 38.969C81.033 36.5107 80.2556 34.0746 79.4855 31.6608C78.7154 29.2321 77.938 26.7886 77.1531 24.3303C77.1086 24.1822 77.1309 24.0489 77.2197 23.9304C77.3086 23.812 77.427 23.7527 77.5751 23.7527H80.4851C80.7073 23.7527 80.8479 23.8564 80.9072 24.0637L83.7727 33.0602C84.2614 31.5497 84.7427 30.054 85.2166 28.5731C85.7053 27.0774 86.1866 25.5742 86.6605 24.0637C86.7197 23.8564 86.8604 23.7527 87.0826 23.7527H89.9925C90.1406 23.7527 90.2591 23.812 90.3479 23.9304C90.4368 24.0489 90.459 24.1822 90.4146 24.3303C89.6297 26.7886 88.8522 29.2321 88.0822 31.6608C87.3121 34.0746 86.5346 36.5107 85.7497 38.969C85.6905 39.1764 85.5498 39.28 85.3277 39.28H82.24ZM91.7623 39.28C91.6439 39.28 91.5402 39.2356 91.4513 39.1467C91.3625 39.0579 91.3181 38.9468 91.3181 38.8135V24.197C91.3181 24.0785 91.3625 23.9749 91.4513 23.886C91.5402 23.7971 91.6439 23.7527 91.7623 23.7527H100.448C100.566 23.7527 100.67 23.7971 100.759 23.886C100.848 23.9749 100.892 24.0785 100.892 24.197V26.5738C100.892 26.6923 100.848 26.796 100.759 26.8848C100.67 26.9737 100.566 27.0181 100.448 27.0181H95.0499V31.7274H98.6708C98.7892 31.7274 98.8929 31.7718 98.9817 31.8607C99.0706 31.9495 99.115 32.0532 99.115 32.1717V34.5485C99.115 34.667 99.0706 34.7707 98.9817 34.8595C98.8929 34.9484 98.7892 34.9928 98.6708 34.9928H95.0499V36.0146H101.114C101.233 36.0146 101.336 36.059 101.425 36.1479C101.514 36.2368 101.559 36.3404 101.559 36.4589V38.8135C101.559 38.9468 101.514 39.0579 101.425 39.1467C101.336 39.2356 101.233 39.28 101.114 39.28H91.7623ZM110.066 34.3042C110.48 35.015 110.888 35.7332 111.288 36.4589C111.702 37.1697 112.117 37.8806 112.532 38.5914C112.606 38.7543 112.598 38.9098 112.509 39.0579C112.435 39.206 112.309 39.28 112.132 39.28H109.666C109.503 39.28 109.37 39.1986 109.266 39.0357L107.067 35.1705L105.534 35.5037V38.8135C105.534 38.9468 105.49 39.0579 105.401 39.1467C105.312 39.2356 105.208 39.28 105.09 39.28H102.891C102.772 39.28 102.669 39.2356 102.58 39.1467C102.491 39.0579 102.447 38.9468 102.447 38.8135V24.197C102.447 24.0785 102.491 23.9749 102.58 23.886C102.669 23.7971 102.772 23.7527 102.891 23.7527H107.267C107.904 23.7527 108.511 23.8564 109.088 24.0637C109.681 24.271 110.214 24.5598 110.688 24.93C111.176 25.3003 111.599 25.7445 111.954 26.2629C112.309 26.7664 112.569 27.3291 112.731 27.9511C112.894 28.5731 112.946 29.195 112.887 29.817C112.843 30.4242 112.702 31.0092 112.465 31.5719C112.243 32.1346 111.924 32.653 111.51 33.1269C111.095 33.6007 110.614 33.9932 110.066 34.3042ZM107.756 31.7274C108.215 31.6237 108.592 31.4386 108.888 31.1721C109.185 30.9055 109.392 30.5945 109.51 30.2391C109.629 29.8837 109.666 29.5208 109.622 29.1506C109.592 28.7656 109.481 28.4176 109.288 28.1066C109.096 27.7956 108.829 27.5364 108.489 27.3291C108.148 27.1218 107.741 27.0181 107.267 27.0181H105.534V32.1939C105.919 32.1198 106.29 32.0458 106.645 31.9717C107.015 31.8829 107.385 31.8014 107.756 31.7274ZM113.814 24.197C113.814 23.9897 113.917 23.8564 114.125 23.7971C114.332 23.7231 114.502 23.7675 114.636 23.9304C115.805 25.5002 116.968 27.0625 118.123 28.6175C119.293 30.1576 120.463 31.7126 121.633 33.2823V24.197C121.633 24.0785 121.677 23.9749 121.766 23.886C121.855 23.7971 121.959 23.7527 122.077 23.7527H124.898C125.032 23.7527 125.143 23.7971 125.231 23.886C125.32 23.9749 125.365 24.0785 125.365 24.197V38.8135C125.365 38.932 125.32 39.0431 125.231 39.1467C125.143 39.2356 125.032 39.28 124.898 39.28H122.077C121.929 39.28 121.811 39.2134 121.722 39.0801C121.011 38.1471 120.315 37.2216 119.634 36.3034C118.952 35.3704 118.256 34.4375 117.546 33.5045V38.8135C117.546 38.932 117.501 39.0431 117.412 39.1467C117.323 39.2356 117.212 39.28 117.079 39.28H114.258C114.139 39.28 114.036 39.2356 113.947 39.1467C113.858 39.0431 113.814 38.932 113.814 38.8135V24.197ZM134.64 24.0637C135.425 26.5072 136.203 28.9433 136.973 31.372C137.743 33.8007 138.52 36.2368 139.305 38.6803C139.35 38.8283 139.328 38.969 139.239 39.1023C139.15 39.2208 139.031 39.28 138.883 39.28H136.306C136.099 39.28 135.951 39.1764 135.862 38.969C135.655 38.3026 135.448 37.651 135.24 37.0142C135.048 36.3774 134.848 35.7258 134.64 35.0594C133.93 35.2223 133.226 35.3778 132.53 35.5259C131.849 35.6592 131.153 35.7999 130.442 35.948C130.279 36.4515 130.116 36.955 129.953 37.4585C129.805 37.9472 129.65 38.4507 129.487 38.969C129.398 39.1764 129.25 39.28 129.043 39.28H126.466C126.318 39.28 126.199 39.2208 126.11 39.1023C126.022 38.969 125.999 38.8283 126.044 38.6803C126.829 36.2368 127.606 33.8007 128.376 31.372C129.146 28.9433 129.924 26.5072 130.709 24.0637C130.768 23.8564 130.909 23.7527 131.131 23.7527H134.218C134.441 23.7527 134.581 23.8564 134.64 24.0637ZM133.641 31.9717L132.663 28.9285L131.575 32.3938L133.641 31.9717Z" fill="#D11F1F"/>
</svg>
