<svg width="115" height="39" viewBox="0 0 115 39" fill="none" xmlns="http://www.w3.org/2000/svg">
<path d="M83.5921 15.2447C82.6739 14.6671 81.9113 13.9563 81.3041 13.1122C80.7117 12.2533 80.2971 11.3351 80.0601 10.3577C79.8232 9.36549 79.7714 8.35107 79.9046 7.31443C80.0379 6.2778 80.3711 5.29299 80.9043 4.36002C81.4374 3.41224 82.1186 2.62736 82.9479 2.00538C83.792 1.36859 84.6954 0.916917 85.658 0.650354C86.6206 0.383791 87.6202 0.324554 88.6568 0.472645C89.6934 0.605926 90.6782 0.961344 91.6112 1.5389C92.5294 2.11645 93.2846 2.83469 93.877 3.69362C94.4694 4.53773 94.884 5.45589 95.121 6.4481C95.3579 7.4255 95.4097 8.43252 95.2765 9.46915C95.158 10.5058 94.8322 11.4906 94.299 12.4236C93.7659 13.3713 93.0773 14.1636 92.2332 14.8004C91.4039 15.4224 90.5079 15.8667 89.5453 16.1332C88.5828 16.3998 87.5831 16.459 86.5465 16.3109C85.5099 16.1777 84.5251 15.8222 83.5921 15.2447ZM83.681 6.22597C83.3996 6.7739 83.2293 7.34405 83.17 7.93641C83.1108 8.52878 83.1552 9.10633 83.3033 9.66907C83.4662 10.217 83.7254 10.7353 84.0808 11.224C84.451 11.6979 84.9027 12.0904 85.4358 12.4013C85.9838 12.7123 86.5539 12.8974 87.1463 12.9567C87.7386 13.0159 88.3088 12.9641 88.8567 12.8012C89.4195 12.6235 89.9304 12.3495 90.3895 11.9793C90.8485 11.5943 91.2262 11.1204 91.5224 10.5576C91.8037 10.0097 91.9666 9.43953 92.0111 8.84717C92.0703 8.25481 92.0185 7.67725 91.8556 7.11451C91.7075 6.55177 91.4557 6.03345 91.1003 5.55956C90.7449 5.08567 90.2932 4.69323 89.7453 4.38224C89.1973 4.07125 88.6272 3.88613 88.0348 3.8269C87.4425 3.76766 86.8723 3.8269 86.3244 4.00461C85.7764 4.16751 85.2655 4.44147 84.7916 4.82651C84.3326 5.21154 83.9623 5.67803 83.681 6.22597Z" fill="#0B0B0B"/>
<path d="M75.6395 16.0666C75.521 16.0666 75.4173 16.0222 75.3285 15.9333C75.2396 15.8297 75.1952 15.7186 75.1952 15.6001V0.983578C75.1952 0.865106 75.2396 0.761443 75.3285 0.672588C75.4173 0.583734 75.521 0.539307 75.6395 0.539307H78.4606C78.5939 0.539307 78.7049 0.583734 78.7938 0.672588C78.8826 0.761443 78.9271 0.865106 78.9271 0.983578V15.6001C78.9271 15.7186 78.8826 15.8297 78.7938 15.9333C78.7049 16.0222 78.5939 16.0666 78.4606 16.0666H75.6395Z" fill="#0B0B0B"/>
<path d="M65.1834 16.0666C65.065 16.0666 64.9613 16.0222 64.8724 15.9333C64.7836 15.8445 64.7392 15.7334 64.7392 15.6001V0.983578C64.7392 0.865106 64.7836 0.761443 64.8724 0.672588C64.9613 0.583734 65.065 0.539307 65.1834 0.539307H73.869C73.9874 0.539307 74.0911 0.583734 74.1799 0.672588C74.2688 0.761443 74.3132 0.865106 74.3132 0.983578V3.36043C74.3132 3.47891 74.2688 3.58257 74.1799 3.67142C74.0911 3.76028 73.9874 3.80471 73.869 3.80471H68.4711V8.51399H72.0919C72.2103 8.51399 72.314 8.55841 72.4029 8.64727C72.4917 8.73612 72.5361 8.83979 72.5361 8.95826V11.3351C72.5361 11.4536 72.4917 11.5572 72.4029 11.6461C72.314 11.735 72.2103 11.7794 72.0919 11.7794H68.4711V15.6001C68.4711 15.7334 68.4266 15.8445 68.3378 15.9333C68.2489 16.0222 68.1453 16.0666 68.0268 16.0666H65.1834Z" fill="#0B0B0B"/>
<path d="M63.5754 15.4668C63.6198 15.6149 63.5976 15.7556 63.5087 15.8889C63.4199 16.0074 63.3014 16.0666 63.1533 16.0666H60.5766C60.3692 16.0666 60.2211 15.9629 60.1323 15.7556C59.9694 15.2373 59.8065 14.7264 59.6436 14.2229C59.4955 13.7194 59.34 13.2159 59.1771 12.7124H54.7122C54.5493 13.2159 54.3864 13.7194 54.2235 14.2229C54.0754 14.7264 53.9199 15.2373 53.757 15.7556C53.6681 15.9629 53.52 16.0666 53.3127 16.0666H50.7359C50.5878 16.0666 50.4694 16.0074 50.3805 15.8889C50.2917 15.7556 50.2694 15.6149 50.3139 15.4668C51.0988 13.0233 51.8762 10.5873 52.6463 8.15857C53.4164 5.72988 54.1938 3.29379 54.9787 0.850297C55.038 0.64297 55.1786 0.539307 55.4008 0.539307H58.4885C58.7106 0.539307 58.8513 0.64297 58.9105 0.850297C59.6954 3.29379 60.4729 5.72988 61.243 8.15857C62.013 10.5873 62.7905 13.0233 63.5754 15.4668ZM58.1331 9.46917L56.9335 5.71507L55.7562 9.46917H58.1331Z" fill="#0B0B0B"/>
<path d="M47.7973 8.26963C48.4637 8.56581 48.982 8.96565 49.3523 9.46916C49.7373 9.97267 49.9816 10.5132 50.0853 11.0908C50.2038 11.6683 50.1964 12.2533 50.0631 12.8456C49.9446 13.4232 49.7077 13.9563 49.3523 14.445C49.0117 14.9189 48.56 15.3039 47.9972 15.6001C47.4493 15.8963 46.8125 16.0444 46.0869 16.0444H45.0428C44.9243 16.0444 44.8207 16 44.7318 15.9111C44.643 15.8222 44.5985 15.7186 44.5985 15.6001V13.2233C44.5985 13.1048 44.643 13.0011 44.7318 12.9123C44.8207 12.8234 44.9243 12.779 45.0428 12.779H46.0869C46.309 12.779 46.4867 12.7198 46.62 12.6013C46.7533 12.468 46.8347 12.3199 46.8643 12.157C46.9088 11.9793 46.894 11.8016 46.8199 11.6239C46.7459 11.4462 46.6126 11.3129 46.4201 11.224C45.8425 10.9575 45.3316 10.6095 44.8873 10.18C44.4431 9.75053 44.0802 9.26924 43.7989 8.73611C43.5175 8.18818 43.325 7.61062 43.2213 7.00345C43.1176 6.38147 43.125 5.75209 43.2435 5.1153C43.3472 4.49332 43.5545 3.91576 43.8655 3.38264C44.1765 2.8347 44.5541 2.35341 44.9984 1.93875C45.4427 1.5241 45.9462 1.1909 46.5089 0.939142C47.0717 0.687387 47.6714 0.531892 48.3082 0.472656C48.4415 0.457847 48.5526 0.49487 48.6414 0.583725C48.7451 0.672579 48.7969 0.783647 48.7969 0.916928V3.316C48.7969 3.56775 48.671 3.71584 48.4193 3.76027C47.8417 3.84912 47.3827 4.08607 47.042 4.4711C46.7014 4.85614 46.4941 5.29301 46.4201 5.78171C46.3608 6.25559 46.4423 6.72948 46.6644 7.20337C46.8866 7.66246 47.2642 8.01787 47.7973 8.26963Z" fill="#0B0B0B"/>
<path d="M33.5117 16.0666C33.3932 16.0666 33.2896 16.0222 33.2007 15.9333C33.1119 15.8445 33.0674 15.7334 33.0674 15.6001V0.983578C33.0674 0.865106 33.1119 0.761443 33.2007 0.672588C33.2896 0.583734 33.3932 0.539307 33.5117 0.539307H42.1972C42.3157 0.539307 42.4194 0.583734 42.5082 0.672588C42.5971 0.761443 42.6415 0.865106 42.6415 0.983578V3.36043C42.6415 3.47891 42.5971 3.58257 42.5082 3.67142C42.4194 3.76028 42.3157 3.80471 42.1972 3.80471H36.7993V8.51399H40.4201C40.5386 8.51399 40.6423 8.55841 40.7311 8.64727C40.82 8.73612 40.8644 8.83979 40.8644 8.95826V11.3351C40.8644 11.4536 40.82 11.5572 40.7311 11.6461C40.6423 11.735 40.5386 11.7794 40.4201 11.7794H36.7993V12.8012H42.8636C42.9821 12.8012 43.0858 12.8456 43.1746 12.9345C43.2635 13.0233 43.3079 13.127 43.3079 13.2455V15.6001C43.3079 15.7334 43.2635 15.8445 43.1746 15.9333C43.0858 16.0222 42.9821 16.0666 42.8636 16.0666H33.5117Z" fill="#0B0B0B"/>
<path d="M19.8885 16.0666C19.7701 16.0666 19.6664 16.0222 19.5776 15.9333C19.4887 15.8445 19.4443 15.7334 19.4443 15.6001V0.983578C19.4443 0.865106 19.4887 0.761443 19.5776 0.672588C19.6664 0.583734 19.7701 0.539307 19.8885 0.539307H24.3979C25.4642 0.539307 26.4712 0.746633 27.419 1.16129C28.3667 1.56113 29.1886 2.10907 29.8847 2.80509C30.5955 3.50112 31.1508 4.32302 31.5507 5.2708C31.9653 6.21858 32.1727 7.2256 32.1727 8.29185C32.1727 9.3581 31.9653 10.3651 31.5507 11.3129C31.1508 12.2607 30.5955 13.09 29.8847 13.8008C29.1886 14.4968 28.3667 15.0522 27.419 15.4668C26.4712 15.8667 25.4642 16.0666 24.3979 16.0666H19.8885ZM26.7748 4.51554C26.4638 4.32302 26.1528 4.18234 25.8418 4.09348C25.5456 4.00463 25.242 3.94539 24.931 3.91577C24.6349 3.87135 24.3313 3.84913 24.0203 3.84913C23.7093 3.84913 23.3909 3.84913 23.0651 3.84913V12.7568H24.3979C25.0791 12.7568 25.7085 12.6161 26.2861 12.3347C26.8784 12.0534 27.3745 11.6757 27.7744 11.2018C28.189 10.7279 28.4852 10.18 28.6629 9.55803C28.8554 8.93604 28.8999 8.29185 28.7962 7.62544C28.7073 6.97384 28.4852 6.38148 28.1298 5.84836C27.7744 5.30042 27.3227 4.85615 26.7748 4.51554Z" fill="#0B0B0B"/>
<path d="M102.316 37.4583C101.398 36.8808 100.635 36.1699 100.028 35.3258C99.4358 34.4669 99.0211 33.5487 98.7842 32.5713C98.5473 31.5791 98.4954 30.5647 98.6287 29.5281C98.762 28.4914 99.0952 27.5066 99.6283 26.5736C100.161 25.6259 100.843 24.841 101.672 24.219C102.516 23.5822 103.419 23.1305 104.382 22.864C105.345 22.5974 106.344 22.5382 107.381 22.6863C108.417 22.8195 109.402 23.175 110.335 23.7525C111.253 24.3301 112.009 25.0483 112.601 25.9072C113.193 26.7514 113.608 27.6695 113.845 28.6617C114.082 29.6391 114.134 30.6461 114.001 31.6828C113.882 32.7194 113.556 33.7042 113.023 34.6372C112.49 35.585 111.801 36.3772 110.957 37.014C110.128 37.636 109.232 38.0803 108.269 38.3469C107.307 38.6134 106.307 38.6727 105.271 38.5246C104.234 38.3913 103.249 38.0359 102.316 37.4583ZM102.405 28.4396C102.124 28.9875 101.953 29.5577 101.894 30.15C101.835 30.7424 101.879 31.32 102.027 31.8827C102.19 32.4306 102.449 32.9489 102.805 33.4376C103.175 33.9115 103.627 34.304 104.16 34.615C104.708 34.926 105.278 35.1111 105.87 35.1703C106.463 35.2295 107.033 35.1777 107.581 35.0148C108.144 34.8371 108.654 34.5631 109.114 34.1929C109.573 33.8079 109.95 33.334 110.246 32.7712C110.528 32.2233 110.691 31.6532 110.735 31.0608C110.794 30.4684 110.743 29.8909 110.58 29.3281C110.432 28.7654 110.18 28.2471 109.824 27.7732C109.469 27.2993 109.017 26.9069 108.469 26.5959C107.921 26.2849 107.351 26.0998 106.759 26.0405C106.167 25.9813 105.596 26.0405 105.048 26.2182C104.501 26.3811 103.99 26.6551 103.516 27.0401C103.057 27.4252 102.686 27.8917 102.405 28.4396Z" fill="#D11F1F"/>
<path d="M95.5032 30.4833C96.1696 30.7794 96.6879 31.1793 97.0581 31.6828C97.4432 32.1863 97.6875 32.7268 97.7912 33.3044C97.9097 33.8819 97.9022 34.4669 97.769 35.0593C97.6505 35.6368 97.4135 36.1699 97.0581 36.6586C96.7175 37.1325 96.2658 37.5176 95.7031 37.8137C95.1552 38.1099 94.5184 38.258 93.7927 38.258H92.7487C92.6302 38.258 92.5266 38.2136 92.4377 38.1247C92.3489 38.0359 92.3044 37.9322 92.3044 37.8137V35.4369C92.3044 35.3184 92.3489 35.2147 92.4377 35.1259C92.5266 35.037 92.6302 34.9926 92.7487 34.9926H93.7927C94.0149 34.9926 94.1926 34.9334 94.3259 34.8149C94.4591 34.6816 94.5406 34.5335 94.5702 34.3706C94.6146 34.1929 94.5998 34.0152 94.5258 33.8375C94.4517 33.6598 94.3185 33.5265 94.1259 33.4377C93.5484 33.1711 93.0375 32.8231 92.5932 32.3936C92.1489 31.9642 91.7861 31.4829 91.5047 30.9497C91.2234 30.4018 91.0308 29.8242 90.9272 29.2171C90.8235 28.5951 90.8309 27.9657 90.9494 27.3289C91.0531 26.7069 91.2604 26.1294 91.5714 25.5963C91.8824 25.0483 92.26 24.567 92.7043 24.1524C93.1485 23.7377 93.652 23.4045 94.2148 23.1528C94.7775 22.901 95.3773 22.7455 96.0141 22.6863C96.1474 22.6715 96.2584 22.7085 96.3473 22.7973C96.451 22.8862 96.5028 22.9973 96.5028 23.1306V25.5296C96.5028 25.7814 96.3769 25.9295 96.1252 25.9739C95.5476 26.0627 95.0885 26.2997 94.7479 26.6847C94.4073 27.0698 94.2 27.5066 94.1259 27.9953C94.0667 28.4692 94.1481 28.9431 94.3703 29.417C94.5924 29.8761 94.9701 30.2315 95.5032 30.4833Z" fill="#D11F1F"/>
<path d="M78.4539 37.4583C77.5357 36.8808 76.7731 36.1699 76.1659 35.3258C75.5735 34.4669 75.1589 33.5487 74.9219 32.5713C74.685 31.5791 74.6331 30.5647 74.7664 29.5281C74.8997 28.4914 75.2329 27.5066 75.766 26.5736C76.2992 25.6259 76.9804 24.841 77.8097 24.219C78.6538 23.5822 79.5572 23.1305 80.5197 22.864C81.4823 22.5974 82.4819 22.5382 83.5186 22.6863C84.5552 22.8195 85.54 23.175 86.473 23.7525C87.3912 24.3301 88.1464 25.0483 88.7388 25.9072C89.3311 26.7514 89.7458 27.6695 89.9827 28.6617C90.2197 29.6391 90.2715 30.6461 90.1382 31.6828C90.0198 32.7194 89.694 33.7042 89.1608 34.6372C88.6277 35.585 87.9391 36.3772 87.095 37.014C86.2657 37.636 85.3697 38.0803 84.4071 38.3469C83.4445 38.6134 82.4449 38.6727 81.4083 38.5246C80.3717 38.3913 79.3869 38.0359 78.4539 37.4583ZM78.5427 28.4396C78.2614 28.9875 78.0911 29.5577 78.0318 30.15C77.9726 30.7424 78.017 31.32 78.1651 31.8827C78.328 32.4306 78.5872 32.9489 78.9426 33.4376C79.3128 33.9115 79.7645 34.304 80.2976 34.615C80.8455 34.926 81.4157 35.1111 82.0081 35.1703C82.6004 35.2295 83.1706 35.1777 83.7185 35.0148C84.2813 34.8371 84.7922 34.5631 85.2512 34.1929C85.7103 33.8079 86.088 33.334 86.3841 32.7712C86.6655 32.2233 86.8284 31.6532 86.8728 31.0608C86.9321 30.4684 86.8802 29.8909 86.7173 29.3281C86.5693 28.7654 86.3175 28.2471 85.9621 27.7732C85.6067 27.2993 85.155 26.9069 84.6071 26.5959C84.0591 26.2849 83.489 26.0998 82.8966 26.0405C82.3042 25.9813 81.7341 26.0405 81.1862 26.2182C80.6382 26.3811 80.1273 26.6551 79.6534 27.0401C79.1943 27.4252 78.8241 27.8917 78.5427 28.4396Z" fill="#D11F1F"/>
<path d="M62.2475 23.1972C62.2475 22.9899 62.3512 22.8566 62.5585 22.7974C62.7658 22.7233 62.9361 22.7677 63.0694 22.9306C64.2393 24.5004 65.4019 26.0628 66.557 27.6177C67.7269 29.1578 68.8968 30.7128 70.0667 32.2826V23.1972C70.0667 23.0787 70.1111 22.9751 70.2 22.8862C70.2888 22.7974 70.3925 22.7529 70.511 22.7529H73.3321C73.4654 22.7529 73.5765 22.7974 73.6653 22.8862C73.7542 22.9751 73.7986 23.0787 73.7986 23.1972V37.8137C73.7986 37.9322 73.7542 38.0433 73.6653 38.1469C73.5765 38.2358 73.4654 38.2802 73.3321 38.2802H70.511C70.3629 38.2802 70.2444 38.2136 70.1556 38.0803C69.4447 37.1473 68.7487 36.2218 68.0675 35.3036C67.3863 34.3706 66.6902 33.4377 65.9794 32.5047V37.8137C65.9794 37.9322 65.935 38.0433 65.8461 38.1469C65.7573 38.2358 65.6462 38.2802 65.5129 38.2802H62.6918C62.5733 38.2802 62.4697 38.2358 62.3808 38.1469C62.292 38.0433 62.2475 37.9322 62.2475 37.8137V23.1972Z" fill="#D11F1F"/>
<path d="M58.4997 33.3044C58.9143 34.0152 59.3216 34.7335 59.7214 35.4591C60.1361 36.1699 60.5507 36.8808 60.9654 37.5916C61.0394 37.7545 61.032 37.91 60.9432 38.0581C60.8691 38.2062 60.7432 38.2802 60.5655 38.2802H58.0998C57.9369 38.2802 57.8036 38.1988 57.7 38.0359L55.5008 34.1707L53.9681 34.5039V37.8137C53.9681 37.947 53.9237 38.0581 53.8348 38.1469C53.746 38.2358 53.6423 38.2802 53.5238 38.2802H51.3247C51.2062 38.2802 51.1025 38.2358 51.0137 38.1469C50.9248 38.0581 50.8804 37.947 50.8804 37.8137V23.1972C50.8804 23.0787 50.9248 22.9751 51.0137 22.8862C51.1025 22.7974 51.2062 22.7529 51.3247 22.7529H55.7008C56.3375 22.7529 56.9447 22.8566 57.5223 23.0639C58.1146 23.2712 58.6478 23.56 59.1216 23.9303C59.6103 24.3005 60.0324 24.7447 60.3878 25.2631C60.7432 25.7666 61.0024 26.3293 61.1653 26.9513C61.3282 27.5733 61.38 28.1953 61.3208 28.8172C61.2764 29.4244 61.1357 30.0094 60.8987 30.5721C60.6766 31.1349 60.3582 31.6532 59.9436 32.1271C59.5289 32.601 59.0476 32.9934 58.4997 33.3044ZM56.1894 30.7276C56.6485 30.6239 57.0262 30.4388 57.3223 30.1723C57.6185 29.9057 57.8259 29.5947 57.9443 29.2393C58.0628 28.8839 58.0998 28.5211 58.0554 28.1508C58.0258 27.7658 57.9147 27.4178 57.7222 27.1068C57.5297 26.7958 57.2631 26.5366 56.9225 26.3293C56.5819 26.122 56.1746 26.0183 55.7008 26.0183H53.9681V31.1941C54.3531 31.12 54.7234 31.046 55.0788 30.972C55.449 30.8831 55.8192 30.8017 56.1894 30.7276Z" fill="#D11F1F"/>
<path d="M40.1962 38.2802C40.0778 38.2802 39.9741 38.2358 39.8852 38.1469C39.7964 38.0581 39.752 37.947 39.752 37.8137V23.1972C39.752 23.0787 39.7964 22.9751 39.8852 22.8862C39.9741 22.7974 40.0778 22.7529 40.1962 22.7529H48.8817C49.0002 22.7529 49.1039 22.7974 49.1927 22.8862C49.2816 22.9751 49.326 23.0787 49.326 23.1972V25.5741C49.326 25.6925 49.2816 25.7962 49.1927 25.885C49.1039 25.9739 49.0002 26.0183 48.8817 26.0183H43.4838V30.7276H47.1047C47.2231 30.7276 47.3268 30.772 47.4156 30.8609C47.5045 30.9497 47.5489 31.0534 47.5489 31.1719V33.5487C47.5489 33.6672 47.5045 33.7709 47.4156 33.8597C47.3268 33.9486 47.2231 33.993 47.1047 33.993H43.4838V35.0148H49.5481C49.6666 35.0148 49.7703 35.0593 49.8591 35.1481C49.948 35.237 49.9924 35.3406 49.9924 35.4591V37.8137C49.9924 37.947 49.948 38.0581 49.8591 38.1469C49.7703 38.2358 49.6666 38.2802 49.5481 38.2802H40.1962Z" fill="#D11F1F"/>
<path d="M30.6738 38.2802C30.4517 38.2802 30.311 38.1766 30.2518 37.9692C29.4669 35.5109 28.6894 33.0748 27.9193 30.661C27.1493 28.2323 26.3718 25.7888 25.5869 23.3305C25.5425 23.1824 25.5647 23.0491 25.6536 22.9306C25.7424 22.8122 25.8609 22.7529 26.009 22.7529H28.9189C29.1411 22.7529 29.2818 22.8566 29.341 23.0639L32.2066 32.0604C32.6953 30.5499 33.1766 29.0542 33.6504 27.5733C34.1391 26.0776 34.6204 24.5744 35.0943 23.0639C35.1536 22.8566 35.2943 22.7529 35.5164 22.7529H38.4264C38.5745 22.7529 38.6929 22.8122 38.7818 22.9306C38.8706 23.0491 38.8929 23.1824 38.8484 23.3305C38.0635 25.7888 37.2861 28.2323 36.516 30.661C35.7459 33.0748 34.9685 35.5109 34.1836 37.9692C34.1243 38.1766 33.9836 38.2802 33.7615 38.2802H30.6738Z" fill="#D11F1F"/>
<path d="M27.9152 37.6805C27.9596 37.8286 27.9374 37.9692 27.8486 38.1025C27.7597 38.221 27.6412 38.2802 27.4931 38.2802H24.9164C24.709 38.2802 24.5609 38.1766 24.4721 37.9692C24.3092 37.4509 24.1463 36.94 23.9834 36.4365C23.8353 35.933 23.6798 35.4295 23.5169 34.926H19.052C18.8891 35.4295 18.7262 35.933 18.5633 36.4365C18.4152 36.94 18.2597 37.4509 18.0968 37.9692C18.0079 38.1766 17.8598 38.2802 17.6525 38.2802H15.0757C14.9277 38.2802 14.8092 38.221 14.7203 38.1025C14.6315 37.9692 14.6093 37.8286 14.6537 37.6805C15.4386 35.237 16.216 32.8009 16.9861 30.3722C17.7562 27.9435 18.5337 25.5074 19.3185 23.0639C19.3778 22.8566 19.5185 22.7529 19.7406 22.7529H22.8283C23.0504 22.7529 23.1911 22.8566 23.2503 23.0639C24.0352 25.5074 24.8127 27.9435 25.5828 30.3722C26.3528 32.8009 27.1303 35.237 27.9152 37.6805ZM22.4729 31.6828L21.2733 27.9287L20.096 31.6828H22.4729Z" fill="#D11F1F"/>
<path d="M13.9724 36.3033C13.143 37.0882 12.2397 37.6657 11.2623 38.036C10.2849 38.3914 9.3001 38.5543 8.30789 38.5247C7.33049 38.495 6.38271 38.2951 5.46455 37.9249C4.54639 37.5547 3.72448 37.0364 2.99884 36.37C2.2732 35.6887 1.68083 34.8816 1.22175 33.9487C0.762672 33.0157 0.510918 31.9791 0.466491 30.8388C0.422063 29.6985 0.584963 28.647 0.95519 27.6844C1.34023 26.707 1.86595 25.8555 2.53236 25.1299C3.19876 24.4042 3.97624 23.8193 4.86478 23.375C5.76813 22.9307 6.70851 22.6568 7.68591 22.5531C8.66331 22.4494 9.65551 22.5383 10.6625 22.8197C11.6695 23.0862 12.6173 23.5823 13.5059 24.308C13.6095 24.382 13.6614 24.4857 13.6614 24.619C13.6762 24.7374 13.6392 24.8485 13.5503 24.9522C13.2541 25.2632 12.9653 25.5741 12.684 25.8851C12.4174 26.1961 12.136 26.5071 11.8399 26.8181C11.6621 27.0106 11.4622 27.0254 11.2401 26.8625C10.47 26.2702 9.6407 25.9592 8.75216 25.9296C7.87843 25.8851 7.07133 26.0554 6.33088 26.4405C5.60524 26.8255 5.00547 27.3883 4.53158 28.1287C4.05769 28.8692 3.84296 29.7281 3.88738 30.7055C3.93181 31.6681 4.21318 32.5048 4.7315 33.2156C5.26463 33.9116 5.91623 34.4226 6.6863 34.7484C7.45637 35.0593 8.27087 35.163 9.12979 35.0593C10.0035 34.9557 10.8032 34.5781 11.5289 33.9265C11.7362 33.7636 11.9361 33.771 12.1286 33.9487C12.4248 34.23 12.7284 34.5114 13.0394 34.7928C13.3504 35.0742 13.6614 35.3629 13.9724 35.6591C14.0612 35.748 14.1056 35.859 14.1056 35.9923C14.1056 36.1108 14.0612 36.2145 13.9724 36.3033Z" fill="#D11F1F"/>
</svg>
