<svg width="93" height="35" viewBox="0 0 93 35" fill="none" xmlns="http://www.w3.org/2000/svg">
<path d="M8.13916 6.83466C8.19453 7.37727 8.15023 7.89774 8.00628 8.39605C7.86232 8.89437 7.64084 9.34839 7.34185 9.75811C7.04286 10.1678 6.67743 10.5167 6.24556 10.8046C5.81369 11.0925 5.33198 11.2918 4.80044 11.4026C4.44608 11.4801 4.08619 11.5576 3.72076 11.6351C3.3664 11.7015 3.00651 11.7735 2.64107 11.851V14.326C2.64107 14.4257 2.60785 14.5087 2.54141 14.5752C2.47497 14.6416 2.39745 14.6748 2.30886 14.6748H0.664421C0.575832 14.6748 0.498316 14.6416 0.431874 14.5752C0.365432 14.5087 0.332211 14.4257 0.332211 14.326V3.39628C0.332211 3.30769 0.365432 3.23018 0.431874 3.16373C0.498316 3.09729 0.575832 3.06407 0.664421 3.06407H3.9367C4.47931 3.06407 4.9887 3.16373 5.46486 3.36306C5.95211 3.55131 6.38398 3.81708 6.76049 4.16037C7.13699 4.49258 7.44705 4.89123 7.69068 5.35632C7.9343 5.81035 8.08379 6.30312 8.13916 6.83466ZM2.64107 9.37607C2.92899 9.3207 3.20583 9.26534 3.4716 9.20997C3.74844 9.14353 4.02529 9.08262 4.30213 9.02725C4.64541 8.94974 4.92779 8.81131 5.14926 8.61199C5.37074 8.41266 5.52577 8.18011 5.61436 7.91435C5.70295 7.64858 5.73063 7.37727 5.69741 7.10043C5.67526 6.81251 5.59221 6.55228 5.44825 6.31974C5.3043 6.08719 5.10497 5.8934 4.85027 5.73837C4.59558 5.58333 4.29105 5.50582 3.9367 5.50582H2.64107V9.37607Z" fill="white"/>
<path d="M32.3167 14.6748C32.2281 14.6748 32.1506 14.6416 32.0841 14.5752C32.0177 14.4977 31.9845 14.4146 31.9845 14.326V10.3561L29.1939 14.0935C29.1275 14.1821 29.0389 14.2263 28.9281 14.2263C28.8174 14.2263 28.7288 14.1821 28.6624 14.0935L25.8718 10.3561V14.326C25.8718 14.4146 25.8386 14.4977 25.7721 14.5752C25.7057 14.6416 25.6226 14.6748 25.523 14.6748H23.4134C23.3249 14.6748 23.2473 14.6416 23.1809 14.5752C23.1145 14.4977 23.0812 14.4146 23.0812 14.326V3.39628C23.0812 3.24125 23.1587 3.14159 23.3138 3.09729C23.4688 3.04192 23.5962 3.07514 23.6958 3.19696C24.5706 4.37077 25.4399 5.53904 26.3037 6.70178C27.1785 7.85344 28.0533 9.01618 28.9281 10.19C29.803 9.01618 30.6722 7.85344 31.536 6.70178C32.4108 5.53904 33.2856 4.37077 34.1605 3.19696C34.2601 3.07514 34.3875 3.04192 34.5425 3.09729C34.6975 3.14159 34.775 3.24125 34.775 3.39628V14.326C34.775 14.4146 34.7418 14.4977 34.6754 14.5752C34.6089 14.6416 34.5259 14.6748 34.4262 14.6748H32.3167ZM38.2656 14.0602C37.579 13.6284 37.0087 13.0968 36.5547 12.4656C36.1118 11.8234 35.8017 11.1368 35.6245 10.4059C35.4473 9.66399 35.4086 8.90544 35.5082 8.13028C35.6079 7.35512 35.8571 6.61872 36.2557 5.92108C36.6544 5.21237 37.1638 4.62546 37.7839 4.16037C38.4151 3.6842 39.0906 3.34645 39.8104 3.14712C40.5302 2.9478 41.2776 2.9035 42.0528 3.01424C42.828 3.1139 43.5644 3.37967 44.262 3.81155C44.9486 4.24342 45.5133 4.78049 45.9563 5.42277C46.3992 6.05397 46.7093 6.74054 46.8865 7.48247C47.0636 8.21334 47.1024 8.96635 47.0027 9.7415C46.9141 10.5167 46.6705 11.2531 46.2719 11.9507C45.8732 12.6594 45.3583 13.2519 44.7271 13.728C44.107 14.1931 43.437 14.5253 42.7172 14.7247C41.9974 14.924 41.25 14.9683 40.4748 14.8575C39.6996 14.7579 38.9632 14.4921 38.2656 14.0602ZM38.332 7.31637C38.1216 7.72609 37.9943 8.15243 37.95 8.59538C37.9057 9.03833 37.9389 9.4702 38.0497 9.891C38.1715 10.3007 38.3653 10.6883 38.631 11.0537C38.9079 11.4081 39.2456 11.7015 39.6443 11.9341C40.054 12.1666 40.4803 12.3051 40.9233 12.3494C41.3662 12.3937 41.7926 12.3549 42.2023 12.2331C42.6231 12.1002 43.0051 11.8953 43.3484 11.6185C43.6917 11.3306 43.9741 10.9762 44.1956 10.5554C44.406 10.1457 44.5278 9.71936 44.561 9.27641C44.6053 8.83346 44.5665 8.40159 44.4447 7.98079C44.334 7.55999 44.1457 7.17241 43.88 6.81805C43.6142 6.46369 43.2764 6.17024 42.8667 5.93769C42.457 5.70515 42.0306 5.56672 41.5877 5.52243C41.1448 5.47813 40.7184 5.52243 40.3087 5.65531C39.899 5.77712 39.5169 5.98199 39.1626 6.2699C38.8193 6.55782 38.5424 6.90664 38.332 7.31637ZM48.0697 14.6748C47.9811 14.6748 47.9036 14.6416 47.8372 14.5752C47.7707 14.5087 47.7375 14.4257 47.7375 14.326V3.39628C47.7375 3.30769 47.7707 3.23018 47.8372 3.16373C47.9036 3.09729 47.9811 3.06407 48.0697 3.06407H51.4416C52.2389 3.06407 52.992 3.2191 53.7007 3.52917C54.4094 3.82816 55.024 4.23788 55.5444 4.75835C56.076 5.27881 56.4912 5.8934 56.7902 6.60211C57.1003 7.31083 57.2553 8.06384 57.2553 8.86115C57.2553 9.65845 57.1003 10.4115 56.7902 11.1202C56.4912 11.8289 56.076 12.449 55.5444 12.9806C55.024 13.501 54.4094 13.9163 53.7007 14.2263C52.992 14.5253 52.2389 14.6748 51.4416 14.6748H48.0697ZM53.219 6.03736C52.9864 5.8934 52.7539 5.7882 52.5213 5.72176C52.2998 5.65531 52.0728 5.61102 51.8403 5.58887C51.6188 5.55565 51.3918 5.53904 51.1593 5.53904C50.9267 5.53904 50.6886 5.53904 50.445 5.53904V12.1999H51.4416C51.951 12.1999 52.4217 12.0947 52.8535 11.8843C53.2965 11.6739 53.6674 11.3915 53.9664 11.0371C54.2765 10.6828 54.498 10.273 54.6309 9.80795C54.7748 9.34285 54.808 8.86115 54.7305 8.36283C54.6641 7.87559 54.498 7.43264 54.2322 7.03399C53.9664 6.62426 53.6287 6.29205 53.219 6.03736ZM60.4724 14.0602C59.7859 13.6284 59.2156 13.0968 58.7616 12.4656C58.3186 11.8234 58.0085 11.1368 57.8314 10.4059C57.6542 9.66399 57.6154 8.90544 57.7151 8.13028C57.8148 7.35512 58.0639 6.61872 58.4626 5.92108C58.8612 5.21237 59.3706 4.62546 59.9907 4.16037C60.6219 3.6842 61.2974 3.34645 62.0172 3.14712C62.737 2.9478 63.4845 2.9035 64.2596 3.01424C65.0348 3.1139 65.7712 3.37967 66.4688 3.81155C67.1554 4.24342 67.7202 4.78049 68.1631 5.42277C68.6061 6.05397 68.9161 6.74054 69.0933 7.48247C69.2705 8.21334 69.3092 8.96635 69.2096 9.7415C69.121 10.5167 68.8774 11.2531 68.4787 11.9507C68.0801 12.6594 67.5651 13.2519 66.9339 13.728C66.3138 14.1931 65.6439 14.5253 64.9241 14.7247C64.2043 14.924 63.4568 14.9683 62.6816 14.8575C61.9065 14.7579 61.1701 14.4921 60.4724 14.0602ZM60.5389 7.31637C60.3285 7.72609 60.2011 8.15243 60.1568 8.59538C60.1125 9.03833 60.1458 9.4702 60.2565 9.891C60.3783 10.3007 60.5721 10.6883 60.8379 11.0537C61.1147 11.4081 61.4525 11.7015 61.8511 11.9341C62.2608 12.1666 62.6872 12.3051 63.1301 12.3494C63.5731 12.3937 63.9994 12.3549 64.4091 12.2331C64.8299 12.1002 65.212 11.8953 65.5553 11.6185C65.8985 11.3306 66.1809 10.9762 66.4024 10.5554C66.6128 10.1457 66.7346 9.71936 66.7678 9.27641C66.8121 8.83346 66.7734 8.40159 66.6516 7.98079C66.5408 7.55999 66.3526 7.17241 66.0868 6.81805C65.821 6.46369 65.4833 6.17024 65.0736 5.93769C64.6638 5.70515 64.2375 5.56672 63.7945 5.52243C63.3516 5.47813 62.9253 5.52243 62.5155 5.65531C62.1058 5.77712 61.7238 5.98199 61.3694 6.2699C61.0261 6.55782 60.7493 6.90664 60.5389 7.31637ZM75.6417 10.9541C75.9518 11.4856 76.2563 12.0227 76.5553 12.5653C76.8654 13.0968 77.1755 13.6284 77.4855 14.1599C77.5409 14.2817 77.5353 14.398 77.4689 14.5087C77.4135 14.6195 77.3194 14.6748 77.1865 14.6748H75.3428C75.2209 14.6748 75.1213 14.6139 75.0438 14.4921L73.3993 11.6019L72.2532 11.851V14.326C72.2532 14.4257 72.22 14.5087 72.1535 14.5752C72.0871 14.6416 72.0096 14.6748 71.921 14.6748H70.2765C70.188 14.6748 70.1104 14.6416 70.044 14.5752C69.9776 14.5087 69.9443 14.4257 69.9443 14.326V3.39628C69.9443 3.30769 69.9776 3.23018 70.044 3.16373C70.1104 3.09729 70.188 3.06407 70.2765 3.06407H73.5488C74.025 3.06407 74.479 3.14159 74.9109 3.29662C75.3538 3.45165 75.7525 3.66759 76.1068 3.94443C76.4723 4.22127 76.7879 4.55348 77.0536 4.94106C77.3194 5.31757 77.5132 5.73837 77.635 6.20346C77.7568 6.66856 77.7956 7.13365 77.7513 7.59875C77.7181 8.05277 77.6129 8.49018 77.4357 8.91098C77.2696 9.33178 77.0315 9.71936 76.7214 10.0737C76.4114 10.4281 76.0515 10.7215 75.6417 10.9541ZM73.9143 9.02725C74.2575 8.94974 74.5399 8.81131 74.7614 8.61199C74.9829 8.41266 75.1379 8.18011 75.2265 7.91435C75.3151 7.64858 75.3428 7.37727 75.3095 7.10043C75.2874 6.81251 75.2043 6.55228 75.0604 6.31974C74.9164 6.08719 74.7171 5.8934 74.4624 5.73837C74.2077 5.58333 73.9032 5.50582 73.5488 5.50582H72.2532V9.37607C72.5411 9.3207 72.818 9.26534 73.0837 9.20997C73.3606 9.14353 73.6374 9.08262 73.9143 9.02725ZM80.7814 14.0602C80.0948 13.6284 79.5245 13.0968 79.0705 12.4656C78.6276 11.8234 78.3175 11.1368 78.1403 10.4059C77.9632 9.66399 77.9244 8.90544 78.0241 8.13028C78.1237 7.35512 78.3729 6.61872 78.7715 5.92108C79.1702 5.21237 79.6796 4.62546 80.2997 4.16037C80.9309 3.6842 81.6064 3.34645 82.3262 3.14712C83.046 2.9478 83.7935 2.9035 84.5686 3.01424C85.3438 3.1139 86.0802 3.37967 86.7778 3.81155C87.4644 4.24342 88.0291 4.78049 88.4721 5.42277C88.915 6.05397 89.2251 6.74054 89.4023 7.48247C89.5795 8.21334 89.6182 8.96635 89.5185 9.7415C89.43 10.5167 89.1863 11.2531 88.7877 11.9507C88.389 12.6594 87.8741 13.2519 87.2429 13.728C86.6228 14.1931 85.9528 14.5253 85.233 14.7247C84.5132 14.924 83.7658 14.9683 82.9906 14.8575C82.2155 14.7579 81.4791 14.4921 80.7814 14.0602ZM80.8479 7.31637C80.6375 7.72609 80.5101 8.15243 80.4658 8.59538C80.4215 9.03833 80.4547 9.4702 80.5655 9.891C80.6873 10.3007 80.8811 10.6883 81.1468 11.0537C81.4237 11.4081 81.7614 11.7015 82.1601 11.9341C82.5698 12.1666 82.9961 12.3051 83.4391 12.3494C83.882 12.3937 84.3084 12.3549 84.7181 12.2331C85.1389 12.1002 85.5209 11.8953 85.8642 11.6185C86.2075 11.3306 86.4899 10.9762 86.7114 10.5554C86.9218 10.1457 87.0436 9.71936 87.0768 9.27641C87.1211 8.83346 87.0823 8.40159 86.9605 7.98079C86.8498 7.55999 86.6615 7.17241 86.3958 6.81805C86.13 6.46369 85.7923 6.17024 85.3825 5.93769C84.9728 5.70515 84.5465 5.56672 84.1035 5.52243C83.6606 5.47813 83.2342 5.52243 82.8245 5.65531C82.4148 5.77712 82.0327 5.98199 81.6784 6.2699C81.3351 6.55782 81.0583 6.90664 80.8479 7.31637Z" fill="white"/>
<g clip-path="url(#clip0_3_179)">
<path d="M15.0681 0.0388184L14.035 0.883027L14.4544 1.39677L14.4571 1.40233C14.4599 1.40788 14.4682 1.41621 14.4766 1.42732C14.496 1.45231 14.5238 1.49119 14.5599 1.54395C14.6321 1.6467 14.7265 1.79944 14.8237 1.9855C14.8681 2.06881 14.9098 2.15767 14.9487 2.25209C12.6354 2.44648 10.9609 3.5545 10.9609 3.5545L12.5299 3.99882L12.0856 5.33178L15.6401 3.99882L19.1947 5.33178L18.7504 3.99882L20.3194 3.5545C20.3194 3.5545 18.6643 2.45759 16.3649 2.25487C16.265 1.91607 16.1344 1.61893 16.0095 1.37456C15.8845 1.13018 15.7568 0.930236 15.6623 0.791386C15.6151 0.721961 15.5735 0.666421 15.5429 0.624766C15.5291 0.605327 15.5152 0.588665 15.5068 0.577557L15.4957 0.563672L15.4929 0.558118L15.4902 0.555341C15.4902 0.555341 15.4902 0.555341 14.9737 0.977445L15.4902 0.555341L15.0681 0.0388184ZM10.7193 4.40982L10.4388 4.32929C9.2558 5.31512 8.53101 6.70918 8.53101 8.44203C8.53101 12.0771 11.7135 14.2182 15.6401 14.2182C19.5668 14.2182 22.7493 12.0771 22.7493 8.44203C22.7493 6.70918 22.0245 5.31512 20.8415 4.32929L20.561 4.40704L19.8889 4.60143L20.0389 5.05131L20.6276 6.81748L18.8837 6.16489L15.6401 4.94856L12.3966 6.16489L10.6526 6.81748L11.2414 5.05131L11.3913 4.60143L10.7165 4.40982H10.7193Z" fill="#D11F1F"/>
</g>
<path d="M7.61657 18.1127C4.78429 18.3575 2.12342 20.194 0.80931 22.8141C0.670553 23.0916 0.556282 23.3365 0.556282 23.361C0.556282 23.3773 0.629742 23.4099 0.719526 23.4344C0.825634 23.4589 0.88277 23.5487 0.88277 23.6793C0.88277 23.8997 0.784823 24.0221 0.686877 23.9242C0.654228 23.8915 0.580769 23.8589 0.515471 23.8507C0.229795 23.8099 -0.0558819 25.5076 0.00941557 26.8217C0.0747131 27.9726 0.0991996 28.095 0.254281 28.1277C0.401201 28.1603 0.450174 28.3073 0.311416 28.3073C0.180821 28.3073 0.21347 28.7317 0.384876 29.2214C0.931743 30.8212 2.00915 32.2986 3.36407 33.3025C3.86197 33.6698 4.02521 33.7596 4.115 33.6861C4.29456 33.5392 4.67819 33.7106 4.67819 33.9392C4.67819 34.3799 6.92279 35.0002 8.48993 35.0002C9.75507 35.0002 11.2487 34.6982 11.2487 34.4371C11.2487 34.3309 11.2651 34.3309 11.3222 34.4207C11.4283 34.584 12.8485 33.882 12.8322 33.6698C12.8159 33.5637 12.8567 33.5392 12.971 33.5719C13.175 33.6372 13.6321 33.3025 13.575 33.1148C13.5423 33.0087 13.575 32.9923 13.7382 33.025C13.9096 33.0495 13.9586 33.025 13.9994 32.8862C14.0239 32.7965 14.0892 32.7148 14.1545 32.7148C14.2851 32.7148 14.432 32.4618 14.432 32.2496C14.432 32.1027 14.0892 31.7517 13.0526 30.8375C12.7751 30.5927 12.4486 30.307 12.3425 30.2009C12.0568 29.9479 11.918 29.9723 11.412 30.356C10.8406 30.7886 10.1224 31.1314 9.54285 31.2538C8.86539 31.3926 7.48598 31.3028 6.84933 31.0824C5.38013 30.56 4.17213 29.2541 3.78035 27.7604C3.6171 27.1401 3.6171 25.8668 3.78035 25.2464C4.09051 24.0792 5.06181 22.8794 6.17187 22.2836C7.77166 21.4347 9.8775 21.5408 11.1916 22.5447C11.5426 22.8141 11.8936 22.8223 12.1384 22.5611C12.2445 22.4468 12.3017 22.3244 12.2772 22.2754C12.2445 22.2264 12.3262 22.1366 12.4486 22.0713C12.7016 21.9489 13.779 20.7817 13.779 20.643C13.779 20.594 13.8198 20.5532 13.8688 20.5532C13.9178 20.5532 13.9423 20.4389 13.9259 20.292C13.9096 20.0879 13.8117 19.9573 13.4933 19.7206C11.8936 18.4963 9.80404 17.9331 7.61657 18.1127ZM13.2893 20.5205C13.2893 20.5858 13.2485 20.6185 13.2077 20.594C13.1587 20.5613 13.1424 20.5042 13.1669 20.4634C13.2403 20.3491 13.2893 20.3736 13.2893 20.5205ZM12.4731 21.7775C12.4731 21.8183 12.4568 21.8591 12.4404 21.8591C12.4159 21.8591 12.3751 21.8183 12.3506 21.7775C12.3262 21.7285 12.3425 21.6959 12.3833 21.6959C12.4323 21.6959 12.4731 21.7285 12.4731 21.7775ZM4.719 23.2467C4.719 23.2875 4.67819 23.3283 4.62921 23.3283C4.5884 23.3283 4.57208 23.2875 4.59656 23.2467C4.62105 23.1977 4.66186 23.1651 4.68635 23.1651C4.70267 23.1651 4.719 23.1977 4.719 23.2467ZM1.0052 24.3078C1.02969 24.3486 1.01336 24.3894 0.972554 24.3894C0.92358 24.3894 0.88277 24.3486 0.88277 24.3078C0.88277 24.2588 0.899094 24.2262 0.915418 24.2262C0.939905 24.2262 0.980716 24.2588 1.0052 24.3078ZM2.98045 24.773C2.85802 24.8955 2.84169 24.8955 2.79272 24.7649C2.72742 24.5935 2.92332 24.4384 3.03759 24.5526C3.09472 24.6098 3.07024 24.6832 2.98045 24.773ZM1.11947 25.0016C1.11947 25.0424 1.08682 25.0261 1.04601 24.9608C1.0052 24.8955 0.972554 24.7812 0.972554 24.7159C0.972554 24.5853 1.11131 24.8465 1.11947 25.0016ZM2.48256 25.2872C2.54786 25.2872 2.59683 25.3689 2.59683 25.4668C2.59683 25.6301 2.58867 25.6382 2.43359 25.4913C2.3438 25.4097 2.27034 25.2872 2.2785 25.2138C2.2785 25.1322 2.29483 25.1158 2.32748 25.1811C2.3438 25.2383 2.41726 25.2872 2.48256 25.2872ZM3.08656 26.1443C3.08656 26.2096 3.06207 26.2585 3.02942 26.2585C2.87434 26.2341 2.80905 26.2749 2.89883 26.332C2.98045 26.381 2.98045 26.4299 2.88251 26.5605C2.76823 26.7156 2.76823 26.7156 2.76007 26.5361C2.76007 26.4381 2.72742 26.332 2.67845 26.3075C2.51521 26.2096 2.60499 26.0626 2.84169 26.0463C3.0131 26.03 3.08656 26.0626 3.08656 26.1443ZM1.33169 26.4299C1.3072 26.4708 1.25007 26.5116 1.20109 26.5116C1.16028 26.5116 1.12764 26.4708 1.12764 26.4299C1.12764 26.381 1.18477 26.3483 1.25823 26.3483C1.32353 26.3483 1.35618 26.381 1.33169 26.4299ZM1.44596 27.2217C1.4378 27.3604 1.42147 27.3931 1.39699 27.3033C1.38066 27.2298 1.32353 27.1645 1.28272 27.1645C1.24191 27.1645 1.20926 27.1237 1.20926 27.0829C1.20926 27.0339 1.26639 27.0013 1.33169 27.0013C1.41331 27.0013 1.45412 27.0748 1.44596 27.2217ZM0.88277 28.4297C0.88277 28.544 0.833796 28.6337 0.768499 28.6337C0.695039 28.6337 0.670553 28.5684 0.703201 28.4297C0.719526 28.3154 0.768499 28.2256 0.80931 28.2256C0.850121 28.2256 0.88277 28.3154 0.88277 28.4297ZM2.14791 28.5521C2.12342 28.5929 2.05812 28.6337 2.01731 28.6337C1.96834 28.6337 1.96018 28.5929 1.98466 28.5521C2.00915 28.5031 2.07445 28.4705 2.11526 28.4705C2.16423 28.4705 2.1724 28.5031 2.14791 28.5521ZM2.1071 29.7764C2.1071 29.8173 2.06629 29.8581 2.01731 29.8581C1.9765 29.8581 1.96018 29.8173 1.98466 29.7764C2.00915 29.7275 2.04996 29.6948 2.07445 29.6948C2.09077 29.6948 2.1071 29.7275 2.1071 29.7764ZM12.2119 30.2335C12.318 30.307 12.3915 30.4457 12.3915 30.56C12.3915 30.6743 12.4486 30.8212 12.5139 30.8947C12.7098 31.0824 12.5955 31.1232 12.3588 30.9436C12.2445 30.862 12.1466 30.7396 12.1466 30.6661C12.1466 30.5927 12.0895 30.4866 12.0242 30.4294C11.8936 30.3233 11.8527 30.1029 11.967 30.1029C11.9997 30.1029 12.1139 30.1601 12.2119 30.2335ZM11.4283 30.6906C11.3549 30.7641 11.3059 30.7641 11.2324 30.6906C11.159 30.6171 11.1753 30.5927 11.3304 30.5927C11.4855 30.5927 11.5018 30.6171 11.4283 30.6906ZM13.1913 31.4252C13.2158 31.5395 13.1669 31.5721 12.971 31.5721C12.6771 31.5721 12.6853 31.5558 12.8485 31.8905C12.922 32.0374 12.9628 32.168 12.9383 32.1925C12.873 32.2577 12.6363 32.1272 12.6363 32.021C12.6363 31.9639 12.5792 31.8986 12.5139 31.866C12.3343 31.8007 12.367 31.515 12.5792 31.3681C12.8077 31.2048 13.1587 31.2375 13.1913 31.4252ZM13.6158 32.0619C13.6158 32.1027 13.5995 32.1435 13.5831 32.1435C13.5586 32.1435 13.5178 32.1027 13.4933 32.0619C13.4689 32.0129 13.4852 31.9802 13.526 31.9802C13.575 31.9802 13.6158 32.0129 13.6158 32.0619ZM12.6935 32.5189C12.9138 32.8536 12.9546 32.8781 13.0608 32.7638C13.175 32.6495 13.1913 32.6577 13.2322 32.8128C13.2975 33.0413 13.2403 33.1229 13.0118 33.1229C12.8159 33.1229 12.6037 32.9352 12.5955 32.7638C12.5955 32.7148 12.5302 32.5516 12.4486 32.4047C12.2364 32.0129 12.4159 32.0945 12.6935 32.5189ZM5.53522 32.2577C5.53522 32.2822 5.50257 32.323 5.45359 32.3475C5.41278 32.372 5.37197 32.3557 5.37197 32.3149C5.37197 32.2659 5.41278 32.2251 5.45359 32.2251C5.50257 32.2251 5.53522 32.2414 5.53522 32.2577ZM11.8691 32.4536C11.6895 32.4945 11.6242 32.4292 11.6977 32.3067C11.7385 32.2414 11.7875 32.2496 11.8772 32.323C11.9997 32.421 11.9915 32.4292 11.8691 32.4536ZM10.3264 32.4863C10.3019 32.5516 10.2774 32.5271 10.2774 32.4373C10.2693 32.3475 10.2938 32.2986 10.3183 32.3312C10.3427 32.3557 10.3509 32.4292 10.3264 32.4863ZM10.5958 32.6006C10.5958 32.6659 10.555 32.6985 10.5142 32.674C10.4652 32.6414 10.4489 32.5842 10.4733 32.5434C10.5468 32.4292 10.5958 32.4536 10.5958 32.6006ZM5.20873 32.7556C5.35565 32.927 5.24954 33.1393 5.02916 33.1066C4.81694 33.0821 4.72716 32.8128 4.89857 32.7067C5.04549 32.6087 5.09446 32.6169 5.20873 32.7556ZM13.7545 32.6822C13.7301 32.7067 13.6566 32.7148 13.5995 32.6903C13.5342 32.6659 13.5586 32.6414 13.6484 32.6414C13.7382 32.6332 13.7872 32.6577 13.7545 32.6822ZM11.5507 33.3025C11.5263 33.3596 11.5099 33.3188 11.5099 33.2046C11.5099 33.0903 11.5263 33.0495 11.5507 33.0985C11.5671 33.1556 11.5671 33.2535 11.5507 33.3025ZM5.23322 33.8167C5.29035 33.9473 5.16792 34.0534 5.04549 33.98C4.92305 33.9065 4.94754 33.6943 5.07813 33.6943C5.14343 33.6943 5.20873 33.7514 5.23322 33.8167Z" fill="#D11F1F"/>
<path d="M19.9983 18.4879C19.9575 18.5695 19.7861 19.0511 19.6229 19.5571C19.3943 20.2672 19.3372 20.5529 19.378 20.7978C19.427 21.0916 19.4106 21.1243 19.2637 21.1243C19.1331 21.1243 19.076 21.1896 19.0352 21.4263C19.0025 21.5977 18.9046 21.916 18.823 22.1445C18.5944 22.7241 18.0312 24.5524 18.0802 24.5524C18.1047 24.5524 18.0884 24.6014 18.0394 24.6503C17.9415 24.7728 17.4517 26.2909 17.4517 26.4787C17.4517 26.544 17.5089 26.6582 17.5742 26.7235C17.6395 26.797 17.6966 26.8868 17.6966 26.9276C17.6966 27.05 17.5578 27.0092 17.5007 26.8786C17.4027 26.6093 17.2966 26.797 17.0518 27.6703C16.9049 28.1764 16.7579 28.6498 16.7253 28.7151C16.6845 28.7886 16.562 29.1559 16.4478 29.5313C16.3253 29.915 16.105 30.6251 15.9417 31.1148C15.7785 31.6045 15.6724 32.0616 15.6887 32.1187C15.7132 32.184 15.705 32.2167 15.6642 32.1922C15.6316 32.1677 15.452 32.633 15.2643 33.2206C14.9214 34.3062 14.9133 34.5021 15.199 34.6898C15.2479 34.7225 15.9744 34.7551 16.8069 34.7551C17.917 34.7551 18.3577 34.7306 18.4638 34.649C18.5536 34.5837 18.8066 33.9144 19.125 32.9186L19.631 31.2862L22.0062 31.2617L24.3814 31.2454L24.6916 32.2412C24.912 32.9676 25.0099 33.1798 25.0262 33.0166C25.0507 32.7962 25.0589 32.788 25.2058 32.9186C25.3854 33.0819 25.6955 33.0166 25.6955 32.8125C25.6955 32.7227 25.72 32.7064 25.7772 32.7636C25.8343 32.8207 25.8098 32.9513 25.7037 33.1717C25.4751 33.6369 25.6221 33.8083 25.8751 33.3676C25.973 33.1961 26.071 33.1309 26.2016 33.1472C26.3403 33.1553 26.3812 33.1227 26.3648 33.0247C26.3567 32.9431 26.5199 32.7799 26.8382 32.5677C27.3116 32.2493 27.328 32.2412 27.328 32.4289C27.328 32.535 27.279 32.633 27.23 32.6574C27.1566 32.6819 27.1729 32.7391 27.2872 32.837C27.4504 32.9676 27.4504 32.9676 27.2545 32.9268C27.0341 32.8778 26.6097 33.1553 26.7566 33.2451C26.8056 33.2778 26.9199 33.237 27.0096 33.1553C27.3851 32.8207 27.2545 33.3512 26.8464 33.792C26.7321 33.9226 26.5607 34.0205 26.4546 34.0205C26.3159 34.0205 26.2669 34.0695 26.2669 34.2001C26.2669 34.298 26.1853 34.4613 26.0873 34.5674L25.9159 34.7551H26.8137H27.7116L27.8422 34.4286C27.9565 34.1266 28.2258 33.9634 28.2258 34.1919C28.2258 34.2491 28.3156 34.2654 28.4707 34.2409C28.6013 34.2083 28.7237 34.2164 28.7482 34.2491C28.7972 34.3307 28.6339 34.5429 28.4299 34.6572C28.2829 34.7388 28.2911 34.747 28.5196 34.7551C28.8788 34.7551 29.0747 34.5103 29.0175 34.1348C28.9522 33.7675 28.9196 33.7267 28.7482 33.8573C28.6666 33.9307 28.6013 33.9389 28.5686 33.8899C28.536 33.841 28.4462 33.7838 28.3727 33.7512C28.2911 33.7267 28.2258 33.6206 28.2258 33.5308C28.2258 33.3757 28.2585 33.3594 28.4707 33.4084C28.6258 33.441 28.7155 33.4329 28.7155 33.3757C28.7155 33.3267 28.7155 33.2614 28.7155 33.2206C28.7155 33.188 28.6666 33.1635 28.6176 33.1635C28.5441 33.1635 28.5115 33.0247 28.5033 32.7554C28.5033 32.3881 28.1034 31.0413 27.0096 27.7356C26.879 27.352 26.1771 25.1482 25.4507 22.8383C24.7161 20.5284 24.0631 18.5695 23.9978 18.4879C23.8835 18.3655 23.6795 18.3491 21.9736 18.3491C20.2432 18.3491 20.0636 18.3655 19.9983 18.4879ZM22.5857 25.6951C22.9041 26.6746 23.1897 27.5398 23.2142 27.6132C23.255 27.7193 23.1081 27.7356 22.0225 27.7356C20.8798 27.7356 20.7819 27.7275 20.8145 27.5887C20.9207 27.2051 21.9736 23.8994 21.9899 23.8994C21.9981 23.8994 22.2674 24.7075 22.5857 25.6951ZM17.9415 26.6419C17.9415 26.7072 17.9006 26.7399 17.8598 26.7154C17.8109 26.6827 17.7945 26.6256 17.819 26.5848C17.8925 26.4705 17.9415 26.495 17.9415 26.6419ZM26.675 27.3765C26.675 27.3928 26.6015 27.4092 26.5036 27.4092C26.4138 27.4092 26.3567 27.3765 26.3893 27.3275C26.4301 27.2622 26.675 27.3031 26.675 27.3765ZM26.1689 28.0132C26.2587 28.0458 26.3567 28.1193 26.3812 28.1927C26.4138 28.2825 26.3975 28.2907 26.2669 28.2254C26.1853 28.1846 26.0547 28.1682 25.973 28.2009C25.8751 28.2335 25.8506 28.2254 25.8914 28.1519C25.9322 28.0948 25.8833 27.9968 25.7853 27.9071C25.6874 27.8254 25.6139 27.703 25.6139 27.6459C25.6221 27.5724 25.6955 27.6132 25.8098 27.7438C25.9159 27.8662 26.071 27.9887 26.1689 28.0132ZM26.8464 28.0948C26.9688 28.2254 26.928 28.2907 26.7566 28.2499C26.626 28.2172 26.6015 28.1519 26.626 27.9887C26.675 27.6867 26.6913 27.6703 26.7321 27.8581C26.7566 27.9479 26.8056 28.054 26.8464 28.0948ZM26.324 32.0779C26.2995 32.1432 26.275 32.1187 26.275 32.029C26.2669 31.9392 26.2914 31.8902 26.3159 31.9228C26.3403 31.9473 26.3485 32.0208 26.324 32.0779ZM26.2506 32.4289C26.2261 32.4534 26.1771 32.4126 26.1526 32.331C26.1036 32.2167 26.1118 32.2085 26.1934 32.282C26.2506 32.3391 26.275 32.4044 26.2506 32.4289Z" fill="#D11F1F"/>
<path d="M26.6265 18.5532C26.4959 18.7572 26.5204 18.8389 27.3611 21.4753C28.6425 25.4502 29.32 27.5724 30.4219 31.0577C30.9688 32.7717 31.4503 34.2736 31.4993 34.4042L31.5809 34.6327L31.736 34.4368C31.8584 34.2654 31.8993 34.2491 31.9972 34.3552C32.0625 34.4205 32.136 34.5347 32.1686 34.6082C32.2176 34.7388 32.3727 34.7551 33.8419 34.7551C35.0499 34.7551 35.4906 34.7306 35.5559 34.649C35.6539 34.5347 36.013 33.49 36.7558 31.123C37.0496 30.1761 37.5475 28.6172 37.8577 27.654C39.1554 23.5811 39.0983 23.7933 38.9351 23.6219C38.7718 23.4587 38.8698 23.3526 39.0493 23.4995C39.1718 23.5974 39.1799 23.5893 39.1228 23.4179C39.082 23.2873 39.0901 23.2464 39.1554 23.2791C39.2207 23.3199 39.2207 23.2791 39.1636 23.1322C39.1065 22.9608 39.1146 22.92 39.2452 22.8791C39.4166 22.822 39.5391 22.4955 39.4493 22.3486C39.4248 22.3078 39.4493 22.2098 39.5146 22.1446C39.6697 21.9895 40.6328 19.1001 40.6328 18.7817C40.6328 18.6511 40.592 18.5042 40.5348 18.4471C40.3961 18.3083 36.8455 18.3083 36.7394 18.4471C36.6905 18.5042 35.9885 20.6427 35.1641 23.2056C34.3479 25.7604 33.6541 27.8989 33.6215 27.956C33.597 28.005 33.0256 26.3318 32.3563 24.2422C31.687 22.1446 30.9933 19.9734 30.8055 19.4102L30.4709 18.3899L28.6181 18.3655L26.7652 18.3491L26.6265 18.5532ZM37.2863 25.5319C37.2863 25.5727 37.27 25.6135 37.2536 25.6135C37.2292 25.6135 37.1884 25.5727 37.1639 25.5319C37.1394 25.4829 37.1557 25.4502 37.1965 25.4502C37.2455 25.4502 37.2863 25.4829 37.2863 25.5319ZM37.5312 25.9236C37.5312 26.0461 37.4822 26.0706 37.27 26.0379C37.0333 26.0053 37.0251 25.9889 37.1639 25.891C37.3761 25.7359 37.5312 25.7522 37.5312 25.9236ZM29.4098 26.4297C29.4343 26.4705 29.418 26.5113 29.3771 26.5113C29.3282 26.5113 29.2874 26.4705 29.2874 26.4297C29.2874 26.3807 29.3037 26.3481 29.32 26.3481C29.3445 26.3481 29.3853 26.3807 29.4098 26.4297ZM29.8995 26.5113C29.924 26.5521 29.8914 26.5929 29.8179 26.5929C29.7444 26.5929 29.7118 26.5521 29.7363 26.5113C29.7608 26.4623 29.8016 26.4297 29.8179 26.4297C29.8342 26.4297 29.875 26.4623 29.8995 26.5113ZM35.1968 29.6538C35.1396 29.7844 35.0009 29.8252 35.0009 29.7027C35.0009 29.6374 35.058 29.5966 35.2213 29.5395C35.2294 29.5313 35.2213 29.5885 35.1968 29.6538ZM34.805 30.2251C34.8621 30.47 34.854 30.4863 34.6336 30.5271C34.5112 30.5434 34.4622 30.5026 34.4459 30.3557C34.4214 30.1843 34.5356 30.0292 34.6907 30.0211C34.7234 30.0211 34.7723 30.1108 34.805 30.2251ZM34.0867 31.0903C34.3234 31.1719 34.3316 31.1801 34.2173 31.3923C34.1602 31.5147 34.0296 31.6698 33.9316 31.7433C33.7357 31.8902 33.7684 32.1432 33.9806 32.1432C34.0541 32.1432 34.0867 32.1024 34.0622 32.0616C34.0051 31.9718 34.1275 31.9473 34.2092 32.0371C34.2826 32.1024 34.1112 32.3065 33.9888 32.3065C33.9398 32.3065 33.7929 32.2167 33.6623 32.1187C33.4664 31.9637 33.4337 31.8902 33.4827 31.7106C33.5154 31.5637 33.5888 31.4903 33.6949 31.4903C33.8745 31.4903 33.9072 31.4086 33.7684 31.2699C33.7194 31.2209 33.7031 31.1393 33.7276 31.0903C33.801 30.9842 33.7766 30.9842 34.0867 31.0903ZM34.8213 31.3188C34.8458 31.4494 34.8132 31.4984 34.7397 31.4739C34.6826 31.4494 34.6173 31.3515 34.6091 31.2535C34.5846 31.123 34.6173 31.074 34.6907 31.0985C34.7479 31.123 34.8132 31.2209 34.8213 31.3188ZM31.9809 31.278C31.9809 31.3025 31.9482 31.3433 31.8993 31.3678C31.8584 31.3923 31.8176 31.376 31.8176 31.3352C31.8176 31.2862 31.8584 31.2454 31.8993 31.2454C31.9482 31.2454 31.9809 31.2617 31.9809 31.278ZM36.3068 31.8167C36.3068 31.8576 36.2497 31.8739 36.1844 31.8494C36.1191 31.8167 36.062 31.7841 36.062 31.7678C36.062 31.7514 36.1191 31.7351 36.1844 31.7351C36.2497 31.7351 36.3068 31.7678 36.3068 31.8167ZM32.3645 31.8657C32.34 31.8902 32.2666 31.8984 32.2094 31.8739C32.1441 31.8494 32.1686 31.8249 32.2584 31.8249C32.3482 31.8167 32.3971 31.8412 32.3645 31.8657ZM33.1644 32.3881C33.1317 32.4371 33.2215 32.5105 33.3603 32.5595C33.6786 32.6738 33.6868 32.7962 33.3766 32.7962C33.2134 32.7962 33.0991 32.8615 33.0093 33.0003C32.8542 33.2451 32.895 33.3676 33.1481 33.3757C33.3113 33.3839 33.3113 33.392 33.1236 33.441C33.0093 33.4737 32.9195 33.539 32.9195 33.5879C32.9195 33.6369 32.8869 33.7104 32.8461 33.7512C32.7971 33.792 32.7971 33.7675 32.8379 33.7022C32.8869 33.6124 32.8706 33.5961 32.7644 33.6369C32.6828 33.6696 32.5849 33.694 32.5359 33.694C32.4869 33.694 32.4951 33.743 32.5522 33.8246C32.6175 33.8899 32.6257 33.9389 32.5849 33.9307C32.5441 33.9226 32.4053 33.9552 32.2747 34.0124C32.1115 34.0777 32.0135 34.0858 31.9482 34.0205C31.8911 33.9634 31.9482 33.9063 32.1278 33.841C32.3727 33.743 32.4788 33.6124 32.3074 33.6124C32.1604 33.6124 32.2257 33.4655 32.389 33.4247C32.5277 33.392 32.5441 33.3349 32.5033 33.1717C32.4624 33.0084 32.4869 32.9594 32.5849 32.9594C32.8134 32.9594 33.0501 32.6493 32.993 32.4289C32.9277 32.1759 33.0338 31.9881 33.1399 32.1759C33.1807 32.2493 33.1889 32.3473 33.1644 32.3881ZM31.3524 32.5105C31.3197 32.633 31.0586 32.6085 31.0177 32.486C30.9933 32.4126 31.0422 32.3799 31.1728 32.4044C31.2789 32.4126 31.3606 32.4616 31.3524 32.5105ZM32.1196 33.0003C32.1196 33.0656 32.087 33.1227 32.0462 33.1227C32.0135 33.1227 31.9809 33.0656 31.9809 33.0003C31.9809 32.935 32.0135 32.8778 32.0462 32.8778C32.087 32.8778 32.1196 32.935 32.1196 33.0003ZM33.8174 33.1064C33.7929 33.1309 33.7276 33.1064 33.6705 33.0492C33.597 32.9676 33.6052 32.9594 33.7194 33.0084C33.801 33.0329 33.8419 33.0819 33.8174 33.1064ZM35.6539 33.6614C35.6539 33.7267 35.5967 33.7757 35.5314 33.7757C35.409 33.7757 35.36 33.6043 35.458 33.5063C35.5396 33.4329 35.6539 33.5226 35.6539 33.6614Z" fill="#D11F1F"/>
<path d="M41.7103 18.4471C41.6368 18.5206 41.6123 19.2552 41.6123 21.3447C41.6123 23.777 41.6286 24.1443 41.7347 24.1443C41.8 24.1443 41.8572 24.1851 41.8572 24.2341C41.8572 24.2831 41.9306 24.3076 42.0204 24.2831C42.1592 24.2504 42.1837 24.2831 42.1837 24.5116C42.1837 24.7075 42.1428 24.7891 42.0204 24.8218C41.9306 24.8463 41.8817 24.8299 41.9061 24.7891C41.9306 24.7402 41.9061 24.6504 41.849 24.5851C41.7674 24.4871 41.7347 24.4871 41.6858 24.5688C41.5633 24.7646 41.6041 24.9605 41.7674 24.9605C41.8572 24.9605 41.9551 24.9932 41.9796 25.0422C42.0041 25.083 42.102 25.1238 42.1918 25.1238C42.2734 25.1238 42.3469 25.1564 42.3469 25.2054C42.3469 25.2462 42.2979 25.287 42.2326 25.287C42.1673 25.287 42.102 25.3523 42.0857 25.4258C42.0612 25.5564 42.0367 25.5482 41.898 25.385C41.6776 25.1319 41.6123 25.1564 41.6123 25.4911C41.6123 25.7849 41.7347 25.8665 41.9143 25.687C41.9796 25.6217 42.0531 25.6217 42.1755 25.687C42.3143 25.7686 42.3469 25.7604 42.3469 25.6543C42.3469 25.589 42.404 25.5319 42.4693 25.5319C42.5346 25.5319 42.5918 25.4748 42.5918 25.4095C42.5918 25.336 42.6652 25.287 42.7958 25.287C42.9183 25.287 42.9999 25.336 42.9999 25.4013C42.9999 25.5645 43.2611 25.6054 43.4243 25.4666C43.612 25.3115 43.8161 25.3931 43.759 25.6054C43.7345 25.7033 43.661 25.7768 43.6039 25.7768C43.5386 25.7768 43.4896 25.8094 43.4896 25.8502C43.4896 25.8992 43.3509 25.94 43.1876 25.9563C42.8611 25.9808 42.8285 26.0543 42.9672 26.5114C43.0244 26.6991 43.0162 26.7072 42.8856 26.6011C42.6979 26.4461 42.5428 26.593 42.6652 26.8215C42.7305 26.9439 42.7224 27.0092 42.6326 27.0827C42.5428 27.1562 42.5101 27.3194 42.5265 27.6377C42.5428 27.9642 42.5183 28.103 42.4367 28.1275C42.3632 28.152 42.3469 28.1275 42.3877 28.0703C42.453 27.9561 41.8817 27.3276 41.7184 27.3276C41.645 27.3276 41.6205 28.1601 41.6123 30.8944C41.6123 34.1185 41.6286 34.4695 41.7511 34.6082C41.8817 34.7552 42.0857 34.7633 45.9138 34.7552C48.3053 34.747 49.9541 34.7143 49.9785 34.6654C50.0438 34.5674 50.403 34.5674 50.4683 34.6735C50.4928 34.7225 50.7948 34.7552 51.1294 34.7552C51.611 34.7552 51.7334 34.7307 51.7334 34.6327C51.7334 34.5674 51.7906 34.5103 51.864 34.5103C51.9456 34.5103 51.9783 34.5593 51.9538 34.6246C51.9211 34.7143 51.9538 34.7307 52.0762 34.7143C52.3048 34.6654 52.3864 34.5348 52.3864 34.1838C52.4272 31.6127 52.4272 31.5556 52.2313 31.4005C52.0517 31.2536 51.8395 31.2454 48.7787 31.2454H45.522L45.5465 30.7312L45.571 30.2251L47.5544 30.217C49.8888 30.2007 49.8561 30.217 49.8561 29.4416C49.8561 29.1477 49.8153 28.96 49.7582 28.9274C49.6765 28.8865 49.6765 28.8702 49.7582 28.8294C49.8071 28.8049 49.8561 28.7315 49.8561 28.6743C49.8561 28.6172 49.8071 28.5437 49.7582 28.5193C49.6765 28.4784 49.6765 28.4621 49.7582 28.4213C49.8153 28.3968 49.8561 28.2172 49.8561 27.9642C49.8561 27.5888 49.848 27.5643 49.6765 27.6132L49.4888 27.6622L49.6765 27.5235C49.8806 27.3684 49.9051 27.1888 49.7418 26.9766C49.6112 26.8052 49.497 26.797 49.3582 26.9684C49.2603 27.0827 49.2439 27.0827 49.1868 26.9276C49.1297 26.7644 49.0807 26.7562 47.3258 26.7562H45.5302V24.2668V21.7773H48.3461C50.9335 21.7773 51.1702 21.7691 51.1457 21.6385C51.1131 21.4508 51.5457 21.3365 51.6028 21.5243C51.6273 21.614 51.6355 21.614 51.6273 21.4998C51.611 21.3202 51.2437 21.1896 51.0723 21.2957C50.9417 21.3692 50.8356 21.3202 50.8356 21.1651C50.8356 21.0427 51.4559 21.0917 51.6355 21.2304C51.7987 21.361 51.7416 21.2223 51.5538 21.0508C51.4069 20.9039 51.3988 20.8794 51.513 20.8305C51.5865 20.806 51.6191 20.7325 51.5947 20.6672C51.5702 20.6019 51.5865 20.553 51.6355 20.553C51.7661 20.553 51.7171 18.6512 51.5783 18.4879C51.4804 18.3655 50.9907 18.3573 46.6402 18.3492C42.9591 18.3492 41.7837 18.3737 41.7103 18.4471ZM50.5091 19.6551C50.5091 19.6878 50.4356 19.7041 50.3377 19.6796C50.2153 19.647 50.1989 19.6143 50.2724 19.5653C50.3867 19.5 50.5091 19.5408 50.5091 19.6551ZM51.2437 20.1448C51.2437 20.1857 51.2274 20.2265 51.211 20.2265C51.1866 20.2265 51.1457 20.1857 51.1213 20.1448C51.0968 20.0959 51.1131 20.0632 51.1539 20.0632C51.2029 20.0632 51.2437 20.0959 51.2437 20.1448ZM51.5049 20.406C51.3824 20.5285 51.309 20.455 51.3743 20.2754C51.4151 20.1775 51.4559 20.1612 51.513 20.2183C51.5783 20.2836 51.5783 20.3326 51.5049 20.406ZM51.3253 20.6672C51.3253 20.6917 51.2927 20.7325 51.2437 20.757C51.2029 20.7815 51.1621 20.7652 51.1621 20.7244C51.1621 20.6754 51.2029 20.6346 51.2437 20.6346C51.2927 20.6346 51.3253 20.6509 51.3253 20.6672ZM42.6326 24.1443C42.6571 24.1933 42.6244 24.2015 42.5591 24.177C42.4122 24.1198 42.3877 24.0627 42.502 24.0627C42.551 24.0627 42.6081 24.0953 42.6326 24.1443ZM43.8651 24.2749C44.1344 24.4382 44.2242 24.5361 44.2242 24.6912C44.2242 24.8708 44.1997 24.8871 43.9712 24.8381C43.7671 24.7891 43.6937 24.8136 43.6039 24.9524C43.5304 25.0503 43.4325 25.1238 43.3835 25.1238C43.2529 25.1156 42.9183 24.8299 42.9183 24.7238C42.9183 24.5851 43.1468 24.6177 43.2284 24.7728C43.3509 24.9769 43.5712 24.8463 43.5712 24.5606C43.5712 24.3973 43.5059 24.2749 43.3917 24.1933C43.0733 23.9648 43.457 24.0382 43.8651 24.2749ZM42.5673 24.7728C42.5428 24.7973 42.4775 24.7891 42.4285 24.7565C42.3551 24.7075 42.3551 24.6749 42.4367 24.6259C42.551 24.5606 42.6571 24.683 42.5673 24.7728ZM48.1829 26.9195C48.2074 26.9603 48.191 27.0011 48.1502 27.0011C48.1012 27.0011 48.0604 26.9603 48.0604 26.9195C48.0604 26.8705 48.0768 26.8378 48.0931 26.8378C48.1176 26.8378 48.1584 26.8705 48.1829 26.9195ZM49.7337 27.3194C49.6684 27.3847 49.448 27.1398 49.448 27.0092C49.448 26.9113 49.4888 26.9276 49.6112 27.0827C49.6929 27.197 49.75 27.3031 49.7337 27.3194ZM49.2031 27.3276C49.2031 27.3684 49.1868 27.4092 49.1705 27.4092C49.146 27.4092 49.1052 27.3684 49.0807 27.3276C49.0562 27.2786 49.0725 27.2459 49.1134 27.2459C49.1623 27.2459 49.2031 27.2786 49.2031 27.3276ZM49.0072 27.9561C48.9501 28.0132 48.795 27.8989 48.795 27.801C48.795 27.752 48.844 27.752 48.9175 27.8173C48.9909 27.8744 49.0236 27.9397 49.0072 27.9561ZM49.1623 28.0622C49.1378 28.1111 49.1705 28.1683 49.2358 28.1928C49.3092 28.2172 49.3582 28.3234 49.3582 28.4213C49.3501 28.5601 49.3419 28.5682 49.3092 28.4458C49.2848 28.3642 49.1705 28.2581 49.0562 28.2091C48.8522 28.1275 48.844 28.1193 48.9991 28.0622C49.2195 27.9724 49.2195 27.9724 49.1623 28.0622ZM49.448 28.6662C49.448 28.6825 49.3909 28.7233 49.3174 28.7478C49.2521 28.7723 49.2195 28.7641 49.2439 28.7151C49.2929 28.6335 49.448 28.6009 49.448 28.6662ZM51.7334 33.1635C51.7334 33.2288 51.7824 33.286 51.8477 33.286C51.9048 33.286 52.0028 33.3349 52.0517 33.4002C52.1334 33.4982 52.117 33.5308 51.9701 33.5716C51.8722 33.6043 51.7008 33.7267 51.5947 33.841L51.3988 34.0532L51.2192 33.8573C51.0641 33.6941 51.0641 33.6778 51.1947 33.7267C51.3171 33.7675 51.3335 33.743 51.2927 33.5716C51.26 33.4329 51.2927 33.3186 51.4069 33.2043C51.6028 33.0085 51.7334 32.9921 51.7334 33.1635ZM50.656 34.0614C50.6478 34.3879 50.5662 34.4205 50.3948 34.1675C50.2071 33.8981 50.2316 33.8492 50.607 33.7839C50.6397 33.7839 50.6642 33.9063 50.656 34.0614Z" fill="#D11F1F"/>
<path d="M53.4716 18.5043C53.4145 18.6023 53.3655 18.8635 53.3655 19.092C53.3655 19.5083 53.3655 19.5165 53.5287 19.3695C53.6512 19.2634 53.7165 19.2471 53.7981 19.3124C53.8552 19.3614 53.9858 19.3859 54.0838 19.3532C54.1817 19.3287 54.2633 19.3451 54.2633 19.394C54.2633 19.5165 54.0919 19.6144 53.896 19.6144C53.7818 19.6144 53.7409 19.6634 53.7491 19.7777C53.7573 19.8674 53.7165 19.9654 53.6675 19.998C53.5614 20.0633 53.5614 20.0797 53.5369 20.6347C53.5287 20.904 53.5042 20.9693 53.4471 20.8795C53.3981 20.7979 53.3655 21.9325 53.3655 24.1689C53.3655 26.4217 53.39 27.5644 53.4471 27.5317C53.4961 27.5072 53.5287 27.5236 53.5287 27.5644C53.5287 27.6134 53.4961 27.6542 53.4471 27.6542C53.39 27.6542 53.3655 28.8458 53.3655 31.066C53.3655 34.2574 53.3736 34.4941 53.5124 34.6165C53.7246 34.8124 56.2712 34.8124 56.4834 34.6165C56.614 34.5022 56.6304 34.2982 56.6304 32.6249V30.7721L57.267 30.6334C57.6098 30.5599 57.9771 30.4783 58.0669 30.4538C58.222 30.4211 58.3771 30.6578 59.4055 32.4699C60.0503 33.5962 60.6217 34.5757 60.687 34.641C60.842 34.7879 61.6501 34.8042 61.5603 34.6492C61.5113 34.5757 61.5277 34.5757 61.6175 34.6492C61.6909 34.7226 62.0419 34.7553 62.7602 34.7553C63.9763 34.7553 64.1396 34.6736 64.0661 34.1186C64.0416 33.9554 61.7725 29.9967 61.6175 29.858C61.544 29.7927 61.4869 29.6457 61.495 29.5315C61.5113 29.2458 61.3563 29.0254 61.2257 29.1397C61.144 29.205 61.1196 29.1805 61.1196 29.0499C61.1196 28.9601 61.1522 28.8785 61.193 28.8785C61.2338 28.8785 61.2583 28.8132 61.2502 28.7316C61.2502 28.6581 61.291 28.601 61.3481 28.6091C61.3971 28.6255 61.446 28.5928 61.446 28.552C61.446 28.503 61.4869 28.4704 61.5358 28.4704C61.5766 28.4704 61.6011 28.503 61.5766 28.5438C61.5522 28.5847 61.5848 28.6581 61.6501 28.7152C61.748 28.7969 61.7807 28.7887 61.8215 28.6826C61.8542 28.6091 61.8542 28.5194 61.8215 28.4949C61.797 28.4704 61.8215 28.3888 61.8705 28.3235C61.9521 28.2337 61.9358 28.1847 61.8133 28.0949C61.7317 28.0296 61.6827 27.9562 61.7154 27.9317C61.8215 27.8256 62.099 28.2337 62.0256 28.3806C61.9031 28.6173 61.9358 29.0417 62.0745 29.0417C62.148 29.0417 62.1806 28.9928 62.148 28.9193C62.1235 28.8458 62.148 28.7969 62.2215 28.7969C62.3031 28.7969 62.3439 28.7071 62.3439 28.5112C62.3439 28.3561 62.3847 28.2255 62.4255 28.2255C62.4745 28.2255 62.5071 28.3235 62.5071 28.4459V28.6663L62.801 28.3806C63.1764 28.0215 63.6988 27.2624 63.9273 26.7318C64.4171 25.6136 64.564 23.9567 64.2702 22.8385C63.7723 20.9204 62.3765 19.394 60.4339 18.6431L59.7728 18.3901L56.6712 18.3656C53.6267 18.3411 53.5695 18.3411 53.4716 18.5043ZM54.3858 18.6431C54.6388 18.8064 54.6633 19.0349 54.4184 18.9614C54.3123 18.9288 54.2143 18.9533 54.1572 19.0349C54.0674 19.141 54.0429 19.141 53.9042 19.0431C53.8144 18.9778 53.7736 18.8961 53.8062 18.8635C53.8389 18.8308 53.896 18.8553 53.9287 18.9125C54.0348 19.0757 54.2062 18.9288 54.1572 18.7084C54.1164 18.4799 54.1246 18.4717 54.3858 18.6431ZM59.5034 21.9978C60.9073 22.6344 61.4052 24.4872 60.5074 25.7769C60.0748 26.3972 59.6014 26.6257 58.0751 26.9359C57.3241 27.091 56.6875 27.1971 56.6712 27.1726C56.6059 27.1073 56.6222 21.8917 56.6957 21.8264C56.7283 21.7855 57.2833 21.7774 57.9363 21.7937C58.9158 21.8264 59.1851 21.859 59.5034 21.9978ZM53.9368 23.6139C53.9368 23.6792 53.9205 23.7363 53.9042 23.7363C53.8879 23.7363 53.8552 23.6792 53.8226 23.6139C53.7981 23.5486 53.8144 23.4914 53.8552 23.4914C53.9042 23.4914 53.9368 23.5486 53.9368 23.6139ZM54.8347 23.9975C54.8347 24.071 54.8673 24.0628 54.9163 23.9812C54.9816 23.8832 54.9979 23.8914 54.9979 24.0383C54.9979 24.2669 54.9081 24.275 54.7122 24.0628C54.5816 23.9159 54.5816 23.8996 54.6959 23.8996C54.7775 23.8996 54.8347 23.9485 54.8347 23.9975ZM55.7733 24.226C55.7733 24.3485 55.5121 24.4138 55.4387 24.2995C55.4142 24.2587 55.3571 24.2424 55.3162 24.2669C55.2754 24.2995 55.2428 24.2832 55.2428 24.2342C55.2428 24.1607 55.5285 24.071 55.6917 24.1036C55.7407 24.1118 55.7733 24.1689 55.7733 24.226ZM53.7409 25.0586C53.6675 25.1565 53.6103 25.3035 53.6103 25.3851C53.6103 25.4667 53.5695 25.532 53.5206 25.532C53.4634 25.532 53.4553 25.434 53.4879 25.2626C53.5614 24.928 53.594 24.879 53.7409 24.879C53.847 24.879 53.847 24.9035 53.7409 25.0586ZM54.2878 25.1157C54.2552 25.1402 54.198 25.1973 54.1654 25.2382C54.1246 25.279 54.1001 25.2382 54.1001 25.1402C54.1001 25.0178 54.1327 24.977 54.2307 25.0178C54.3041 25.0423 54.3286 25.0912 54.2878 25.1157ZM54.3858 25.6055C54.4266 25.6136 54.4266 25.6463 54.3776 25.6952C54.3286 25.7442 54.1899 25.7442 53.994 25.6871C53.6103 25.581 53.6103 25.532 54.0021 25.5728C54.1654 25.5891 54.3368 25.6055 54.3858 25.6055ZM56.1406 26.4706C56.1406 26.5359 56.1243 26.5931 56.108 26.5931C56.0916 26.5931 56.059 26.5359 56.0264 26.4706C56.0019 26.4053 56.0182 26.3482 56.059 26.3482C56.108 26.3482 56.1406 26.4053 56.1406 26.4706ZM63.6498 26.5115C63.7233 26.6421 63.7151 26.6747 63.609 26.6747C63.5437 26.6747 63.4866 26.6584 63.4866 26.6421C63.4866 26.6257 63.4621 26.5523 63.4376 26.4788C63.3642 26.2911 63.5437 26.3156 63.6498 26.5115ZM55.3571 27.2052C55.3244 27.2705 55.2918 27.3277 55.2754 27.3277C55.2591 27.3277 55.2428 27.2705 55.2428 27.2052C55.2428 27.1399 55.2754 27.0828 55.3244 27.0828C55.3652 27.0828 55.3815 27.1399 55.3571 27.2052ZM55.8141 27.2542C55.8141 27.295 55.7815 27.3277 55.7325 27.3277C55.6917 27.3277 55.6509 27.2705 55.6509 27.1971C55.6509 27.1318 55.6917 27.0991 55.7325 27.1236C55.7815 27.1481 55.8141 27.2052 55.8141 27.2542ZM59.5687 27.1971C59.5687 27.2216 59.5361 27.2624 59.4871 27.2869C59.4463 27.3114 59.4055 27.295 59.4055 27.2542C59.4055 27.2052 59.4463 27.1644 59.4871 27.1644C59.5361 27.1644 59.5687 27.1808 59.5687 27.1971ZM59.8952 27.5399C59.8952 27.6542 59.8707 27.6542 59.7728 27.5725C59.7075 27.5154 59.6504 27.4583 59.6504 27.4419C59.6504 27.4256 59.7075 27.4093 59.7728 27.4093C59.8381 27.4093 59.8952 27.4664 59.8952 27.5399ZM59.1606 27.5725C59.1606 27.6134 59.1443 27.6542 59.128 27.6542C59.1035 27.6542 59.0627 27.6134 59.0382 27.5725C59.0137 27.5236 59.03 27.4909 59.0708 27.4909C59.1198 27.4909 59.1606 27.5236 59.1606 27.5725ZM61.0379 27.5236C61.0379 27.5481 61.0053 27.5889 60.9563 27.6134C60.9155 27.6378 60.8747 27.6215 60.8747 27.5807C60.8747 27.5317 60.9155 27.4909 60.9563 27.4909C61.0053 27.4909 61.0379 27.5072 61.0379 27.5236ZM62.4255 27.6297C62.5071 27.6623 62.4663 27.695 62.3112 27.7439C62.0419 27.8174 61.9358 27.7848 61.9358 27.6134C61.9358 27.5072 62.1072 27.5154 62.4255 27.6297ZM60.0993 27.899C60.1238 27.9398 60.1074 27.9806 60.0666 27.9806C60.0177 27.9806 59.9769 27.9398 59.9769 27.899C59.9769 27.8501 59.9932 27.8174 60.0095 27.8174C60.034 27.8174 60.0748 27.8501 60.0993 27.899ZM61.0869 28.3071C61.1522 28.3071 61.2012 28.3806 61.2012 28.4704C61.2012 28.6744 61.0787 28.6826 60.8829 28.4867C60.6788 28.2908 60.6053 28.0459 60.7278 27.9725C60.8012 27.9235 60.8584 27.9725 60.8992 28.1031C60.94 28.2174 61.0216 28.3071 61.0869 28.3071ZM62.752 28.0623C62.752 28.1031 62.7357 28.1439 62.7193 28.1439C62.6949 28.1439 62.654 28.1031 62.6296 28.0623C62.6051 28.0133 62.6214 27.9806 62.6622 27.9806C62.7112 27.9806 62.752 28.0133 62.752 28.0623ZM60.5482 28.2418C60.5482 28.3316 60.3197 28.3235 60.2625 28.2337C60.238 28.1847 60.2952 28.1602 60.385 28.1684C60.4747 28.1765 60.5482 28.2092 60.5482 28.2418ZM61.1604 29.4498C61.1849 29.4988 61.1522 29.507 61.0869 29.4825C60.94 29.4254 60.9155 29.3682 61.0298 29.3682C61.0787 29.3682 61.1359 29.4009 61.1604 29.4498ZM60.8747 29.9804C60.9645 30.0865 60.9563 30.0947 60.842 30.0538C60.7686 30.0294 60.7114 29.9722 60.7114 29.9314C60.7114 29.8253 60.7604 29.8416 60.8747 29.9804ZM61.1196 30.2171C61.1196 30.2905 61.0379 30.3232 60.9155 30.315C60.8012 30.315 60.7114 30.2987 60.7114 30.2824C60.7114 30.2661 61.0053 30.1273 61.1032 30.111C61.1114 30.1028 61.1196 30.1518 61.1196 30.2171ZM61.3481 30.764C61.3236 30.8293 61.291 30.7884 61.2583 30.6823C61.2257 30.5436 61.2338 30.5109 61.2991 30.5762C61.3399 30.617 61.3644 30.7068 61.3481 30.764ZM61.7725 30.5436C61.7725 30.5681 61.7399 30.6089 61.6909 30.6334C61.6501 30.6578 61.6093 30.6415 61.6093 30.6007C61.6093 30.5517 61.6501 30.5109 61.6909 30.5109C61.7399 30.5109 61.7725 30.5273 61.7725 30.5436ZM61.8786 30.9762C61.8215 30.9925 61.7236 30.9925 61.6746 30.9762C61.6174 30.9517 61.6583 30.9354 61.7725 30.9354C61.8868 30.9354 61.9276 30.9517 61.8786 30.9762ZM61.6909 33.9472C61.6909 33.988 61.6583 34.0207 61.6093 34.0207C61.5685 34.0207 61.5277 33.9635 61.5277 33.8901C61.5277 33.8248 61.5685 33.7921 61.6093 33.8166C61.6583 33.8411 61.6909 33.8982 61.6909 33.9472ZM61.9113 34.5512C61.9113 34.6165 61.8542 34.6736 61.7889 34.6736C61.6909 34.6736 61.6909 34.6492 61.7725 34.5512C61.8297 34.4859 61.8786 34.4288 61.895 34.4288C61.9031 34.4288 61.9113 34.4859 61.9113 34.5512Z" fill="#D11F1F"/>
<path d="M65.5032 18.4961C65.3807 18.6348 65.3644 18.9858 65.3644 21.8671C65.3644 23.6382 65.3971 25.2054 65.4379 25.3523C65.4868 25.4992 65.4868 25.6135 65.446 25.6135C65.3318 25.6135 65.3562 27.1562 65.4705 27.3357C65.544 27.45 65.544 27.5316 65.4705 27.6377C65.3726 27.801 65.3154 34.2083 65.4134 34.4613C65.4379 34.5348 65.495 34.5756 65.5276 34.5511C65.5603 34.5266 65.6093 34.5674 65.6419 34.6327C65.7072 34.8041 66.0011 34.7878 66.0419 34.6082C66.0745 34.4776 66.0827 34.4776 66.0908 34.6082C66.099 34.796 66.401 34.8041 66.6051 34.6164C66.752 34.4858 66.752 34.4858 66.703 34.6164C66.6622 34.7388 66.7356 34.7551 67.4702 34.7551C67.9926 34.7551 68.311 34.7225 68.3518 34.6654C68.3844 34.6082 68.3599 34.5837 68.2946 34.6082C68.1314 34.6654 67.9355 34.2573 68.0742 34.1675C68.1314 34.1348 68.2048 34.1022 68.2375 34.1022C68.3273 34.1022 68.466 34.396 68.466 34.5837C68.466 34.7225 68.515 34.7551 68.7354 34.7551C69.0455 34.7551 69.2414 34.649 69.168 34.5184C69.1272 34.4613 69.1517 34.4368 69.217 34.445C69.3965 34.4858 69.4047 33.7104 69.2333 33.5227C69.1027 33.3757 69.1027 33.3676 69.2251 33.4165C69.3557 33.4655 69.3639 33.2941 69.3639 31.1311C69.3639 29.8497 69.3884 28.7968 69.4292 28.8049C69.4618 28.8049 69.8046 29.2375 70.1883 29.7599C72.4329 32.7962 73.0613 33.6124 73.1675 33.6124C73.2327 33.6124 73.2817 33.6696 73.2817 33.7349C73.2817 33.8002 73.3307 33.8328 73.396 33.8083C73.5511 33.7512 73.649 33.9226 73.5347 34.0532C73.4368 34.1756 73.5674 34.347 73.7715 34.3552C73.8612 34.3552 73.8612 34.3715 73.7878 34.4042C73.7062 34.4368 73.7143 34.4776 73.8204 34.6001C73.9837 34.7796 74.7101 34.8204 74.7754 34.649C74.8081 34.5756 74.8244 34.5756 74.8244 34.649C74.8325 34.7307 75.1427 34.7551 76.0814 34.7551C77.1996 34.7551 77.3547 34.7388 77.4771 34.6082C77.5914 34.4695 77.6077 34.192 77.6077 32.2085C77.5995 30.3802 77.5832 29.9395 77.4852 29.8578C77.42 29.8089 77.3955 29.7109 77.42 29.6456C77.4444 29.5803 77.42 29.4742 77.3628 29.4089C77.3057 29.3436 77.2975 29.2865 77.3383 29.2865C77.3873 29.2865 77.4608 29.3681 77.5097 29.466C77.5914 29.6538 77.5995 29.6538 77.5995 29.4824C77.6077 29.3844 77.5342 29.213 77.4444 29.1069C77.2975 28.911 77.2975 28.8947 77.4281 28.7478C77.575 28.5845 77.6648 28.054 77.5669 27.8989C77.5261 27.8336 77.4771 27.8336 77.4036 27.8989C77.2894 27.9969 77.3302 28.2254 77.4771 28.3233C77.5261 28.356 77.5342 28.405 77.5016 28.4376C77.4281 28.5192 77.1016 28.2172 77.1424 28.1111C77.1669 28.0622 77.1261 27.956 77.0527 27.8744C76.8976 27.703 76.9792 27.5887 77.1588 27.7357C77.2649 27.8173 77.2812 27.8091 77.2812 27.6704C77.2812 27.5479 77.322 27.5071 77.4036 27.5398C77.4689 27.5724 77.5016 27.6296 77.4689 27.6785C77.4444 27.7275 77.4608 27.7357 77.5097 27.703C77.5669 27.6704 77.5995 27.3929 77.5914 26.9439C77.575 26.5521 77.5505 26.3236 77.5261 26.4379C77.4852 26.593 77.4689 26.6093 77.4281 26.495C77.3955 26.4216 77.42 26.3154 77.4934 26.2665C77.624 26.1522 77.6567 25.238 77.5342 24.8218C77.4852 24.6585 77.4852 24.5361 77.5342 24.5116C77.575 24.479 77.6077 23.7933 77.6077 22.9526C77.6077 21.5079 77.5995 21.4508 77.4444 21.4508C77.3547 21.4508 77.2812 21.41 77.2812 21.361C77.2812 21.312 77.3547 21.2549 77.4444 21.2304C77.5995 21.1896 77.6077 21.1161 77.6077 19.8673C77.6077 18.945 77.575 18.5124 77.5097 18.4471C77.4363 18.3736 76.9139 18.3492 75.6488 18.3492C74.3836 18.3492 73.8612 18.3736 73.7878 18.4471C73.7143 18.5206 73.6898 19.7286 73.6898 23.3934C73.6898 26.3726 73.6572 28.2254 73.6164 28.2091C73.5429 28.1846 69.8944 23.3607 67.1927 19.7122C66.2378 18.4226 66.1643 18.3492 65.9031 18.3492C65.748 18.3492 65.5766 18.4144 65.5032 18.4961ZM74.4244 20.5121C74.4244 20.5693 74.3755 20.6346 74.3183 20.659C74.2285 20.6917 74.1959 20.5366 74.253 20.3244C74.2775 20.2509 74.4244 20.4142 74.4244 20.5121ZM77.4444 21.0427C77.4444 21.0835 77.4281 21.1243 77.4118 21.1243C77.3873 21.1243 77.3465 21.0835 77.322 21.0427C77.2975 20.9937 77.3138 20.9611 77.3547 20.9611C77.4036 20.9611 77.4444 20.9937 77.4444 21.0427ZM67.6498 21.9732C67.6498 21.9976 67.6172 22.0385 67.5682 22.0629C67.5274 22.0874 67.4866 22.0711 67.4866 22.0303C67.4866 21.9813 67.5274 21.9405 67.5682 21.9405C67.6172 21.9405 67.6498 21.9568 67.6498 21.9732ZM66.1806 24.0627C66.1806 24.1035 66.1643 24.1443 66.148 24.1443C66.1235 24.1443 66.0827 24.1035 66.0582 24.0627C66.0337 24.0137 66.05 23.9811 66.0908 23.9811C66.1398 23.9811 66.1806 24.0137 66.1806 24.0627ZM65.8949 24.4626C65.9194 24.5034 65.9031 24.5606 65.8541 24.5932C65.8133 24.6177 65.7725 24.5851 65.7725 24.5198C65.7725 24.3728 65.8215 24.3484 65.8949 24.4626ZM76.6282 26.0216C76.6282 26.0624 76.6119 26.1032 76.5956 26.1032C76.5711 26.1032 76.5303 26.0624 76.5058 26.0216C76.4813 25.9726 76.4976 25.94 76.5384 25.94C76.5874 25.94 76.6282 25.9726 76.6282 26.0216ZM66.7846 26.0706C66.8581 26.0951 66.9152 26.1767 66.9152 26.2338C66.9152 26.3318 66.8826 26.3318 66.752 26.2665C66.6622 26.2175 66.5887 26.144 66.5887 26.1032C66.5887 26.0053 66.6132 26.0053 66.7846 26.0706ZM67.7314 26.3073C67.7314 26.3726 67.658 26.4297 67.5682 26.4297C67.4049 26.4297 67.356 26.3399 67.4621 26.242C67.56 26.1359 67.7314 26.1848 67.7314 26.3073ZM70.1474 26.446C70.1719 26.4787 70.1393 26.4869 70.0658 26.4787C70.0005 26.4705 69.9189 26.4379 69.8863 26.4134C69.8618 26.3807 69.8944 26.3726 69.9679 26.3807C70.0332 26.3889 70.1148 26.4216 70.1474 26.446ZM65.6664 27.1398C65.5929 27.2133 65.5032 27.2459 65.4705 27.2133C65.4379 27.1806 65.4787 27.099 65.5603 27.0337C65.7643 26.8868 65.846 26.9684 65.6664 27.1398ZM66.2622 27.197C66.2622 27.2133 66.2051 27.2459 66.1398 27.2786C66.0745 27.3031 66.0174 27.2867 66.0174 27.2459C66.0174 27.197 66.0745 27.1643 66.1398 27.1643C66.2051 27.1643 66.2622 27.1806 66.2622 27.197ZM70.0985 27.2459C70.0985 27.2867 70.0658 27.3276 70.0168 27.3276C69.976 27.3276 69.9352 27.2867 69.9352 27.2459C69.9352 27.197 69.976 27.1643 70.0168 27.1643C70.0658 27.1643 70.0985 27.197 70.0985 27.2459ZM76.1222 27.5071C76.0732 27.654 75.8936 27.6785 75.8936 27.5398C75.8936 27.4663 75.9508 27.4092 76.0242 27.4092C76.0977 27.4092 76.1385 27.45 76.1222 27.5071ZM66.1561 27.7193C66.2296 27.703 66.3031 27.7357 66.3194 27.7846C66.3602 27.9152 65.7888 27.8173 65.7399 27.6867C65.7072 27.5887 65.7235 27.5887 65.8541 27.654C65.9439 27.703 66.0827 27.7357 66.1561 27.7193ZM69.119 27.8907C69.119 27.9969 68.8905 28.0703 68.8333 27.9805C68.8088 27.9479 68.8415 27.8907 68.8905 27.8744C69.0537 27.8091 69.119 27.8091 69.119 27.8907ZM76.6037 28.1111C76.5792 28.1356 76.5058 28.1438 76.4487 28.1193C76.3834 28.0948 76.4078 28.0703 76.4976 28.0703C76.5874 28.0622 76.6364 28.0866 76.6037 28.1111ZM67.7314 29.3681C67.7314 29.4089 67.6906 29.4497 67.6417 29.4497C67.6008 29.4497 67.5845 29.4089 67.609 29.3681C67.6335 29.3191 67.6743 29.2865 67.6988 29.2865C67.7151 29.2865 67.7314 29.3191 67.7314 29.3681ZM76.9547 29.4497C76.9547 29.4905 76.9221 29.5313 76.8731 29.5313C76.8323 29.5313 76.7915 29.4905 76.7915 29.4497C76.7915 29.4008 76.8323 29.3681 76.8731 29.3681C76.9221 29.3681 76.9547 29.4008 76.9547 29.4497ZM75.8691 29.7109C75.8446 29.7762 75.8202 29.7517 75.8202 29.6619C75.812 29.5722 75.8365 29.5232 75.861 29.5558C75.8855 29.5803 75.8936 29.6538 75.8691 29.7109ZM75.9344 30.1027C75.9589 30.1435 75.9426 30.1843 75.9018 30.1843C75.8528 30.1843 75.812 30.1435 75.812 30.1027C75.812 30.0537 75.8283 30.0211 75.8446 30.0211C75.8691 30.0211 75.9099 30.0537 75.9344 30.1027ZM76.7098 30.2006C76.7098 30.3476 76.6935 30.3639 76.6364 30.2659C76.5874 30.2006 76.5792 30.119 76.5956 30.0864C76.669 29.9721 76.7098 30.0129 76.7098 30.2006ZM69.07 30.47C69.0374 30.5353 68.9802 30.5924 68.9394 30.5924C68.8905 30.5924 68.8986 30.5435 68.9558 30.47C69.0129 30.4047 69.07 30.3476 69.0864 30.3476C69.1027 30.3476 69.0945 30.4047 69.07 30.47ZM76.7098 31.4168C76.7098 31.4658 76.6772 31.4739 76.6282 31.4495C76.5874 31.425 76.5466 31.3597 76.5466 31.3189C76.5466 31.2699 76.5874 31.2617 76.6282 31.2862C76.6772 31.3107 76.7098 31.376 76.7098 31.4168ZM67.8049 31.5148C67.7886 31.5229 67.6988 31.5882 67.609 31.6535C67.4539 31.7678 67.4539 31.7678 67.56 31.629C67.6172 31.5556 67.7069 31.4903 67.7559 31.4903C67.8049 31.4903 67.8212 31.4984 67.8049 31.5148ZM68.7272 31.8331C68.6701 31.8902 68.6293 31.8984 68.6293 31.8494C68.6293 31.7351 68.7272 31.6372 68.7844 31.6943C68.8007 31.7188 68.7762 31.7841 68.7272 31.8331ZM67.2417 32.5105C67.1846 32.5758 67.1029 32.633 67.054 32.633C67.0132 32.633 67.0376 32.5595 67.1193 32.4697C67.2907 32.282 67.4049 32.3147 67.2417 32.5105ZM67.9845 32.9023C67.8702 33.0248 67.8131 33.0411 67.8131 32.9676C67.8131 32.7962 68.0824 32.5105 68.1232 32.633C68.1477 32.6901 68.0824 32.8125 67.9845 32.9023ZM69.0945 32.8125C69.07 32.8778 69.0455 32.8534 69.0455 32.7636C69.0374 32.6738 69.0619 32.6248 69.0864 32.6575C69.1108 32.682 69.119 32.7554 69.0945 32.8125ZM66.2622 33.2451C66.2051 33.3186 66.1398 33.3512 66.1235 33.3349C66.0663 33.2778 66.1806 33.1227 66.2786 33.1227C66.3275 33.1227 66.3275 33.1717 66.2622 33.2451ZM73.5837 33.6614C73.5592 33.6859 73.4858 33.6941 73.4286 33.6696C73.3633 33.6451 73.3878 33.6206 73.4776 33.6206C73.5674 33.6124 73.6164 33.6369 73.5837 33.6614ZM74.6366 33.8573C74.7101 33.8573 74.7509 33.9389 74.7509 34.0858C74.7509 34.4123 74.6938 34.4368 74.3755 34.2654C74.2204 34.1756 74.0816 34.143 74.0571 34.1838C73.9837 34.3062 73.8531 34.2817 73.8531 34.143C73.8531 34.0205 73.9184 33.9961 74.204 33.9961C74.3265 33.9961 74.3428 33.9553 74.302 33.8002C74.2612 33.6124 74.2612 33.6043 74.3836 33.7267C74.4571 33.8002 74.5713 33.8573 74.6366 33.8573ZM67.2907 33.9063C67.258 33.9797 67.2172 34.0287 67.2009 34.0042C67.1764 33.9797 67.1764 33.8981 67.2091 33.8247C67.2417 33.7512 67.2825 33.7022 67.2988 33.7267C67.3233 33.7512 67.3233 33.8328 67.2907 33.9063ZM67.7886 33.9961C67.7151 34.0695 67.6335 34.1103 67.6008 34.0858C67.5192 34.0042 67.6498 33.8573 67.7967 33.8573C67.9192 33.8573 67.9192 33.8655 67.7886 33.9961Z" fill="#D11F1F"/>
<path d="M83.5249 18.6348C83.4596 18.7899 83.4025 18.945 83.4025 18.9776C83.4025 19.0674 82.9944 20.3815 82.9046 20.5937C82.774 20.8957 81.9333 23.5484 81.9333 23.6709C81.9333 23.7362 81.9006 23.8178 81.8598 23.8668C81.819 23.9076 81.7047 24.2177 81.615 24.5524C81.5252 24.887 81.3783 25.3686 81.2885 25.6135C81.1007 26.1195 78.9296 32.9431 78.8317 33.3267C78.799 33.4573 78.7255 33.6777 78.6766 33.8083C78.5786 34.0532 78.6276 34.4695 78.7664 34.649C78.8317 34.7306 79.2642 34.7551 80.4233 34.7551C81.8109 34.7551 82.0067 34.7388 82.1129 34.6082C82.1863 34.5347 82.4149 33.9144 82.6271 33.2451C82.8311 32.5677 83.0597 31.8494 83.125 31.629L83.2556 31.2454H85.6063H87.9651L88.3406 32.4452C88.5528 33.1145 88.7569 33.7757 88.7977 33.9144C88.8467 34.0613 88.912 34.1838 88.9528 34.1838C88.9854 34.1838 89.0017 34.2491 88.9773 34.3389C88.9201 34.5511 89.2384 34.7551 89.6384 34.7551C89.9567 34.7551 89.9567 34.7551 89.8098 34.5919C89.7282 34.5021 89.6874 34.4042 89.7118 34.3715C89.8016 34.2899 90.1771 34.4939 90.1771 34.6327C90.1771 34.7143 90.2506 34.7551 90.3893 34.7551C90.5689 34.7551 90.5934 34.7388 90.5036 34.6327C90.4464 34.5674 90.3567 34.5103 90.2995 34.5103C90.2424 34.5103 90.1771 34.4286 90.1444 34.3307C90.0628 34.0205 90.0873 33.9879 90.2587 34.143C90.3485 34.2246 90.4056 34.3062 90.3893 34.3389C90.373 34.3633 90.4464 34.396 90.5607 34.4042C90.7729 34.4123 90.9362 34.5674 90.8627 34.6898C90.8382 34.7225 91.1647 34.7551 91.5891 34.7551C92.2258 34.7551 92.3809 34.7306 92.487 34.6082C92.6257 34.4531 92.6747 34.094 92.5686 33.996C92.5441 33.9634 92.5033 33.841 92.487 33.7185C92.4299 33.237 91.7687 31.4494 91.6463 31.4413C91.3933 31.425 91.3688 31.3923 91.5402 31.327C91.7034 31.2617 91.7116 31.2291 91.63 30.9842C91.581 30.8373 91.483 30.6659 91.4259 30.6087C91.3198 30.5026 91.2871 30.3557 91.3116 30.0945C91.328 29.9231 90.2914 26.6827 90.1689 26.544C90.12 26.4868 90.0955 26.4052 90.12 26.3726C90.1363 26.3399 89.9486 25.6625 89.6955 24.8789C89.214 23.3934 89.1405 23.2791 88.8548 23.6137C88.7242 23.7607 88.7161 23.7607 88.7079 23.6301C88.7079 23.4179 88.7324 23.3689 88.8385 23.3934C88.8875 23.4015 88.9773 23.3526 89.0344 23.2873C89.1242 23.1811 89.1078 23.0506 88.9528 22.5527C88.8467 22.2017 88.7242 21.965 88.6834 21.9976C88.6344 22.0303 88.6181 21.9895 88.6508 21.9078C88.6834 21.8262 88.5365 21.2304 88.2916 20.4876C87.8754 19.2306 87.8672 19.2143 87.7284 19.3939C87.4672 19.7122 87.3938 19.549 87.606 19.1327C87.7692 18.8225 87.7692 18.5613 87.606 18.6266C87.5244 18.6593 87.4836 18.6185 87.4836 18.5124C87.4836 18.3655 87.4019 18.3573 85.5655 18.3491H83.6392L83.5249 18.6348ZM85.9817 19.3857C85.9001 19.4674 85.8266 19.3449 85.9001 19.2388C85.9491 19.149 85.9654 19.149 85.9981 19.2388C86.0144 19.2959 86.0062 19.3612 85.9817 19.3857ZM83.7208 19.7938C83.6637 19.9652 83.6229 20.1285 83.631 20.1611C83.6392 20.2019 83.6147 20.2264 83.5657 20.2264C83.4351 20.2264 83.4759 19.7449 83.6229 19.5163C83.8024 19.247 83.8514 19.4021 83.7208 19.7938ZM85.8103 19.7367C85.8348 19.7775 85.8266 19.8183 85.7777 19.8183C85.7369 19.8183 85.6716 19.7775 85.6471 19.7367C85.6226 19.6877 85.6308 19.6551 85.6797 19.6551C85.7205 19.6551 85.7858 19.6877 85.8103 19.7367ZM86.7326 19.9408C86.6674 20.0795 86.6184 20.1203 86.5776 20.055C86.5449 19.9979 86.5612 19.9081 86.6102 19.851C86.7735 19.6714 86.8306 19.7204 86.7326 19.9408ZM85.1982 20.0632C85.1982 20.104 85.1818 20.1448 85.1655 20.1448C85.141 20.1448 85.1002 20.104 85.0757 20.0632C85.0512 20.0142 85.0676 19.9816 85.1084 19.9816C85.1573 19.9816 85.1982 20.0142 85.1982 20.0632ZM83.2147 20.7325C83.1903 20.7896 83.1739 20.7488 83.1739 20.6345C83.1739 20.5203 83.1903 20.4795 83.2147 20.5284C83.2311 20.5856 83.2311 20.6835 83.2147 20.7325ZM86.0144 21.361C86.0144 21.4018 85.9572 21.4753 85.8919 21.5324C85.7858 21.614 85.7695 21.6058 85.7695 21.4589C85.7695 21.361 85.8185 21.2875 85.8919 21.2875C85.9572 21.2875 86.0144 21.3202 86.0144 21.361ZM88.5202 22.4874C88.4467 22.5608 88.3569 22.5935 88.3243 22.5608C88.2916 22.5282 88.3161 22.471 88.3814 22.4302C88.5855 22.2996 88.6671 22.3404 88.5202 22.4874ZM87.8917 23.2791C87.8917 23.3444 87.8182 23.475 87.7284 23.5811C87.5978 23.7362 87.5734 23.7525 87.5652 23.6382C87.5652 23.4097 87.7203 23.0669 87.8101 23.124C87.8509 23.1485 87.8917 23.222 87.8917 23.2791ZM88.6263 23.7688C88.6263 23.8341 88.5936 23.9076 88.5528 23.9402C88.4549 23.9974 88.3569 23.8423 88.4222 23.7362C88.4957 23.6137 88.6263 23.6382 88.6263 23.7688ZM85.8919 24.7973C86.0552 25.287 86.2184 25.6951 86.2511 25.6951C86.2837 25.6951 86.349 25.6543 86.398 25.6053C86.4633 25.54 86.5041 25.54 86.5449 25.6135C86.5776 25.6706 86.5368 25.7277 86.4306 25.7522C86.3327 25.7767 86.2592 25.842 86.2592 25.891C86.2592 25.9481 86.3898 26.3726 86.5449 26.8378C86.7 27.3031 86.8306 27.6948 86.8306 27.7112C86.8306 27.7275 86.2756 27.7356 85.5981 27.7356C84.6431 27.7356 84.3738 27.7112 84.4064 27.6295C84.4227 27.5806 84.6921 26.7154 85.0023 25.7196C85.3124 24.7156 85.5736 23.8994 85.5818 23.8994C85.5899 23.8994 85.7287 24.2994 85.8919 24.7973ZM88.0712 24.732C88.0141 24.7891 87.9733 24.7973 87.9733 24.7483C87.9733 24.634 88.0712 24.5361 88.1284 24.5932C88.1447 24.6177 88.1202 24.683 88.0712 24.732ZM90.8627 29.4089C90.8872 29.4742 90.8709 29.5313 90.8301 29.5313C90.7811 29.5313 90.7484 29.4742 90.7484 29.4089C90.7484 29.3436 90.7648 29.2865 90.7811 29.2865C90.7974 29.2865 90.8301 29.3436 90.8627 29.4089ZM90.6178 30.7312L90.5526 30.9597L90.5199 30.7312C90.5036 30.6087 90.4464 30.5108 90.3975 30.5108C90.3403 30.5108 90.3485 30.4781 90.422 30.4292C90.6015 30.3149 90.6995 30.4618 90.6178 30.7312ZM89.2793 32.3065C89.2793 32.3473 89.2629 32.3881 89.2466 32.3881C89.2221 32.3881 89.1813 32.3473 89.1568 32.3065C89.1323 32.2575 89.1487 32.2248 89.1895 32.2248C89.2384 32.2248 89.2793 32.2575 89.2793 32.3065ZM90.7484 32.4289C90.6913 32.4942 90.5852 32.5513 90.5117 32.5513C90.4056 32.5432 90.4056 32.5269 90.5362 32.4289C90.7484 32.2738 90.879 32.2738 90.7484 32.4289ZM90.422 32.7962C90.422 32.886 90.4791 32.9594 90.5444 32.9594C90.6342 32.9594 90.6668 33.0492 90.6668 33.2614C90.6668 33.5471 90.6587 33.5553 90.5607 33.4084C90.4954 33.3186 90.4301 33.1717 90.4056 33.0819C90.3811 32.9921 90.3322 32.8533 90.2995 32.7717C90.2669 32.6901 90.275 32.633 90.3322 32.633C90.3811 32.633 90.422 32.7064 90.422 32.7962ZM91.9891 32.8125C91.932 32.8697 91.8912 32.8778 91.8912 32.8289C91.8912 32.7146 91.9891 32.6166 92.0462 32.6738C92.0626 32.6983 92.0381 32.7636 91.9891 32.8125ZM91.5647 33.1227C91.5647 33.1635 91.5483 33.2043 91.532 33.2043C91.5075 33.2043 91.4667 33.1635 91.4422 33.1227C91.4177 33.0737 91.4341 33.0411 91.4749 33.0411C91.5239 33.0411 91.5647 33.0737 91.5647 33.1227ZM89.8914 33.2859C89.9159 33.3349 89.8833 33.3431 89.818 33.3186C89.671 33.2614 89.6465 33.2043 89.7608 33.2043C89.8098 33.2043 89.8669 33.237 89.8914 33.2859ZM81.8353 33.6043C81.9251 33.6614 81.9251 33.6777 81.8272 33.7185C81.7537 33.743 81.6803 33.7104 81.6558 33.6451C81.6068 33.5145 81.6721 33.4982 81.8353 33.6043ZM91.0994 34.0205C91.1239 34.1103 91.1076 34.1674 91.0668 34.1348C91.026 34.1103 90.9933 34.0369 90.9933 33.9716C90.9933 33.8083 91.0504 33.8328 91.0994 34.0205ZM91.9891 34.3633C91.9483 34.4042 91.8422 34.3715 91.7197 34.2736C91.581 34.1511 91.5565 34.1103 91.6544 34.1022C91.7197 34.1022 91.8177 34.143 91.8748 34.2001C91.9483 34.2736 91.9728 34.2572 91.9809 34.094L91.9973 33.8981L92.0299 34.094C92.0544 34.2001 92.0381 34.3144 91.9891 34.3633Z" fill="#D11F1F"/>
<path d="M41.71 26.4462C41.7018 26.5523 41.6773 26.7482 41.6528 26.8869C41.5957 27.1318 41.612 27.14 41.8079 27.1073C42.0936 27.0502 42.1426 26.9522 41.9793 26.7808C41.8487 26.6502 41.8487 26.6421 41.9793 26.5441C42.1426 26.4217 42.0773 26.2666 41.8569 26.2666C41.7589 26.2666 41.71 26.3319 41.71 26.4462Z" fill="#D11F1F"/>
<path d="M61.3645 28.9436C61.3645 28.9763 61.4216 29.0905 61.4951 29.1885C61.6012 29.3354 61.6502 29.3599 61.74 29.2783C61.8869 29.1558 61.8869 29.0416 61.7318 29.0416C61.6665 29.0416 61.6094 29.0007 61.6094 28.9599C61.6094 28.911 61.5522 28.8783 61.4869 28.8783C61.4216 28.8783 61.3645 28.9028 61.3645 28.9436Z" fill="#D11F1F"/>
<path d="M26.4713 33.5309C26.4468 33.5717 26.4468 33.6126 26.4795 33.6126C26.5121 33.6126 26.4713 33.6697 26.3815 33.735C26.2999 33.8003 26.2672 33.8574 26.3162 33.8574C26.406 33.8574 26.6754 33.5962 26.6754 33.5064C26.6754 33.4167 26.5284 33.4412 26.4713 33.5309Z" fill="#D11F1F"/>
<path d="M25.5573 34.1186C25.4104 34.3145 25.3777 34.4941 25.4757 34.5838C25.5491 34.641 25.6063 34.6002 25.6879 34.4206C25.745 34.2818 25.8756 34.1431 25.9736 34.1023C26.1205 34.037 26.1123 34.0288 25.8919 34.0288C25.7532 34.0207 25.5981 34.0696 25.5573 34.1186Z" fill="#D11F1F"/>
<defs>
<clipPath id="clip0_3_179">
<rect width="14.2183" height="14.2183" fill="white" transform="translate(8.53101)"/>
</clipPath>
</defs>
</svg>
