<svg width="22" height="23" viewBox="0 0 22 23" fill="none" xmlns="http://www.w3.org/2000/svg">
<g clip-path="url(#clip0_122_559)">
<path d="M10.7839 22.5087C13.644 22.5087 16.3869 21.3726 18.4093 19.3502C20.4317 17.3278 21.5679 14.5849 21.5679 11.7248C21.5679 8.86471 20.4317 6.12178 18.4093 4.0994C16.3869 2.07702 13.644 0.940857 10.7839 0.940857C7.92385 0.940857 5.18092 2.07702 3.15854 4.0994C1.13616 6.12178 0 8.86471 0 11.7248C0 14.5849 1.13616 17.3278 3.15854 19.3502C5.18092 21.3726 7.92385 22.5087 10.7839 22.5087ZM9.77294 15.4318V12.7358H7.07695C6.51669 12.7358 6.06596 12.285 6.06596 11.7248C6.06596 11.1645 6.51669 10.7138 7.07695 10.7138H9.77294V8.01781C9.77294 7.45755 10.2237 7.00682 10.7839 7.00682C11.3442 7.00682 11.7949 7.45755 11.7949 8.01781V10.7138H14.4909C15.0512 10.7138 15.5019 11.1645 15.5019 11.7248C15.5019 12.285 15.0512 12.7358 14.4909 12.7358H11.7949V15.4318C11.7949 15.992 11.3442 16.4428 10.7839 16.4428C10.2237 16.4428 9.77294 15.992 9.77294 15.4318Z" fill="#777777"/>
</g>
<defs>
<clipPath id="clip0_122_559">
<rect width="21.5679" height="21.5679" fill="white" transform="translate(0 0.940857)"/>
</clipPath>
</defs>
</svg>
