<svg width="24" height="27" viewBox="0 0 24 27" fill="none" xmlns="http://www.w3.org/2000/svg">
<path opacity="0.4" d="M0 10.125H23.625V24.4688C23.625 25.8662 22.4912 27 21.0938 27H2.53125C1.13379 27 0 25.8662 0 24.4688V10.125ZM3.375 14.3438V16.0312C3.375 16.4953 3.75469 16.875 4.21875 16.875H5.90625C6.37031 16.875 6.75 16.4953 6.75 16.0312V14.3438C6.75 13.8797 6.37031 13.5 5.90625 13.5H4.21875C3.75469 13.5 3.375 13.8797 3.375 14.3438ZM10.9688 13.5C10.5047 13.5 10.125 13.8797 10.125 14.3438V16.0312C10.125 16.4953 10.5047 16.875 10.9688 16.875H12.6562C13.1203 16.875 13.5 16.4953 13.5 16.0312V14.3438C13.5 13.8797 13.1203 13.5 12.6562 13.5H10.9688ZM16.875 14.3438V16.0312C16.875 16.4953 17.2547 16.875 17.7188 16.875H19.4062C19.8703 16.875 20.25 16.4953 20.25 16.0312V14.3438C20.25 13.8797 19.8703 13.5 19.4062 13.5H17.7188C17.2547 13.5 16.875 13.8797 16.875 14.3438ZM4.21875 20.25C3.75469 20.25 3.375 20.6297 3.375 21.0938V22.7812C3.375 23.2453 3.75469 23.625 4.21875 23.625H5.90625C6.37031 23.625 6.75 23.2453 6.75 22.7812V21.0938C6.75 20.6297 6.37031 20.25 5.90625 20.25H4.21875ZM10.125 21.0938V22.7812C10.125 23.2453 10.5047 23.625 10.9688 23.625H12.6562C13.1203 23.625 13.5 23.2453 13.5 22.7812V21.0938C13.5 20.6297 13.1203 20.25 12.6562 20.25H10.9688C10.5047 20.25 10.125 20.6297 10.125 21.0938ZM17.7188 20.25C17.2547 20.25 16.875 20.6297 16.875 21.0938V22.7812C16.875 23.2453 17.2547 23.625 17.7188 23.625H19.4062C19.8703 23.625 20.25 23.2453 20.25 22.7812V21.0938C20.25 20.6297 19.8703 20.25 19.4062 20.25H17.7188Z" fill="#D11F1F"/>
<path d="M8.4375 1.6875C8.4375 0.754102 7.6834 0 6.75 0C5.8166 0 5.0625 0.754102 5.0625 1.6875V3.375H2.53125C1.13379 3.375 0 4.50879 0 5.90625V10.125H23.625V5.90625C23.625 4.50879 22.4912 3.375 21.0938 3.375H18.5625V1.6875C18.5625 0.754102 17.8084 0 16.875 0C15.9416 0 15.1875 0.754102 15.1875 1.6875V3.375H8.4375V1.6875Z" fill="#D11F1F"/>
</svg>
