<svg width="494" height="496" viewBox="0 0 494 496" fill="none" xmlns="http://www.w3.org/2000/svg">
<path opacity="0.4" d="M187.571 84.5714C187.571 59.9643 207.536 40 232.143 40H261.857C286.464 40 306.428 59.9643 306.428 84.5714V411.429C306.428 436.036 286.464 456 261.857 456H232.143C207.536 456 187.571 436.036 187.571 411.429V84.5714Z" fill="white"/>
<path d="M380.714 99.4286C356.107 99.4286 336.143 119.393 336.143 144V411.429C336.143 436.036 356.107 456 380.714 456H410.429C435.036 456 455 436.036 455 411.429V144C455 119.393 435.036 99.4286 410.429 99.4286H380.714ZM83.5714 218.286C58.9643 218.286 39 238.25 39 262.857V411.429C39 436.036 58.9643 456 83.5714 456H113.286C137.893 456 157.857 436.036 157.857 411.429V262.857C157.857 238.25 137.893 218.286 113.286 218.286H83.5714Z" fill="white"/>
</svg>
