<svg width="494" height="496" viewBox="0 0 494 496" fill="none" xmlns="http://www.w3.org/2000/svg">
<path d="M464.786 167.011C467.69 174.897 465.24 183.689 458.977 189.309L419.677 225.022C420.675 232.545 421.22 240.25 421.22 248.045C421.22 255.841 420.675 263.545 419.677 271.069L458.977 306.782C465.24 312.402 467.69 321.194 464.786 329.08C460.792 339.866 455.982 350.2 450.445 360.17L446.179 367.512C440.189 377.483 433.473 386.91 426.121 395.793C420.766 402.319 411.871 404.495 403.884 401.957L353.329 385.913C341.167 395.249 327.734 403.044 313.393 408.936L302.048 460.693C300.233 468.942 293.879 475.468 285.529 476.827C273.004 478.912 260.115 480 246.955 480C233.794 480 220.906 478.912 208.38 476.827C200.03 475.468 193.677 468.942 191.861 460.693L180.516 408.936C166.176 403.044 152.743 395.249 140.58 385.913L90.1162 402.047C82.129 404.585 73.2342 402.319 67.8792 395.884C60.5274 387.001 53.811 377.574 47.8206 367.603L43.5547 360.261C38.0182 350.29 33.2078 339.957 29.2142 329.171C26.3098 321.285 28.7604 312.492 35.023 306.872L74.3234 271.159C73.325 263.545 72.7804 255.841 72.7804 248.045C72.7804 240.25 73.325 232.545 74.3234 225.022L35.023 189.309C28.7604 183.689 26.3098 174.897 29.2142 167.011C33.2078 156.224 38.0182 145.891 43.5547 135.92L47.8206 128.578C53.811 118.608 60.5274 109.181 67.8792 100.298C73.2342 93.7714 82.129 91.596 90.1162 94.134L140.671 110.178C152.833 100.842 166.266 93.0463 180.607 87.1545L191.952 35.3975C193.768 27.1491 200.121 20.6228 208.471 19.2631C220.996 17.0877 233.885 16 247.045 16C260.206 16 273.094 17.0877 285.62 19.1725C293.97 20.5321 300.323 27.0584 302.139 35.3069L313.484 87.0639C327.824 92.9557 341.257 100.751 353.42 110.087L403.975 94.0434C411.962 91.5054 420.857 93.7714 426.212 100.207C433.563 109.09 440.28 118.517 446.27 128.488L450.536 135.83C456.073 145.8 460.883 156.134 464.877 166.92L464.786 167.011ZM247.045 320.559C266.303 320.559 284.772 312.92 298.389 299.321C312.006 285.722 319.656 267.277 319.656 248.045C319.656 228.813 312.006 210.369 298.389 196.77C284.772 183.171 266.303 175.531 247.045 175.531C227.788 175.531 209.319 183.171 195.702 196.77C182.085 210.369 174.435 228.813 174.435 248.045C174.435 267.277 182.085 285.722 195.702 299.321C209.319 312.92 227.788 320.559 247.045 320.559Z" fill="white"/>
</svg>
