<svg width="88" height="108" viewBox="0 0 88 108" fill="none" xmlns="http://www.w3.org/2000/svg">
<path d="M41.715 40.3517C41.7139 37.134 41.4574 33.9777 40.3303 30.9406C39.28 28.1098 36.2931 23.8029 34.963 23.2811C35.6375 24.1875 36.3678 25.0616 36.9699 26.0149C37.5731 26.9693 38.1015 27.9816 38.5687 29.0118C39.1261 30.2438 39.309 31.4524 39.1908 32.283C39.1473 32.1492 39.105 32.0489 39.0838 31.9452C38.6122 29.5994 37.7626 27.3862 36.2619 25.531C34.536 23.3959 32.6417 21.3969 30.8032 19.3543C29.8745 18.3219 28.9056 17.3263 27.9301 16.2861C30.6416 18.2472 33.3085 20.176 35.9754 22.106C36.0177 22.0536 33.7689 19.7089 32.4801 18.7512C29.9447 16.868 27.5889 14.7943 25.4382 12.4931C22.8873 9.76375 20.4132 6.96305 17.83 4.26605C16.8901 3.28603 15.8108 2.38629 14.6558 1.67943C13.4059 0.914587 12.0747 1.25798 11.1549 2.4097C10.6443 3.04855 10.2184 3.7844 9.8917 4.53698C8.74444 7.176 8.17583 9.97558 7.78449 12.8108C7.38089 15.7397 7.30173 18.6787 7.50464 21.6321C7.76554 25.4429 8.40327 29.1601 9.94633 32.6877C10.0433 32.9074 10.0132 33.2954 9.87609 33.4882C9.13243 34.5385 8.33861 35.5542 7.5615 36.581C6.93826 37.4038 6.31613 38.23 5.65275 39.1075C6.92934 38.6704 8.09109 38.2735 9.25173 37.8755L9.2417 37.8866C9.49813 37.7996 9.75456 37.7127 10.1849 37.5689C9.23501 38.579 6.18457 42.8302 5.49109 43.7834C7.2549 42.6841 7.61725 41.8669 9.46468 40.0473C12.9667 36.5989 17.2524 34.8362 22.1369 34.4894C22.5729 34.4593 23.0066 34.408 23.4425 34.3902C23.8729 34.3724 24.3032 34.3869 24.7347 34.3869C24.7291 34.3278 17.3126 32.9453 8.52368 36.9913C10.933 33.6332 17.4409 29.9528 20.1635 30.3798C17.8467 31.1658 15.7261 32.2574 13.8553 33.748C20.5493 32.5829 26.9077 33.2363 32.8413 36.7706C32.7454 36.6134 32.6339 36.4684 32.5046 36.3402C30.2892 34.1327 27.5922 32.914 24.5195 32.4826C23.4726 32.3343 22.4212 32.2194 21.3732 32.0879C24.7916 31.9229 28.1553 32.312 31.4956 32.9832C27.842 31.7311 24.0457 31.4892 20.2259 31.3799C25.1327 29.6941 30.0362 29.7209 34.9508 31.3688C34.8337 31.2417 34.7122 31.1558 34.5795 31.0923C32.6217 30.1847 30.5579 29.6183 28.4128 29.4868C26.7873 29.3875 25.1494 29.4611 23.5183 29.5158C22.0812 29.5648 20.644 29.6663 19.2125 29.8012C18.189 29.8971 17.1733 30.0877 16.1542 30.2371C18.3774 29.4054 20.6786 29.1356 23.0244 29.3251C23.7201 29.3808 24.3512 29.3474 24.9989 29.0698C26.3736 28.4822 27.8141 28.3116 29.2936 28.5692C30.1398 28.7175 30.9805 28.8936 31.8245 29.0575C29.0985 27.6739 26.1807 27.5368 23.2162 27.7107C27.483 26.9815 31.5045 27.6516 35.0634 30.1535C38.5977 32.6409 40.6146 36.2142 41.715 40.3517ZM23.7881 25.8075C22.3711 24.425 20.7143 23.5286 18.7331 23.2755C18.6271 23.2621 18.5246 23.2153 18.4108 23.1819C19.1679 22.7158 19.8569 22.6846 22.4993 23.0057C22.3465 22.3379 22.2462 21.699 22.0511 21.0892C21.3788 18.9897 20.2505 17.1211 19.0218 15.3116C18.0295 13.8488 17.0205 12.4005 16.0193 10.9445C18.3261 13.3081 20.8313 15.4811 22.5952 18.3119C23.5774 19.8895 24.3701 21.4983 24.3289 23.4361C24.3043 24.6045 24.7559 25.6157 25.902 26.2167C24.7871 26.5924 24.553 26.5545 23.7881 25.8075ZM27.4585 23.4216C27.0705 23.2588 26.6234 22.9377 26.4639 22.5731C25.2074 19.7145 23.176 17.4534 21.061 15.2246C19.2158 13.2791 17.4788 11.2276 15.7495 9.17618C15.2667 8.60311 14.9033 7.89402 14.6301 7.1905C14.3614 6.49925 14.2778 5.73552 14.0894 4.90044C13.8006 5.28955 13.5063 5.62849 13.2744 6.00533C12.0892 7.94084 11.5396 10.0949 11.2118 12.3058C10.7379 15.5101 10.9275 18.7066 11.4615 21.8897C11.4715 21.9476 11.5039 22.0034 11.5741 22.0647C11.5964 20.1247 11.9655 18.2784 12.9845 16.4399C12.7715 17.6596 12.5341 18.7222 12.4148 19.7981C12.2955 20.8762 12.2932 21.9677 12.3044 23.0759C12.6456 20.5083 14.1652 18.8705 16.2401 17.7879C15.6648 18.6787 14.9624 19.6108 14.4283 20.632C13.7137 22.0023 13.3558 23.5041 13.4639 25.0594C13.5854 26.802 14.2354 28.2793 15.9703 29.14C14.9234 29.6217 13.95 30.0922 12.9511 30.5014C12.8173 30.556 12.4928 30.3519 12.3657 30.1858C10.9531 28.3384 9.97978 26.2579 9.4435 24.0136C8.00413 17.9908 8.54598 12.1441 11.2653 6.5483C11.5864 5.88827 12.0101 5.25833 12.4839 4.69753C13.1094 3.95945 14.008 3.95053 14.639 4.69084C15.7283 5.96854 16.7396 7.31537 17.7999 8.61872C20.5281 11.9746 23.302 15.2927 25.9834 18.6854C27.1318 20.1381 28.0973 21.7336 29.1398 23.2677C29.268 23.4561 29.3583 23.6669 29.53 23.988C28.7428 23.7839 28.0683 23.678 27.4585 23.4216ZM32.8491 27.5234C35.6899 28.2236 37.2397 30.2271 38.0056 31.2383C36.7369 30.3676 34.0622 28.3573 32.8491 27.5234Z" fill="#262626"/>
<path d="M34.973 50.7518C35.8627 52.1031 36.3633 53.5157 36.4536 55.0744C36.69 53.6863 36.4547 52.3696 35.9485 51.0963C35.6954 50.4631 35.6363 49.8443 35.6074 49.1463C35.3844 43.7802 32.1634 40.9784 31.9772 40.9193C33.3619 42.672 33.9484 44.5651 34.0019 46.7046C32.4465 43.6665 28.4841 39.9437 26.0346 39.2324C26.6913 39.7821 27.3458 40.2481 27.8977 40.8145C28.4518 41.382 29.3047 42.7433 29.2567 42.779C26.271 40.9717 21.1802 40.3942 19.1923 40.7543C21.6708 41.0743 23.9029 41.6975 26.0212 42.7166C28.1519 43.7434 30.074 45.0323 31.4487 47.0347C31.4944 47.0001 31.0574 45.2876 30.7942 44.4648C32.6261 46.5552 33.5336 49.0939 34.4378 51.7553C34.6508 51.355 34.799 51.0774 34.973 50.7518Z" fill="#262626"/>
<path d="M42.3538 29.7097C42.6135 26.2379 41.4295 23.3703 38.7035 21.1794C36.9977 19.8081 34.9841 19.0053 32.9962 18.1602C32.9505 18.1413 32.8858 18.168 32.6015 18.1926C37.5629 22.3278 41.0861 27.1766 42.0126 33.5941C42.1274 32.2986 42.2568 31.0053 42.3538 29.7097Z" fill="#262626"/>
<path d="M33.4388 61.8519C33.5882 59.5005 32.6751 58.0868 30.4943 57.2729C30.23 57.1737 29.9602 57.0878 29.6893 57.0053C27.0135 56.1914 24.5094 55.1334 23.1291 52.229C23.1637 52.5468 23.1648 52.6772 23.1926 52.8032C23.6241 54.6807 24.8416 55.9908 26.3278 57.0901C27.9366 58.2808 29.6826 59.3378 30.288 61.4483C30.1342 59.8986 29.2366 58.7792 28.1329 57.7267C31.4041 58.1214 32.8836 58.4458 33.4388 61.8519Z" fill="#262626"/>
<path d="M6.55798 68.2148C6.55798 68.2114 6.55798 68.2081 6.55798 68.2036C6.55575 68.2103 6.55352 68.2159 6.55017 68.2215L6.55798 68.2148Z" fill="#262626"/>
<path d="M8.29845 59.1406C8.0933 59.3669 7.92941 59.6847 7.87366 59.9857C7.41765 62.4441 6.98841 64.9081 6.56474 67.3721C6.51791 67.6419 6.55693 67.9262 6.55805 68.2038C8.06877 64.9382 8.69313 61.4218 9.51817 58.0134C9.11234 58.3802 8.67083 58.7292 8.29845 59.1406Z" fill="#262626"/>
<path d="M30.5277 12.3503C32.7854 15.0685 36.0254 16.4421 38.8116 18.4345C36.2016 16.1968 33.5938 13.9569 30.5277 12.3503Z" fill="#262626"/>
<path d="M30.6158 82.7612C31.1331 85.3289 33.8424 87.7539 36.4602 88.0393C34.0063 86.9054 32.2469 84.9889 30.6158 82.7612Z" fill="#262626"/>
<path d="M36.1113 18.5785C36.5417 18.8037 37.4715 19.1181 37.4949 19.0702C35.1703 17.6052 32.8423 16.1435 30.2657 15.1289L30.278 15.1367C31.4074 16.4679 34.2025 17.584 36.1113 18.5785Z" fill="#262626"/>
<path d="M9.45241 19.3812C9.67762 15.6172 10.1381 11.8945 11.398 8.31445C9.59623 11.7997 9.13912 15.5213 9.45241 19.3812Z" fill="#262626"/>
<path d="M37.5886 13.0973C35.8806 12.9123 32.2348 12.6514 32.2203 12.7171C35.3488 13.822 38.737 14.4731 40.7249 17.5637C40.4094 17.3307 39.7404 16.926 39.7215 16.9561C40.3771 17.6696 41.0326 18.3821 41.8176 19.2361C41.5522 17.7165 41.1798 16.4388 40.4317 15.3249C39.688 14.2167 38.8407 13.1798 37.9922 12.0493C40.7316 13.8789 42.7463 16.1801 43.6438 19.4089C43.6471 19.3967 43.6516 19.3844 43.6561 19.371C43.6594 19.3844 43.6639 19.3967 43.6683 19.4089C44.5658 16.1801 46.5816 13.8789 49.3199 12.0493C48.4714 13.1798 47.6241 14.2156 46.8804 15.3249C46.1323 16.4388 45.7599 17.7165 45.4946 19.2361C46.2795 18.3821 46.9351 17.6696 47.5906 16.9561C47.5717 16.926 46.9027 17.3307 46.5872 17.5637C48.5751 14.4743 51.9634 13.8231 55.0918 12.7171C55.0774 12.6502 51.4315 12.9123 49.7235 13.0973C50.6578 11.9456 52.1429 11.0057 52.8932 9.41919C51.9277 9.49054 46.9384 12.5711 45.4031 14.0662C45.7778 12.5443 46.12 11.1574 46.4857 9.67005C45.7543 10.0469 44.7308 11.3313 43.6549 13.1297C42.5802 11.3324 41.5567 10.0469 40.8242 9.67005C41.191 11.1574 41.5321 12.5443 41.9079 14.0662C40.3726 12.5711 35.3822 9.49054 34.4167 9.41919C35.1693 11.0057 36.6543 11.9445 37.5886 13.0973Z" fill="#262626"/>
<path d="M79.8063 21.6311C80.0092 18.6777 79.9301 15.7388 79.5265 12.8099C79.1351 9.9746 78.5665 7.17503 77.4192 4.536C77.0926 3.78343 76.6656 3.04758 76.156 2.40872C75.2373 1.25701 73.905 0.91361 72.6552 1.67845C71.499 2.38643 70.4209 3.28506 69.481 4.26507C66.8988 6.96208 64.4237 9.76277 61.8727 12.4921C59.722 14.7933 57.3662 16.8671 54.8309 18.7502C53.5431 19.7068 51.2932 22.0526 51.3356 22.105C54.0025 20.1762 56.6694 18.2462 59.3809 16.2851C58.4053 17.3253 57.4365 18.3209 56.5077 19.3534C54.6692 21.3959 52.7749 23.395 51.049 25.53C49.5484 27.3853 48.6988 29.5984 48.2272 31.9442C48.206 32.0479 48.1625 32.1482 48.1201 32.282C48.002 31.4525 48.1848 30.2439 48.7423 29.0108C49.2083 27.9806 49.7379 26.9694 50.3411 26.0139C50.9442 25.0607 51.6734 24.1866 52.3479 23.2801C51.0167 23.8019 48.0309 28.1089 46.9807 30.9397C45.8535 33.9778 45.5971 37.1342 45.5959 40.3507C46.6964 36.2132 48.7133 32.6399 52.2509 30.1536C55.8098 27.6517 59.8313 26.9806 64.0981 27.7108C61.1335 27.5369 58.2158 27.674 55.4898 29.0577C56.3327 28.8938 57.1744 28.7165 58.0207 28.5693C59.4991 28.3129 60.9395 28.4824 62.3154 29.0699C62.9631 29.3464 63.5942 29.3799 64.2899 29.3252C66.6357 29.1357 68.9369 29.4055 71.1601 30.2372C70.141 30.0878 69.1253 29.8972 68.1018 29.8013C66.6703 29.6664 65.2331 29.565 63.796 29.5159C62.1649 29.4601 60.5259 29.3877 58.9015 29.4869C56.7563 29.6185 54.6926 30.1848 52.7348 31.0924C52.601 31.1559 52.4795 31.2418 52.3624 31.3689C57.277 29.7199 62.1793 29.6943 67.0872 31.38C63.2675 31.4893 59.4712 31.7301 55.8176 32.9833C59.1579 32.3121 62.5216 31.923 65.94 32.088C64.892 32.2185 63.8406 32.3344 62.7937 32.4827C59.7209 32.9142 57.0239 34.1317 54.8086 36.3403C54.6792 36.4686 54.5677 36.6135 54.4719 36.7707C60.4055 33.2364 66.7639 32.5831 73.4579 33.7481C71.5871 32.2564 69.4665 31.166 67.1497 30.38C69.8734 29.9518 76.3813 33.6333 78.7895 36.9915C70.0005 32.9454 62.5841 34.3279 62.5785 34.387C63.0088 34.387 63.4403 34.3725 63.8707 34.3903C64.3066 34.4082 64.7414 34.4595 65.1763 34.4896C70.0607 34.8374 74.3465 36.6001 77.8485 40.0475C79.6959 41.867 80.0583 42.6832 81.8221 43.7836C81.1275 42.8303 78.0771 38.5791 77.1283 37.569C77.5586 37.7128 77.815 37.7998 78.0715 37.8868L78.0614 37.8756C79.2232 38.2736 80.3838 38.6717 81.6604 39.1076C80.997 38.2301 80.3738 37.4051 79.7517 36.5812C78.9746 35.5532 78.1796 34.5386 77.4371 33.4884C77.3 33.2955 77.2698 32.9075 77.3668 32.6879C78.9077 29.1591 79.5443 25.442 79.8063 21.6311ZM49.3053 31.2385C50.0713 30.2272 51.6221 28.2237 54.4618 27.5235C53.2499 28.3575 50.5752 30.3677 49.3053 31.2385ZM68.579 23.2757C66.5978 23.5299 64.941 24.4251 63.5239 25.8077C62.7591 26.5547 62.525 26.5926 61.41 26.2168C62.5562 25.6159 63.0077 24.6046 62.9832 23.4362C62.9408 21.4996 63.7335 19.8896 64.7169 18.312C66.4818 15.4812 68.9871 13.3082 71.2927 10.9446C70.2915 12.4007 69.2814 13.849 68.2902 15.3118C67.0616 17.1213 65.9322 18.9899 65.261 21.0893C65.0659 21.6992 64.9655 22.338 64.8128 23.0058C67.4563 22.6847 68.1453 22.716 68.9012 23.182C68.7875 23.2155 68.6849 23.2623 68.579 23.2757ZM74.9452 30.1871C74.8181 30.3532 74.4937 30.5572 74.3599 30.5026C73.3609 30.0934 72.3876 29.6229 71.3407 29.1413C73.0744 28.2806 73.7244 26.8022 73.847 25.0607C73.9563 23.5053 73.5973 22.0046 72.8826 20.6333C72.3497 19.612 71.6473 18.6799 71.0709 17.7891C73.1457 18.8717 74.6654 20.5095 75.0066 23.0772C75.0177 21.969 75.0155 20.8763 74.8962 19.7993C74.7769 18.7234 74.5394 17.6609 74.3265 16.4412C75.3466 18.2786 75.7156 20.126 75.7368 22.066C75.8071 22.0035 75.8394 21.9489 75.8494 21.8909C76.3835 18.7089 76.5741 15.5113 76.0992 12.307C75.7714 10.0961 75.2228 7.9421 74.0366 6.00659C73.8047 5.62974 73.5103 5.28969 73.2216 4.9017C73.0331 5.73678 72.9484 6.5005 72.6808 7.19175C72.4077 7.89527 72.0442 8.60548 71.5614 9.17743C69.8322 11.2289 68.0962 13.2804 66.2499 15.2259C64.1349 17.4546 62.1035 19.7146 60.847 22.5744C60.6865 22.939 60.2405 23.2589 59.8525 23.4228C59.2426 23.6781 58.5681 23.7841 57.7787 23.9903C57.9504 23.6703 58.0407 23.4585 58.169 23.2701C59.2114 21.7359 60.1769 20.1394 61.3253 18.6877C64.0067 15.295 66.7806 11.9759 69.5089 8.62109C70.5703 7.31774 71.5804 5.97091 72.6697 4.69321C73.3007 3.9529 74.2005 3.96182 74.8248 4.6999C75.2987 5.2607 75.7235 5.89064 76.0434 6.55067C78.7616 12.1476 79.3035 17.9931 77.8652 24.016C77.3323 26.2581 76.3578 28.3396 74.9452 30.1871Z" fill="#262626"/>
<path d="M55.8634 47.0347C57.2381 45.0323 59.1613 43.7434 61.2908 42.7166C63.408 41.6975 65.6412 41.0743 68.1197 40.7543C66.1318 40.3953 61.0411 40.9717 58.0553 42.779C58.0074 42.7444 58.8603 41.382 59.4144 40.8145C59.9663 40.2481 60.6207 39.7821 61.2774 39.2324C58.8279 39.9437 54.8655 43.6676 53.3102 46.7046C53.3637 44.564 53.9501 42.672 55.3349 40.9193C55.1487 40.9784 51.9277 43.7802 51.7047 49.1463C51.6757 49.8443 51.6166 50.4631 51.3635 51.0963C50.8562 52.3696 50.6221 53.6863 50.8585 55.0744C50.9499 53.5146 51.4494 52.102 52.3391 50.7518C52.513 51.0774 52.6613 51.355 52.8742 51.7553C53.7784 49.0939 54.686 46.5552 56.5178 44.4648C56.2547 45.2876 55.8188 47.0001 55.8634 47.0347Z" fill="#262626"/>
<path d="M54.7117 18.1926C54.4274 18.168 54.3627 18.1413 54.317 18.1602C52.3291 19.0053 50.3155 19.8081 48.6097 21.1794C45.8837 23.3714 44.6985 26.2379 44.9594 29.7097C45.0564 31.0053 45.1858 32.2986 45.3006 33.5941C46.2271 27.1766 49.7491 22.3278 54.7117 18.1926Z" fill="#262626"/>
<path d="M57.0239 61.4473C57.6293 59.3357 59.3753 58.2798 60.9842 57.0891C62.4692 55.9898 63.6878 54.6798 64.1193 52.8022C64.1472 52.6773 64.1483 52.5469 64.1829 52.228C62.8026 55.1324 60.2985 56.1894 57.6227 57.0044C57.3517 57.0869 57.0819 57.1727 56.8177 57.2719C54.6369 58.0858 53.7238 59.4996 53.8732 61.8509C54.4284 58.4448 55.9079 58.1204 59.178 57.7257C58.0753 58.7793 57.1778 59.8987 57.0239 61.4473Z" fill="#262626"/>
<path d="M80.7619 68.2215C80.7597 68.2159 80.7574 68.2103 80.7541 68.2036C80.7541 68.2081 80.7541 68.2114 80.7541 68.2148L80.7619 68.2215Z" fill="#262626"/>
<path d="M80.7484 67.3721C80.3247 64.9081 79.8944 62.4441 79.4395 59.9857C79.3837 59.6847 79.2199 59.3669 79.0147 59.1406C78.6423 58.7292 78.2008 58.3802 77.795 58.0134C78.62 61.4218 79.2444 64.9382 80.7551 68.2038C80.7551 67.9262 80.7952 67.6419 80.7484 67.3721Z" fill="#262626"/>
<path d="M56.7842 12.3503C53.7182 13.9569 51.1103 16.1968 48.5003 18.4345C51.2865 16.4421 54.5265 15.0674 56.7842 12.3503Z" fill="#262626"/>
<path d="M56.6961 82.7612C55.065 84.9889 53.3056 86.9065 50.8517 88.0393C53.4695 87.7528 56.1788 85.3278 56.6961 82.7612Z" fill="#262626"/>
<path d="M51.2007 18.5785C53.1083 17.584 55.9046 16.4679 57.0329 15.1367L57.0451 15.1289C54.4686 16.1435 52.1406 17.6052 49.816 19.0702C49.8405 19.1181 50.7704 18.8037 51.2007 18.5785Z" fill="#262626"/>
<path d="M75.9141 8.31543C77.174 11.8955 77.6345 15.6182 77.8597 19.3822C78.173 15.5212 77.7158 11.7996 75.9141 8.31543Z" fill="#262626"/>
<path d="M87.312 67.5047C86.6007 63.0249 84.4455 59.0558 82.8724 54.6819C84.3218 55.6184 85.6117 56.5684 87.3042 56.5227C86.0588 55.6251 85.4367 54.2883 84.7577 53.0106C83.48 50.6069 82.258 48.1719 81.0138 45.7503C81.0907 45.6834 84.0531 47.688 85.6195 48.881C85.5538 48.4729 85.546 48.1886 85.4601 47.931C84.6273 45.4459 83.3373 43.1993 81.8589 41.052C81.773 40.9282 81.6827 40.8067 81.6604 40.5948C82.0038 40.8189 82.3584 41.0285 82.6884 41.2716C83.0563 41.5436 83.412 41.8346 83.7554 42.1379C84.0754 42.4211 84.3719 42.7321 84.7956 42.9696C84.547 42.3553 84.324 41.7287 84.0453 41.1278C82.9593 38.792 81.443 36.7372 79.8431 34.7393C79.6525 34.5007 79.4919 34.2308 79.2723 34.0224C78.6524 33.4337 78.6591 32.855 78.9835 32.0601C80.0929 29.3374 80.6258 26.4609 80.967 23.551C81.2936 20.767 81.3561 17.973 81.1052 15.179C80.7718 11.4741 80.1319 7.82942 78.7315 4.36089C78.3993 3.53808 77.9745 2.72975 77.4627 2.00728C75.9052 -0.193578 73.449 -0.645123 71.2861 0.95368C70.0831 1.84339 68.996 2.91372 67.9647 4.003C65.6825 6.41347 63.4782 8.89975 61.2205 11.3325C60.1045 12.5377 58.7532 13.3873 57.1076 13.8032C57.6427 13.0896 58.1835 12.4185 58.6674 11.7105C59.1579 10.9913 59.5637 10.2232 59.5916 9.13946C58.2671 11.1441 56.3171 11.1151 54.3002 11.1653C55.0004 10.0314 55.8878 9.02685 56.0339 7.66107C54.1642 9.23088 52.1896 10.6591 50.6811 12.6102C51.8295 12.4385 52.5063 11.5031 53.4428 10.9679C53.0269 11.3905 52.6111 11.8142 52.0793 12.3549C53.9523 12.2178 55.6905 12.0907 57.5658 11.9524C56.5847 12.9893 55.6381 13.986 54.5789 15.1032C55.6013 14.9404 56.4843 14.801 57.3673 14.6617L57.3551 14.6684C59.9975 14.0507 61.7323 12.1642 63.4693 10.2867C65.7237 7.85172 67.9524 5.38997 70.2235 2.96946C70.7264 2.43541 71.3184 1.95711 71.9439 1.57246C73.8392 0.408481 75.6365 0.837727 76.864 2.69519C77.9511 4.34082 78.5331 6.19494 78.9947 8.08251C80.8031 15.4756 80.8164 22.8519 78.6836 30.1904C78.4584 30.9619 78.1696 31.7245 77.8195 32.447C77.5609 32.9799 77.6289 33.3623 77.9778 33.8083C79.0694 35.1997 80.1408 36.6068 81.1966 38.0238C81.6381 38.6181 82.0217 39.2558 82.4699 39.9337C80.9603 39.2268 77.9912 38.1342 78.0347 38.1788C78.2655 38.4085 78.5398 38.5947 78.7683 38.8254C80.8309 40.9115 83.7375 46.0769 83.7454 46.1427C83.7097 46.1594 79.8755 43.6497 78.1239 42.8526C76.4917 42.11 74.7067 41.7042 72.9863 41.1579C72.8258 41.1066 72.6463 41.1189 72.4712 41.101C72.4768 41.1735 77.2554 44.7858 78.9545 47.2833C79.9981 48.8163 82.5557 52.849 83.0875 52.8256C81.9146 50.637 80.3381 47.3301 79.6837 45.0746C81.2256 48.1574 82.8322 51.3695 84.4734 54.6496C84.1869 54.4088 80.9357 51.9147 79.5555 50.9246C78.7048 50.3148 77.8117 49.7651 76.9309 49.1965C76.7381 49.0727 76.5206 48.9869 76.2675 48.8575C76.6544 49.2846 76.9934 49.6614 77.3356 50.036C78.7148 51.5434 79.5098 53.3931 80.4162 55.187C81.5779 57.4826 82.8166 59.7392 84.0341 62.007C84.1958 62.3069 84.4299 62.5667 84.7477 62.7818C83.4309 59.4672 82.1131 56.1536 80.7964 52.8378C80.8878 52.8021 83.6773 58.7034 85.4255 63.6303C83.7286 62.3437 80.1341 59.8139 80.0616 59.8563C80.7495 63.6481 82.025 71.2698 81.9749 71.2898C81.8087 70.9498 78.9367 66.5146 77.5754 64.5022C78.3212 67.1546 79.0549 69.3978 79.7651 71.9231C79.8275 71.9164 80.0929 70.3399 80.0929 69.4536C80.1486 69.4547 80.4206 71.5529 80.0962 73.4818C80.0628 73.4929 79.7628 72.8697 79.667 72.5408C79.2634 71.1471 78.4651 70.0567 77.2821 69.1982C76.6433 68.7344 76.1237 68.1067 75.496 67.5002C75.496 68.323 75.496 69.1358 75.496 69.9475C74.6297 66.6986 73.3152 63.695 71.2905 61.0058C73.4836 65.0273 74.5439 69.332 74.6019 73.8954C73.944 70.2463 72.9774 66.7008 71.2548 63.6169C71.9149 66.363 72.6195 69.2963 73.323 72.2297C73.2662 72.2431 72.0665 71.0145 71.4087 70.2563C71.4087 71.2597 71.3886 72.0558 71.412 72.8507C71.4834 75.2801 71.2515 77.6561 70.1288 79.8569C69.7107 80.6753 69.19 81.4423 68.6359 82.1938C69.6282 78.7331 69.6393 75.308 68.6783 71.796C68.1643 73.4728 67.075 76.6214 67.0192 76.6047C67.2289 75.4452 67.4608 74.289 67.6469 73.125C68.3717 68.5806 65.3502 64.2413 60.8336 63.3293C60.7143 63.3059 60.5839 63.3259 60.3687 63.3259C60.4802 63.5088 60.5304 63.6515 60.6285 63.7396C62.952 65.839 63.4493 68.4055 62.5562 71.3155C61.6732 74.1931 60.2561 76.812 58.6306 79.382C58.0218 74.3001 57.5613 69.2874 59.6942 64.4308C59.1679 64.9091 58.3808 66.5403 57.9014 68.41C57.5413 69.8126 57.3216 71.2519 57.0228 72.7537C56.5902 71.825 56.1432 70.9364 55.7552 70.0233C54.4295 66.9037 53.2366 63.7373 52.8608 60.3368C52.7794 59.6032 52.7371 58.845 52.8285 58.1181C53.0626 56.2339 54.3994 55.0409 56.4197 54.9718C58.6885 54.8937 60.255 53.8256 61.2484 51.8377C61.5416 51.2535 61.8638 50.6726 62.0668 50.0561C62.3165 49.2968 62.8505 48.9735 63.5529 49.0694C64.5564 49.2043 65.5921 49.3526 66.5242 49.7205C68.6537 50.5634 70.1154 52.1845 71.3307 54.2516C69.3651 53.4566 67.4976 52.9928 65.5041 53.6205C71.091 54.3976 73.5561 58.1928 74.8215 63.1776C76.1215 58.7737 76.398 51.8344 69.3104 47.6936C71.3017 47.4906 73.1681 47.6646 75.0779 48.0269C74.681 47.4873 73.2216 46.7927 71.5938 46.5262C70.3529 46.3233 69.0741 46.2141 67.8209 46.2709C66.5599 46.3311 65.3112 46.6478 64.1238 46.8418C65.4193 46.0357 66.5688 44.9553 67.3102 43.4713C65.0681 45.8863 61.9542 46.563 59.0687 47.688C56.8779 48.5409 54.8822 49.6636 53.5242 51.6761C52.6122 53.0285 51.9577 54.4935 51.5608 56.0767C51.5251 56.2194 51.475 56.3588 51.4081 56.5739C49.2975 54.7811 47.8091 52.6527 47.013 50.0605C46.2003 47.4104 46.5002 44.8583 47.7812 42.4021C45.5313 44.6989 44.3082 49.3414 47.6118 54.5292C47.2093 54.0743 46.8057 53.6194 46.3251 53.0764C46.2649 54.0486 46.4344 54.9105 46.9461 55.6385C47.469 56.3799 48.0678 57.0868 48.7245 57.7123C49.3633 58.3199 50.1181 58.8049 50.9666 59.456C50.1638 59.378 48.9006 59.3691 48.8839 59.4259C49.8594 60.145 50.835 60.8653 51.2486 62.0794C50.4715 60.979 49.2919 60.4673 48.1592 59.8641C47.178 59.3412 46.2605 58.6979 45.4154 58.1694C45.6205 58.7659 46.1601 59.3479 46.8046 59.7727C48.7624 61.0671 49.9865 62.8733 50.8618 65.0184C52.0369 67.8982 53.5811 70.6041 55.4051 73.1127C56.4932 74.6101 56.5401 76.1609 56.3416 77.8266C56.054 80.2416 55.084 82.3532 53.445 84.1549C53.3636 84.2453 53.2979 84.3501 53.1819 84.5039C55.2891 83.5217 56.9214 80.2092 57.0028 76.8667C57.5881 77.888 57.82 80.7277 57.5468 82.322C56.8188 86.5688 54.0003 88.3894 50.2307 89.0918C48.0945 89.4887 45.9695 89.3527 43.9381 88.4619C43.8578 88.4273 43.7552 88.4151 43.656 88.4218C43.5568 88.4151 43.4531 88.4273 43.3739 88.4619C41.3425 89.3538 39.2175 89.4899 37.0813 89.0918C33.3128 88.3894 30.4932 86.5676 29.7652 82.322C29.492 80.7277 29.7239 77.888 30.3092 76.8667C30.3906 80.2092 32.0229 83.5217 34.1301 84.5039C34.0141 84.3489 33.9483 84.2453 33.867 84.1549C32.228 82.3532 31.258 80.2416 30.9704 77.8266C30.7719 76.1621 30.8188 74.6101 31.9069 73.1127C33.7309 70.6041 35.2751 67.8982 36.4502 65.0184C37.3255 62.8733 38.5496 61.0671 40.5075 59.7727C41.1519 59.3479 41.6915 58.767 41.8967 58.1694C41.0504 58.6979 40.1339 59.3412 39.1528 59.8641C38.0201 60.4673 36.8405 60.979 36.0634 62.0794C36.477 60.8653 37.4526 60.145 38.4281 59.4259C38.4103 59.3691 37.1482 59.378 36.3454 59.456C37.1939 58.8049 37.9487 58.3188 38.5876 57.7123C39.2442 57.0857 39.843 56.3799 40.3659 55.6385C40.8776 54.9105 41.0471 54.0486 40.9869 53.0764C40.5063 53.6183 40.1039 54.0743 39.7002 54.5292C43.0038 49.3414 41.7807 44.6989 39.5308 42.4021C40.8118 44.8583 41.1117 47.4104 40.299 50.0605C39.5029 52.6527 38.0145 54.7811 35.9039 56.5739C35.837 56.3588 35.7869 56.2194 35.7512 56.0767C35.3543 54.4946 34.6998 53.0285 33.7878 51.6761C32.4309 49.6636 30.4352 48.5398 28.2433 47.688C25.3579 46.563 22.2439 45.8863 20.0018 43.4713C20.7432 44.9553 21.8927 46.0368 23.1882 46.8418C22.0008 46.6478 20.751 46.3311 19.4911 46.2709C18.2379 46.2129 16.9591 46.3233 15.7182 46.5262C14.0904 46.7916 12.631 47.4862 12.2341 48.0269C14.1439 47.6646 16.0103 47.4918 18.0016 47.6936C10.914 51.8344 11.1905 58.7737 12.4905 63.1776C13.7559 58.1928 16.221 54.3976 21.8079 53.6205C19.8133 52.9928 17.9469 53.4577 15.9813 54.2516C17.1955 52.1845 18.6583 50.5623 20.7878 49.7205C21.7199 49.3526 22.7556 49.2043 23.759 49.0694C24.4603 48.9735 24.9944 49.2968 25.2452 50.0561C25.4493 50.6726 25.7715 51.2524 26.0636 51.8377C27.057 53.8256 28.6235 54.8937 30.8923 54.9718C32.9126 55.042 34.2483 56.2339 34.4835 58.1181C34.5749 58.845 34.5315 59.6032 34.4512 60.3368C34.0755 63.7384 32.8825 66.9048 31.5568 70.0233C31.1688 70.9364 30.7218 71.825 30.2892 72.7537C29.9904 71.2519 29.7707 69.8126 29.4106 68.41C28.9301 66.5391 28.1441 64.908 27.6178 64.4308C29.7507 69.2874 29.2902 74.3012 28.6814 79.382C27.057 76.8109 25.6399 74.1931 24.7558 71.3155C23.8616 68.4055 24.36 65.839 26.6835 63.7396C26.7816 63.6515 26.8318 63.5088 26.9433 63.3259C26.727 63.3259 26.5976 63.3047 26.4783 63.3293C21.9618 64.2413 18.9392 68.5806 19.665 73.125C19.8512 74.289 20.082 75.4452 20.2927 76.6047C20.237 76.6225 19.1488 73.4728 18.6337 71.796C17.6716 75.308 17.6838 78.7342 18.6761 82.1938C18.122 81.4423 17.6013 80.6764 17.1832 79.8569C16.0605 77.6549 15.8286 75.2801 15.8999 72.8507C15.9234 72.0558 15.9033 71.2597 15.9033 70.2563C15.2466 71.0145 14.0458 72.242 13.989 72.2297C14.6936 69.2963 15.3982 66.363 16.0571 63.6169C14.3346 66.7008 13.368 70.2451 12.7113 73.8954C12.7681 69.332 13.8284 65.0284 16.0215 61.0058C13.9968 63.6939 12.6823 66.6975 11.816 69.9475C11.816 69.1347 11.816 68.323 11.816 67.5002C11.1883 68.1078 10.6687 68.7344 10.0299 69.1982C8.84693 70.0578 8.04976 71.1471 7.64504 72.5408C7.54916 72.8697 7.25036 73.4929 7.21579 73.4818C6.89135 71.5529 7.16339 69.4547 7.21914 69.4536C7.21914 70.3399 7.48449 71.9164 7.54693 71.9231C8.25714 69.3967 8.99075 67.1546 9.73664 64.5022C8.37532 66.5146 5.50438 70.9498 5.33715 71.2898C5.28697 71.2698 6.56245 63.6481 7.25036 59.8563C7.17789 59.8139 3.58337 62.3426 1.88645 63.6303C3.63466 58.7034 6.4242 52.8021 6.51562 52.8378C5.19778 56.1536 3.88105 59.4683 2.56433 62.7818C2.88208 62.5667 3.11733 62.3058 3.27788 62.007C4.49538 59.7392 5.73517 57.4815 6.89581 55.187C7.80224 53.3931 8.59719 51.5434 9.97635 50.036C10.3186 49.6614 10.6576 49.2846 11.0444 48.8575C10.7914 48.9858 10.5739 49.0716 10.3811 49.1965C9.50028 49.7651 8.60611 50.3148 7.75653 50.9246C6.37626 51.9158 3.12513 54.4088 2.8386 54.6496C4.47977 51.3684 6.08638 48.1563 7.62832 45.0746C6.97497 47.3301 5.39847 50.637 4.22445 52.8256C4.75627 52.849 7.31391 48.8163 8.35748 47.2833C10.0566 44.7858 14.8352 41.1746 14.8408 41.101C14.6657 41.1189 14.4862 41.1066 14.3257 41.1579C12.6053 41.7031 10.8203 42.11 9.1881 42.8526C7.43543 43.6497 3.60232 46.1594 3.56665 46.1427C3.57556 46.0769 6.48217 40.9126 8.54367 38.8254C8.77223 38.5947 9.04762 38.4085 9.27729 38.1788C9.32189 38.1342 6.35284 39.2268 4.84212 39.9337C5.29032 39.2569 5.67385 38.6181 6.11536 38.0238C7.1712 36.6068 8.24264 35.1997 9.33415 33.8083C9.68312 33.3634 9.75225 32.9799 9.49247 32.447C9.14238 31.7245 8.8525 30.9619 8.6284 30.1904C6.49555 22.8519 6.51005 15.4756 8.31734 8.08251C8.77892 6.19494 9.36091 4.34082 10.4491 2.69519C11.6766 0.837727 13.4728 0.408481 15.3681 1.57246C15.9936 1.95711 16.5867 2.43541 17.0885 2.96946C19.3607 5.38997 21.5883 7.85172 23.8427 10.2867C25.5797 12.1642 27.3145 14.0507 29.9569 14.6684L29.9447 14.6617C30.8277 14.801 31.7096 14.9415 32.7331 15.1032C31.6739 13.986 30.7284 12.9893 29.7462 11.9524C31.6215 12.0907 33.3597 12.2178 35.2327 12.3549C34.7009 11.8142 34.2851 11.3905 33.8692 10.9679C34.8057 11.502 35.4825 12.4374 36.6309 12.6102C35.1224 10.6591 33.1478 9.23088 31.2781 7.66107C31.4242 9.02685 32.3116 10.0314 33.0118 11.1653C30.9949 11.1151 29.0438 11.143 27.7204 9.13946C27.7483 10.2232 28.1541 10.9913 28.6446 11.7105C29.1296 12.4185 29.6693 13.0896 30.2055 13.8032C28.5588 13.3873 27.2086 12.5377 26.0915 11.3325C23.8337 8.89863 21.6307 6.41347 19.3473 4.003C18.3149 2.9126 17.2278 1.84227 16.0259 0.95368C13.863 -0.645123 11.4068 -0.192463 9.84925 2.00728C9.3375 2.72975 8.91383 3.53808 8.58046 4.36089C7.18012 7.82942 6.54015 11.4741 6.20679 15.179C5.95593 17.973 6.01836 20.767 6.34504 23.551C6.6862 26.4598 7.21914 29.3363 8.32849 32.0601C8.65405 32.855 8.65962 33.4326 8.03972 34.0224C7.82008 34.2308 7.66065 34.5007 7.46888 34.7393C5.87008 36.7383 4.35267 38.7931 3.26673 41.1278C2.988 41.7287 2.76501 42.3564 2.51639 42.9696C2.94006 42.7321 3.23663 42.4211 3.55661 42.1379C3.90001 41.8346 4.25567 41.5436 4.62359 41.2716C4.95361 41.0274 5.30816 40.8189 5.65155 40.5948C5.62814 40.8067 5.53895 40.9282 5.4531 41.052C3.97359 43.1993 2.68362 45.4459 1.85189 47.931C1.76604 48.1875 1.75824 48.4718 1.69246 48.881C3.25893 47.6891 6.22128 45.6845 6.29821 45.7503C5.05395 48.1719 3.83311 50.6057 2.55429 53.0106C1.8753 54.2883 1.25318 55.6251 0.00780444 56.5227C1.70026 56.5684 2.99023 55.6173 4.43963 54.6819C2.86647 59.0558 0.711322 63.0249 0 67.5047C1.49734 65.0942 3.59675 63.3304 5.97711 61.6156C5.326 65.7241 4.40507 69.613 4.04383 73.6379C4.49761 73.426 4.85884 73.1663 5.18552 72.8686C5.50773 72.5742 5.79315 72.2409 6.15327 71.8629C6.56802 75.8967 7.42763 77.9448 8.81683 78.3105C7.47 76.1074 7.96725 71.9398 9.70765 70.8483C9.99196 75.3537 10.1469 76.0093 11.147 78.3585C12.0858 80.5627 14.4539 83.9063 15.7784 84.3601C15.532 83.7658 15.2433 83.2017 15.066 82.6052C14.8887 82.0109 14.8229 81.3832 14.7092 80.77C17.3215 84.4181 24.4458 91.4254 26.4505 92.0899C25.6756 90.7051 24.3477 87.9201 24.4291 87.861C26.4795 90.122 28.5755 92.3441 30.5612 94.662C31.5568 95.8226 31.956 97.2676 31.7754 98.8262C31.7464 99.076 31.7062 99.3235 31.6527 99.7115C33.0765 98.407 33.5548 96.7246 34.1446 95.2195C35.9017 97.3044 37.6521 99.3346 39.3468 101.413C40.3101 102.594 41.0047 103.925 41.1296 105.491C41.1396 105.613 41.2199 105.73 41.2667 105.849C41.4808 102.473 39.8909 99.6479 38.3846 96.6388C38.6199 96.7581 38.6701 96.767 38.6935 96.7982C38.786 96.9197 38.8741 97.0446 38.9566 97.1728C40.4383 99.474 41.3882 101.994 41.9981 104.648C42.1497 105.308 42.705 106.902 42.8521 107.035C42.9514 106.87 42.2858 102.419 41.9111 100.881C41.9435 100.865 43.132 104.119 43.6426 105.611C43.6471 105.595 43.6527 105.58 43.6571 105.565C43.6616 105.58 43.6671 105.595 43.6716 105.611C44.1822 104.119 45.3708 100.865 45.4031 100.881C45.0285 102.419 44.3617 106.869 44.4621 107.035C44.6081 106.903 45.1645 105.308 45.3161 104.648C45.926 101.994 46.8759 99.474 48.3576 97.1728C48.4401 97.0446 48.5282 96.9197 48.6208 96.7982C48.6442 96.7681 48.6943 96.7592 48.9296 96.6388C47.4233 99.6479 45.8335 102.472 46.0475 105.849C46.0943 105.73 46.1746 105.613 46.1847 105.491C46.3084 103.925 47.003 102.592 47.9674 101.413C49.6621 99.3358 51.4125 97.3044 53.1697 95.2195C53.7595 96.7257 54.2378 98.407 55.6615 99.7115C55.608 99.3235 55.5679 99.076 55.5389 98.8262C55.3571 97.2676 55.7574 95.8226 56.7519 94.662C58.7387 92.3452 60.8336 90.1231 62.884 87.861C62.9665 87.9201 61.6386 90.7051 60.8626 92.0899C62.8662 91.4254 69.9905 84.4181 72.6017 80.7678C72.4868 81.3821 72.4211 82.0087 72.2449 82.603C72.0676 83.1995 71.7789 83.7636 71.5325 84.3579C72.857 83.9041 75.2262 80.5604 76.1639 78.3562C77.1639 76.0071 77.3178 75.3515 77.6032 70.8461C79.3436 71.9376 79.8409 76.1063 78.4941 78.3083C79.8833 77.9426 80.7429 75.8945 81.1576 71.8607C81.5177 72.2397 81.8032 72.5731 82.1254 72.8663C82.452 73.1651 82.8144 73.4238 83.2671 73.6356C82.9058 69.6107 81.986 65.7208 81.3338 61.6134C83.7152 63.3304 85.8147 65.0942 87.312 67.5047ZM55.1877 50.6994C55.6013 51.5624 56.0673 52.0061 56.898 51.9559C57.5368 51.9191 57.9594 51.5902 58.1946 51.0194C58.4343 50.4374 58.2927 49.9178 57.7665 49.3648C57.7921 49.5722 57.9159 49.9981 57.4387 50.1754C57.3105 50.2211 56.9548 50.1631 56.9281 49.8944C57.0485 49.716 57.131 49.473 57.2982 49.3715C57.6639 49.1485 58.6361 48.7293 59.0208 48.5353C59.0208 48.5353 59.1189 48.6792 59.2817 49.1563C59.692 50.3616 59.4188 51.6783 58.5402 52.4777C57.8969 53.0608 56.8612 53.441 55.9614 53.2236C54.9658 52.9828 54.4875 52.6472 54.2556 52.2291C54.2556 52.2291 54.386 51.7909 55.1877 50.6994ZM31.3506 53.2225C30.4508 53.4399 29.4151 53.0597 28.7718 52.4766C27.8932 51.6772 27.62 50.3616 28.0303 49.1552C28.1931 48.678 28.2912 48.5342 28.2912 48.5342C28.6759 48.7282 29.6481 49.1474 30.0138 49.3704C30.181 49.4719 30.2635 49.7149 30.3839 49.8933C30.3572 50.162 30.0015 50.22 29.8733 50.1743C29.3961 49.9981 29.5199 49.5711 29.5455 49.3637C29.0182 49.9167 28.8766 50.4363 29.1174 51.0183C29.3515 51.5891 29.7752 51.918 30.414 51.9548C31.2458 52.005 31.7107 51.5612 32.1243 50.6983C32.926 51.7898 33.0564 52.2268 33.0564 52.2268C32.8245 52.6461 32.3462 52.9817 31.3506 53.2225ZM18.5011 84.0256C17.4608 82.8906 16.5466 81.6207 15.7138 80.3218C14.8151 78.9204 14.2866 77.3517 14.2577 75.6369C13.7805 77.394 13.8463 79.1913 13.8251 81.0254C11.6989 79.1478 10.0366 72.8184 10.8928 69.6933C10.7601 73.3803 11.3734 76.8745 13.4583 80.0041C13.5642 78.199 13.5084 76.1799 14.3625 74.3637C14.4505 75.104 14.5576 75.9223 14.6557 76.5222C15.0169 78.7375 16.017 80.6708 17.4586 82.3499C18.85 83.9699 20.3518 85.4951 21.8737 87.0036C21.527 85.9344 20.9082 83.7748 20.945 83.7636C21.7332 85.3947 23.2718 88.7139 23.2529 88.744C21.6619 87.1764 20.0084 85.6679 18.5011 84.0256ZM33.8268 93.0799C33.402 94.3844 33.0085 95.5907 32.577 96.913C31.5546 93.333 28.6614 91.3083 26.4349 88.7752C25.5708 87.7918 23.5907 85.5018 23.6476 85.4538C26.7426 88.7908 30.2501 91.063 32.5212 95.2429C32.839 94.2015 33.3887 93.139 33.7666 91.8992C35.2684 93.8827 37.961 98.4405 37.8885 98.4973C36.555 96.719 35.2227 94.9418 33.8268 93.0799ZM43.656 95.1648C39.2353 95.137 35.866 93.0108 34.1914 89.0941C34.964 89.4687 35.6564 89.8121 36.3544 90.1432C37.6131 90.7408 38.8629 91.3629 40.1395 91.9204C41.3102 92.4322 42.4853 92.6774 43.656 92.6719C44.8267 92.6774 46.0018 92.4322 47.1725 91.9204C48.4491 91.3629 49.6989 90.7408 50.9576 90.1432C51.6556 89.811 52.3491 89.4687 53.1206 89.0941C51.446 93.0108 48.0767 95.1358 43.656 95.1648ZM60.8771 88.7752C58.6517 91.3072 55.7585 93.333 54.7361 96.913C54.3046 95.5907 53.9111 94.3844 53.4863 93.0799C52.0904 94.9418 50.757 96.719 49.4235 98.4973C49.351 98.4405 52.0436 93.8827 53.5454 91.8992C53.9245 93.139 54.473 94.2015 54.7908 95.2429C57.063 91.063 60.5694 88.7908 63.6644 85.4538C63.7213 85.5029 61.7412 87.7918 60.8771 88.7752ZM73.4858 81.0254C73.4646 79.1913 73.5315 77.394 73.0532 75.6369C73.0242 77.3517 72.4958 78.9204 71.5971 80.3218C70.7643 81.6207 69.85 82.8917 68.8098 84.0256C67.3024 85.6679 65.649 87.1764 64.058 88.7418C64.0391 88.7128 65.5777 85.3925 66.3659 83.7614C66.4027 83.7725 65.7839 85.9321 65.4372 87.0014C66.959 85.4929 68.4608 83.9676 69.8523 82.3477C71.2939 80.6686 72.294 78.7364 72.6552 76.5199C72.7522 75.9212 72.8603 75.1029 72.9484 74.3615C73.8013 76.1777 73.7456 78.1957 73.8526 80.0019C75.9375 76.8723 76.5496 73.3781 76.4181 69.691C77.2743 72.8184 75.612 79.1478 73.4858 81.0254Z" fill="#262626"/>
<path d="M49.322 77.6114C48.167 76.9502 46.8893 76.8209 45.5982 76.7462C44.9504 76.7094 44.3027 76.6759 43.656 76.6648C43.0093 76.6771 42.3605 76.7094 41.7138 76.7462C40.4227 76.8209 39.145 76.9513 37.9899 77.6114C36.5461 78.4375 35.8549 79.723 35.8805 81.3475C35.905 82.9039 36.7624 83.943 38.1873 84.5317C38.2352 84.5518 38.2698 84.6053 38.3802 84.7067C37.9197 84.7067 37.5417 84.7067 37.1493 84.7067C37.8472 86.3702 41.105 87.9534 43.656 88.0114C46.2069 87.9534 49.4648 86.3702 50.1627 84.7067C49.7702 84.7067 49.3912 84.7067 48.9318 84.7067C49.0422 84.6053 49.0756 84.5507 49.1247 84.5317C50.5496 83.943 51.407 82.9039 51.4315 81.3475C51.4571 79.723 50.7659 78.4386 49.322 77.6114ZM41.6536 83.6297C41.57 84.5473 40.9434 85.0167 40.1195 85.2899C41.1006 84.4135 41.3303 83.7836 40.9345 82.9418C40.4851 81.9863 39.3089 81.469 38.1315 81.7098C38.6767 81.2873 39.591 81.3374 40.5309 81.8726C41.2032 82.2561 41.7305 82.7768 41.6536 83.6297ZM46.3786 82.9418C45.9828 83.7847 46.2125 84.4135 47.1937 85.2899C46.3697 85.0167 45.742 84.5473 45.6595 83.6297C45.5826 82.7768 46.1088 82.2573 46.7834 81.8726C47.7232 81.3374 48.6375 81.2873 49.1827 81.7098C48.0042 81.4679 46.828 81.9852 46.3786 82.9418Z" fill="#262626"/>
<path d="M39.3636 92.771C40.4841 93.9015 42.0584 94.4568 43.656 94.44C45.2548 94.4568 46.828 93.9015 47.9485 92.771C46.4924 93.3519 45.0675 93.673 43.656 93.7064C42.2446 93.673 40.8197 93.353 39.3636 92.771Z" fill="#262626"/>
</svg>
