<svg width="28" height="27" viewBox="0 0 28 27" fill="none" xmlns="http://www.w3.org/2000/svg">
<path d="M11.485 25.2418L12.899 23.8278L10.778 21.7068L25.681 9.39581C26.542 8.6848 27.041 7.62481 27.041 6.50781V0.786805L20.582 0.0258052C19.318 -0.123195 18.066 0.379805 17.256 1.35981L5.121 16.0498L3 13.9288L1.586 15.3428L4.414 18.1718L1.586 20.9998L0.879 20.2928C-0.293 21.4648 -0.293 23.3628 0.879 24.5348L2.293 25.9488C3.465 27.1208 5.363 27.1208 6.535 25.9488L5.828 25.2418L8.656 22.4138L11.485 25.2418ZM24.92 2.99981L8.656 18.7168C7.468 17.5278 7.417 15.8888 8.543 14.6388L19.264 2.99981H24.92ZM3 22.4138L5.121 20.2928L6.535 21.7068L4.414 23.8278L3 22.4138Z" fill="white"/>
<path d="M6.04602 13.253L12.806 5.01705L9.78502 1.36005C8.97501 0.380049 7.74302 -0.122951 6.47902 0.0260494L0.0410156 0.787049V6.50805C0.0410156 7.62605 0.520016 8.68505 1.38102 9.39705L6.04602 13.253Z" fill="white"/>
<path d="M25.455 21L22.627 18.172L25.455 15.343L24.041 13.929L21.92 16.05L20.688 14.558L14.269 20.05L16.274 21.707L14.147 23.828L15.559 25.242L18.385 22.414L21.213 25.242L20.506 25.949C21.678 27.121 23.576 27.121 24.748 25.949L26.162 24.535C27.334 23.363 27.334 21.465 26.162 20.293L25.455 21Z" fill="white"/>
</svg>
