<svg width="92" height="108" viewBox="0 0 92 108" fill="none" xmlns="http://www.w3.org/2000/svg">
<path d="M91.5758 57.1734C89.7218 51.6699 85.692 47.6942 82.0392 43.3855C84.5502 44.6364 87.06 45.8886 89.571 47.1407C88.0084 44.2 85.9564 41.6496 83.7346 39.2331C81.5127 36.82 79.1142 34.6172 76.0486 32.9612C79.4494 33.5091 82.4847 34.5295 85.2634 36.2912C83.8504 34.4789 82.2091 32.9399 80.2336 31.6596C82.5556 30.2163 84.0079 28.2003 84.9642 25.6386C83.6704 25.8996 82.4813 26.1415 81.2944 26.3834C84.1924 23.293 84.4939 19.7583 83.3757 15.8939C82.9144 16.6589 82.4813 17.3722 82.0459 18.0933C81.8772 16.1684 81.7804 14.3009 81.5363 12.4503C81.0773 8.95384 80.0074 5.62385 78.6574 2.37036C77.3412 -0.801001 74.8561 -0.410627 73.1022 1.32974C70.5575 3.85423 68.0307 6.3956 65.4781 8.90996C63.7378 10.6233 61.9625 12.3052 60.095 13.9488C60.7936 12.2152 61.4945 10.4827 62.2044 8.72434C59.9128 8.48584 55.6344 10.2813 51.2402 13.2918C50.5382 10.4512 51.5237 8.06284 53.1009 5.58785C48.4153 7.92672 45.7896 11.5425 45.7896 11.5425C45.7896 11.5425 43.1638 7.92672 38.4749 5.58897C40.051 8.06284 41.0376 10.4512 40.3356 13.2929C35.9402 10.2825 31.663 8.48809 29.3714 8.72546C30.0813 10.4838 30.781 12.2163 31.4808 13.9499C29.6133 12.3063 27.8391 10.6256 26.0976 8.91109C23.5439 6.39672 21.0172 3.85536 18.4736 1.33087C16.7208 -0.409502 14.2346 -0.801001 12.9183 2.37149C11.5695 5.62497 10.4996 8.95496 10.0395 12.4514C9.79646 14.3021 9.69859 16.1696 9.52984 18.0944C9.09446 17.3733 8.66247 16.6601 8.20122 15.8951C7.08297 19.7605 7.38222 23.2942 10.2825 26.3845C9.09446 26.1426 7.90647 25.9008 6.61047 25.6398C7.56785 28.2003 9.02022 30.2163 11.3433 31.6607C9.36559 32.9421 7.72647 34.48 6.31235 36.2924C9.09222 34.5306 12.1275 33.5102 15.5272 32.9624C12.4616 34.6195 10.0631 36.8222 7.84234 39.2342C5.61935 41.6507 3.56849 44.2011 2.00587 47.1418C4.51573 45.8897 7.02672 44.6376 9.53659 43.3866C5.88485 47.6953 1.85512 51.671 0 57.1745C0.827997 56.5108 1.57274 55.766 2.38387 55.1023C3.19274 54.443 4.06686 53.8648 4.91286 53.2517C3.95548 57.8045 3.44249 62.2741 3.89586 66.8382C5.37298 64.5725 6.96822 62.4496 9.10684 60.7655C7.42272 64.9347 6.56547 69.248 6.5171 73.7198C6.9941 73.028 7.37322 72.2979 7.82322 71.6172C8.27659 70.9344 8.76372 70.2639 9.30259 69.6462C9.82346 69.0511 10.431 68.5291 11.0013 67.9756C9.74921 72.5003 10.2296 76.6606 12.9847 80.4754C14.7734 82.9527 16.9469 85.0407 19.3859 86.8643C19.5389 86.979 19.7223 87.051 19.891 87.1433C18.4308 85.26 17.3373 83.2778 17.0358 80.9142C16.7422 78.6113 16.9931 76.3793 17.7997 74.2103C17.7884 76.9171 18.2294 78.9173 19.4669 81.4193C21.565 85.6606 24.5654 89.2257 27.8425 92.5815C27.8796 92.6186 27.9573 92.6164 28.0551 92.6423C25.2359 88.4089 25.3979 84.0777 26.2281 82.2327C27.28 85.1622 29.062 87.573 31.1871 89.7713C32.4235 91.0493 33.2076 92.5556 32.9916 94.4119C32.9432 94.8371 32.7801 95.2489 32.6688 95.6685C32.7441 95.7011 33.8916 93.7988 34.3821 92.8301C35.524 96.2355 35.326 103.478 35.4261 103.504C36.6794 101.459 37.9337 99.4147 39.2207 97.3144C41.8071 100.65 45.7547 108.064 45.7839 108C45.8132 108.064 49.7608 100.65 52.3472 97.3144C53.6353 99.4147 54.8874 101.459 56.1418 103.504C56.2408 103.478 56.0428 96.2355 57.1858 92.8301C57.6763 93.7988 58.8227 95.7023 58.8992 95.6685C58.7867 95.2489 58.6247 94.8371 58.5763 94.4119C58.3614 92.5556 59.1455 91.0493 60.3808 89.7713C62.5081 87.573 64.2901 85.161 65.3398 82.2327C66.1722 84.0777 66.3331 88.4089 63.5139 92.6423C63.6129 92.6175 63.6894 92.6186 63.7265 92.5815C67.0047 89.2268 70.004 85.6606 72.1021 81.4193C73.3419 78.9162 73.7806 76.9171 73.7693 74.2103C74.576 76.3793 74.8257 78.6113 74.5321 80.9142C74.2306 83.2789 73.1393 85.26 71.678 87.1433C71.8467 87.051 72.0312 86.979 72.1831 86.8643C74.6221 85.0407 76.7978 82.9527 78.5855 80.4754C81.3383 76.6595 81.8198 72.5003 80.5677 67.9756C81.1392 68.5291 81.7456 69.0511 82.2664 69.6462C82.8064 70.2639 83.2924 70.9344 83.7469 71.6172C84.1969 72.2979 84.5749 73.028 85.0519 73.7198C85.0036 69.248 84.1463 64.9347 82.4633 60.7655C84.6008 62.4496 86.1961 64.5736 87.6732 66.8382C88.1254 62.273 87.6135 57.8045 86.6562 53.2517C87.5022 53.8648 88.3763 54.443 89.1852 55.1023C90.003 55.7649 90.7478 56.5097 91.5758 57.1734ZM64.4229 16.8412C64.4465 16.8569 62.2494 20.0587 61.1244 21.6449C61.3944 21.538 61.5991 21.3749 61.7926 21.1994C64.3498 18.8808 66.242 16.0391 68.1162 13.1849C70.373 9.74809 72.6185 6.30222 74.8898 2.87549C75.1452 2.49299 75.5446 2.20724 75.8765 1.87649C76.1532 2.28261 76.52 2.65386 76.6966 3.10048C77.8441 5.9816 78.7553 8.93809 79.2582 12.0015C79.6339 14.2908 79.9917 16.6027 79.5788 18.9258C79.4078 19.8933 79.0557 20.8293 78.7418 21.9397C79.7881 21.304 80.7657 20.7089 81.7433 20.1138C81.1741 21.0037 80.5542 21.8778 79.7746 22.5719C78.9904 23.2672 78.0455 23.7835 77.1725 24.3775C77.1961 24.4372 79.3808 23.68 80.4248 23.2514C78.9218 25.2663 77.0262 26.8255 74.4635 27.7593C76.4502 28.7268 78.3751 28.9293 80.3854 28.648C78.0297 29.9924 75.5255 30.2568 72.8975 29.7528C70.3359 29.2611 68.0499 28.1553 65.8708 26.7468C68.4897 27.1135 70.8151 26.5926 72.7017 24.6723C74.5231 22.8194 75.3938 20.5717 75.3185 17.9504C75.3803 17.9549 75.7887 19.855 75.9293 20.8C75.9935 20.8045 76.367 18.9055 76.4828 18.0112C77.4515 20.2218 76.61 22.2828 75.6323 24.337C77.087 22.6653 77.9881 20.7505 78.1939 18.5557C78.6113 14.1176 77.6663 9.90333 75.9878 5.82747C75.8056 5.38423 75.4276 5.0231 75.1396 4.62373C74.8786 5.03435 74.5467 5.41685 74.3656 5.86122C73.1686 8.81659 72.0031 11.7866 70.8275 14.7509C70.7679 14.9006 70.7217 15.0558 70.6689 15.2077C70.7105 15.2471 72.515 13.9196 73.4375 13.1647C71.4384 16.5307 65.1541 20.4445 65.2048 20.5334C67.6437 19.5637 70.0805 18.5917 72.416 17.6624C70.3921 20.161 67.9846 22.393 64.7413 23.5934C66.6571 24.013 68.5381 24.1109 70.6104 23.4562C67.268 26.1213 60.8848 25.3968 58.4289 22.2783C60.428 20.4648 62.4249 18.6535 64.4229 16.8412ZM50.7823 52.7499C51.1491 48.1937 52.9423 44.2472 55.9922 40.8823C57.2814 39.4592 58.9149 38.6211 60.9973 38.5829C60.2413 38.9653 59.5561 39.2556 58.9318 39.646C58.3277 40.024 57.314 41.059 57.359 41.1163C57.6729 40.9476 57.9789 40.7597 58.3018 40.6135C58.6539 40.4548 59.0184 40.3232 59.3851 40.2028C59.7013 40.0993 60.0286 40.0262 60.3493 39.9396C58.0183 41.7103 56.1992 44.0683 56.207 45.4858C58.9644 41.0803 63.0448 39.5256 68.0082 39.6538C67.8057 42.319 64.3869 46.1946 61.7218 46.9146C62.669 44.8615 62.7433 44.5667 62.5981 43.4192C62.0289 44.3237 61.5789 45.2766 60.9129 46.0472C59.7924 47.3443 58.5707 48.5616 57.3264 49.7473C55.7593 51.2424 54.0965 52.589 51.6486 52.1525C52.0659 52.4079 52.4833 52.6622 52.9907 52.9715C52.2257 53.0874 51.5473 53.1875 50.8239 53.2955C50.8037 53.0289 50.7711 52.8872 50.7823 52.7499ZM59.276 49.5752L60.599 48.5481C61.1874 49.6314 60.9005 51.0669 59.951 51.9467C58.7732 53.0368 56.8989 53.1909 55.4184 52.2414L56.8247 51.3561C57.3523 51.6755 58.1319 51.7194 58.7102 51.3516C59.2344 51.0186 59.3379 50.3616 59.276 49.5752ZM35.5881 40.8823C38.638 44.2472 40.4312 48.1937 40.798 52.7499C40.8092 52.8872 40.7755 53.0289 40.7541 53.2933C40.0296 53.1853 39.3523 53.084 38.5874 52.9693C39.0936 52.661 39.5121 52.4057 39.9295 52.1503C37.4804 52.5879 35.8176 51.2402 34.2505 49.7451C33.0085 48.5593 31.7868 47.3421 30.6651 46.0449C29.9991 45.2743 29.5491 44.3214 28.9799 43.417C28.8348 44.5656 28.909 44.8592 29.8563 46.9123C27.1911 46.1923 23.7723 42.3167 23.5698 39.6516C28.5321 39.5233 32.6136 41.0781 35.3699 45.4836C35.38 44.0661 33.5597 41.7092 31.2288 39.9373C31.5494 40.024 31.8768 40.0982 32.1929 40.2006C32.5585 40.321 32.923 40.4537 33.2751 40.6112C33.5991 40.7575 33.9051 40.9453 34.2167 41.1141C34.2629 41.0567 33.2492 40.0217 32.6463 39.6437C32.0219 39.2522 31.3368 38.9631 30.5808 38.5806C32.6642 38.6211 34.2966 39.4592 35.5881 40.8823ZM32.8701 51.3516C33.4472 51.7194 34.228 51.6755 34.7545 51.3561L36.1619 52.2414C34.6814 53.192 32.8071 53.0368 31.6293 51.9467C30.6798 51.0669 30.3918 49.6303 30.9813 48.5481L32.3031 49.5752C32.2413 50.3616 32.3447 51.0186 32.8701 51.3516ZM11.1937 28.6469C13.2052 28.9281 15.1289 28.7256 17.1157 27.7581C14.5541 26.8244 12.6585 25.2652 11.1543 23.2503C12.1983 23.6789 14.3819 24.436 14.4078 24.3764C13.5348 23.7824 12.5898 23.266 11.8057 22.5708C11.0261 21.8778 10.4062 21.0025 9.83696 20.1127C10.8146 20.7078 11.7933 21.3029 12.8384 21.9385C12.5246 20.8293 12.1736 19.8933 12.0015 18.9247C11.5897 16.6016 11.9463 14.2897 12.3232 12.0003C12.8261 8.93696 13.7373 5.97935 14.8837 3.09936C15.0603 2.65386 15.4259 2.28149 15.7038 1.87536C16.0357 2.20611 16.4339 2.49186 16.6893 2.87436C18.9618 6.3011 21.2073 9.74696 23.4629 13.1838C25.3383 16.0379 27.2305 18.8797 29.7865 21.1983C29.98 21.3738 30.1848 21.538 30.4548 21.6438C29.3298 20.0587 27.1315 16.8558 27.1574 16.8401C29.1531 18.6524 31.15 20.4648 33.148 22.2783C30.691 25.3956 24.3089 26.1213 20.9665 23.4562C23.0388 24.1109 24.9209 24.013 26.8368 23.5934C23.5923 22.393 21.1859 20.1599 19.1609 17.6624C21.4964 18.5917 23.9343 19.5625 26.3722 20.5334C26.4228 20.4445 20.1385 16.5307 18.1406 13.1647C19.0631 13.9207 20.8664 15.2482 20.908 15.2077C20.8552 15.0547 20.8102 14.9006 20.7505 14.7509C19.5749 11.7855 18.4094 8.81659 17.2113 5.86122C17.0313 5.41685 16.6994 5.03548 16.4384 4.62373C16.1504 5.0231 15.7713 5.38535 15.5891 5.82747C13.9106 9.90333 12.9656 14.1176 13.3829 18.5557C13.5899 20.7505 14.4899 22.6642 15.9446 24.337C14.9669 22.2828 14.1254 20.2218 15.0952 18.0112C15.2111 18.9055 15.5846 20.8034 15.6476 20.8C15.7882 19.855 16.1966 17.9549 16.2596 17.9504C16.1842 20.5717 17.0538 22.8183 18.8752 24.6723C20.764 26.5926 23.0872 27.1135 25.7062 26.7468C23.5259 28.1553 21.241 29.2611 18.6806 29.7528C16.0537 30.2556 13.5494 29.9913 11.1937 28.6469ZM53.9042 93.1766C53.8299 92.4611 53.7635 91.8233 53.687 91.0842C52.1143 92.3925 50.7846 93.819 49.6641 95.4154C48.5503 97.0028 47.5502 98.6711 46.5298 100.26C46.3521 98.427 45.8053 94.2589 45.7896 94.4231C45.7738 94.2589 45.2271 98.4281 45.0504 100.26C44.0301 98.6711 43.03 97.0028 41.9162 95.4154C40.7957 93.819 39.466 92.3925 37.8932 91.0842C37.8167 91.8233 37.7504 92.4623 37.6761 93.1766C36.3801 91.0223 34.9401 85.9924 35.1494 84.5209C36.4015 84.9012 37.6615 85.2769 38.9147 85.674C39.0441 85.7157 39.2038 85.8844 39.223 86.0127C39.6448 88.6249 41.6248 89.4248 43.8163 89.8557C44.4756 89.985 45.1348 90.0525 45.7907 90.0548C46.4466 90.0525 47.1058 89.985 47.7651 89.8557C49.9566 89.4248 51.9366 88.6249 52.3584 86.0127C52.3787 85.8844 52.5362 85.7157 52.6655 85.674C53.9177 85.2758 55.1788 84.9 56.432 84.5209C56.6402 85.9924 55.2002 91.0223 53.9042 93.1766ZM40.2242 85.8034C41.1028 85.5649 41.2333 85.6392 41.5888 86.4199C41.6721 86.6022 41.8858 86.7934 42.0771 86.8485C43.1953 87.1669 43.21 87.1714 42.9321 88.3335C41.473 88.2143 40.4942 87.2985 40.2242 85.8034ZM43.6476 87.3739C44.8142 87.2389 45.0538 87.4853 44.8322 88.5855C43.6498 88.5675 43.6476 88.5642 43.6476 87.3739ZM40.4087 75.2217C40.735 74.6873 41.2322 74.4578 41.905 74.5996C42.823 74.792 43.7286 75.0563 44.65 75.2307C45.0336 75.3027 45.4138 75.3286 45.7896 75.3207C46.1653 75.3286 46.5456 75.3027 46.9292 75.2307C47.8506 75.0575 48.7562 74.792 49.6742 74.5996C50.3469 74.4578 50.8442 74.6873 51.1704 75.2217C49.3794 75.6852 47.5884 75.899 45.7896 75.8855C43.9896 75.899 42.1997 75.6852 40.4087 75.2217ZM41.9657 79.7104C42.0737 79.2244 42.2976 78.0353 42.4168 77.4931C43.381 78.1118 43.381 79.0197 41.9657 79.7104ZM49.6134 79.7104C48.1971 79.0197 48.1971 78.1107 49.1623 77.4931C49.2816 78.0353 49.5066 79.2256 49.6134 79.7104ZM46.2182 87.5089C46.1946 87.8712 46.2126 88.1423 46.1439 88.3853C46.1113 88.5 45.9156 88.5675 45.7907 88.6553C45.6658 88.5675 45.4701 88.4989 45.4375 88.3853C45.3677 88.1412 45.3868 87.8712 45.3632 87.5089C45.5106 87.5022 45.6399 87.4954 45.7918 87.4887C45.9414 87.4954 46.0708 87.5022 46.2182 87.5089ZM47.9316 87.3739C47.9316 88.5642 47.9293 88.5675 46.7469 88.5855C46.5253 87.4853 46.7649 87.2389 47.9316 87.3739ZM49.5032 86.8474C49.6944 86.7923 49.9071 86.601 49.9914 86.4188C50.3458 85.6392 50.4774 85.5638 51.3561 85.8023C51.0861 87.2974 50.1073 88.2143 48.6493 88.3324C48.3703 87.1703 48.3849 87.1658 49.5032 86.8474ZM75.1936 61.5136C76.8856 63.695 77.8812 66.1452 78.2412 68.8497C78.608 71.588 78.2176 74.2092 76.9891 76.7C76.9655 73.0066 75.827 69.7092 73.5567 66.8169C71.3112 63.9515 68.5122 61.8331 65.0686 60.6058C68.5707 62.5925 71.2955 65.2824 72.8378 69.077C71.5463 67.6809 70.0951 66.5019 68.3795 65.6592C69.8847 67.0351 70.8421 68.7327 71.4845 70.6362C70.2121 68.9251 68.8407 67.3332 66.8855 66.3894C66.8281 66.431 67.4761 67.7371 67.9025 68.42C66.0969 67.8665 64.3542 67.3321 62.6094 66.7989C62.5959 66.836 63.3766 67.52 63.9054 67.9149C62.6994 67.6752 61.6666 67.4705 60.6339 67.2669C64.2575 70.0141 64.8391 73.5792 64.5579 76.0801C63.1798 73.388 62.0795 72.0323 61.0625 71.7252C61.4203 72.2843 61.805 72.8829 62.1898 73.4836C62.1695 73.4926 59.9308 71.4114 59.8633 71.4609C59.9319 71.759 60.0365 72.0526 60.0545 72.3541C60.0725 72.6399 59.9971 72.9301 59.9364 73.4307C59.2074 71.2269 57.7787 70.0625 55.8448 69.4257C57.2308 71.255 58.1713 73.1765 57.4378 75.5536C58.2703 74.756 58.3321 73.7367 58.3164 72.5341C59.4279 74.2205 59.0634 75.6526 58.0655 77.0566C58.1274 77.0813 59.3514 76.0981 59.9161 75.5705C59.771 79.7296 57.5717 82.3846 53.8232 83.8347C51.1277 84.8775 47.4332 84.4433 46.1226 83.0461C46.4949 82.9336 46.8774 82.8604 47.2251 82.7097C49.9138 81.5509 52.0445 79.6857 53.84 77.4143C54.3632 76.7528 54.4048 75.953 54.1674 75.197C53.8142 74.0708 53.363 72.9751 52.9389 71.8726C52.2797 70.1615 51.6047 68.4582 50.9499 66.7471C50.8554 66.5019 50.8239 66.2319 50.7632 65.9731C50.6788 65.9889 50.6923 68.1691 50.9241 69.2131C51.1547 70.2504 51.5653 71.246 51.8364 72.065C49.9768 71.9007 47.9406 71.5745 45.9066 71.5801C45.8672 71.5801 45.8289 71.5812 45.7896 71.5823C45.7513 71.5812 45.7131 71.5801 45.6726 71.5801C43.6375 71.5745 41.6023 71.8996 39.7427 72.065C40.0116 71.2449 40.4233 70.2504 40.6551 69.2131C40.8868 68.1691 40.9003 65.9889 40.816 65.9731C40.7552 66.2307 40.7237 66.5019 40.6292 66.7471C39.9733 68.4582 39.2984 70.1615 38.6402 71.8726C38.2161 72.9751 37.765 74.0708 37.4117 75.197C37.1744 75.953 37.216 76.7528 37.7391 77.4143C39.5346 79.6868 41.6653 81.5509 44.353 82.7097C44.7028 82.8604 45.0842 82.9336 45.4566 83.0461C44.146 84.4433 40.4515 84.8775 37.756 83.8347C34.0075 82.3846 31.8081 79.7307 31.663 75.5705C32.2278 76.0992 33.4517 77.0825 33.5114 77.0566C32.5146 75.6537 32.1501 74.2205 33.2627 72.5341C33.247 73.7356 33.3089 74.756 34.1402 75.5536C33.4079 73.1765 34.3484 71.255 35.7344 69.4257C33.8005 70.0614 32.3729 71.2269 31.6428 73.4307C31.5809 72.9301 31.5066 72.6399 31.5235 72.3541C31.5426 72.0526 31.6473 71.759 31.7159 71.4609C31.6473 71.4114 29.4074 73.4926 29.3894 73.4836C29.7741 72.884 30.1578 72.2855 30.5166 71.7252C29.4996 72.0323 28.3971 73.3891 27.0213 76.0801C26.7411 73.5792 27.3228 70.0141 30.9453 67.2669C29.9125 67.4716 28.8786 67.6752 27.6738 67.9149C28.2036 67.5189 28.9833 66.836 28.9686 66.7989C27.2249 67.3332 25.4823 67.8665 23.6778 68.42C24.103 67.7382 24.751 66.431 24.6937 66.3894C22.7384 67.3344 21.367 68.9251 20.0947 70.6362C20.737 68.7339 21.6944 67.0351 23.1997 65.6592C21.484 66.5019 20.0339 67.6809 18.7413 69.077C20.2837 65.2824 23.0084 62.5914 26.5105 60.6058C23.0669 61.8343 20.2679 63.9526 18.0224 66.8169C15.7522 69.7092 14.6159 73.0066 14.5901 76.7C13.3616 74.2092 12.9712 71.588 13.3379 68.8497C13.6991 66.1464 14.6936 63.6961 16.3856 61.5136C14.0343 62.2899 12.0487 63.6208 10.161 65.1451C12.2332 60.5608 15.4181 56.9619 19.7133 54.3159C16.6466 55.0809 13.8611 56.4174 11.1375 58.0689C11.4547 57.4603 11.7033 56.7999 12.105 56.2543C13.1197 54.8762 14.1491 53.5037 15.2752 52.2178C16.7579 50.5236 18.8009 50.0106 20.9474 49.8204C21.592 49.7631 22.24 49.7462 22.9218 49.7079C23.014 50.4201 23.0579 51.0917 23.1952 51.7464C23.7014 54.1539 25.1932 55.9033 27.082 57.3466C27.964 58.0205 28.9338 58.5774 29.8574 59.1984C31.8959 60.5686 33.121 63.4846 32.0736 66.1272C32.0343 66.2285 32.0331 66.3444 32.005 66.4962C32.7261 66.0586 32.923 65.7402 33.6002 64.145C33.6317 64.7862 33.6644 65.4286 33.6959 66.0676C35.5454 64.3666 34.8017 61.2448 31.9611 59.0184C32.581 58.9014 33.1457 58.7945 33.7127 58.6865C31.6844 58.1634 29.6391 57.863 27.8706 56.7302C28.6019 56.7302 29.3174 56.7302 30.0329 56.7302C26.3451 55.8808 24.175 53.6049 23.4325 49.6629C24.6194 49.9071 25.6645 50.1219 26.7468 50.3436C25.9559 49.5572 24.8973 49.2669 23.896 48.8889C24.1109 48.2781 24.661 48.0778 25.4204 48.3647C27.1259 49.0093 28.4613 50.1489 29.521 51.6047C30.4446 52.8714 31.6191 53.7602 33.157 54.0673C36.0719 54.6534 37.3622 56.9844 37.504 59.5753C37.6007 61.3235 37.216 62.984 36.5995 64.6051C36.5084 64.8459 36.415 65.0855 36.3936 65.3645C37.3217 64.3565 38.0552 63.2248 38.6099 61.9783C39.1791 60.7014 39.6325 59.3615 39.3029 57.9721C38.9946 56.6717 38.4535 55.4263 37.9731 54.0335C38.7336 54.5038 39.3737 54.8998 40.0487 55.316C40.0948 55.1889 40.1567 55.0213 40.2816 54.6827C41.0972 55.5545 42.6576 57.1352 42.6936 57.1273C42.4247 56.2678 42.1558 55.4083 41.8465 54.4138C42.2841 54.7322 42.679 55.0202 43.0997 55.3284C43.2077 55.0573 43.3135 54.7884 43.4518 54.4397C44.6342 55.9528 45.7896 59.0004 45.7896 59.0004C45.7896 59.0004 46.9438 55.9528 48.1251 54.4363C48.2634 54.785 48.3703 55.0539 48.4772 55.325C48.8979 55.0179 49.2939 54.7299 49.7304 54.4104C49.4211 55.4049 49.1522 56.2644 48.8833 57.1239C48.9182 57.1318 50.4797 55.5523 51.2953 54.6793C51.4202 55.019 51.4821 55.1855 51.5282 55.3127C52.2032 54.8964 52.8422 54.5004 53.6027 54.0302C53.1234 55.4229 52.5834 56.6683 52.2729 57.9688C51.9433 59.357 52.3978 60.698 52.967 61.9749C53.5205 63.2203 54.2552 64.352 55.1822 65.3611C55.1619 65.0821 55.0674 64.8425 54.9774 64.6017C54.3598 62.9818 53.975 61.3201 54.0718 59.5719C54.2147 56.981 55.5039 54.6512 58.4199 54.0639C59.9578 53.7568 61.1311 52.868 62.0559 51.6013C63.1145 50.1456 64.451 49.0059 66.1565 48.3613C66.917 48.0744 67.466 48.2747 67.6809 48.8856C66.6785 49.2636 65.6221 49.5538 64.8313 50.3402C65.9124 50.1186 66.9586 49.9026 68.1444 49.6596C67.4019 53.6015 65.2329 55.8774 61.544 56.7268C62.2584 56.7268 62.9739 56.7268 63.7063 56.7268C61.9378 57.8596 59.8914 58.16 57.8642 58.6831C58.4312 58.7911 58.9959 58.898 59.6158 59.015C56.7752 61.2414 56.0315 64.3633 57.8799 66.0642C57.9125 65.4252 57.944 64.7829 57.9767 64.1416C58.6539 65.7369 58.8508 66.0552 59.5719 66.4929C59.5438 66.341 59.5438 66.2251 59.5033 66.1239C58.4548 63.4801 59.681 60.5653 61.7184 59.195C62.6409 58.574 63.6129 58.0172 64.496 57.3433C66.3837 55.901 67.8755 54.1505 68.3829 51.743C68.519 51.0894 68.5629 50.4167 68.6551 49.7046C69.3357 49.7417 69.9849 49.7597 70.6306 49.8171C72.7771 50.0072 74.819 50.5202 76.3017 52.2144C77.429 53.5003 78.4572 54.8728 79.4719 56.2509C79.8736 56.7965 80.1222 57.4569 80.4406 58.0655C77.7158 56.414 74.9303 55.0775 71.8647 54.3125C76.16 56.9585 79.3437 60.5574 81.4159 65.1417C79.5304 63.6208 77.5448 62.2899 75.1936 61.5136Z" fill="#D11F1F"/>
<path d="M45.7896 69.8655C43.7466 69.8441 41.6957 70.2716 40.9746 71.1446C42.5856 70.8398 44.1853 70.6991 45.7896 70.7048C47.3938 70.698 48.9947 70.8386 50.6045 71.1446C49.8834 70.2716 47.8326 69.8441 45.7896 69.8655Z" fill="#D11F1F"/>
<path d="M45.7896 91.2247C43.3023 91.263 40.7294 90.3393 39.0442 88.2097C39.52 90.372 42.8039 92.3711 45.7896 92.3868C48.7754 92.3711 52.0581 90.372 52.5351 88.2097C50.8499 90.3393 48.277 91.263 45.7896 91.2247Z" fill="#D11F1F"/>
</svg>
