<svg width="113" height="113" viewBox="0 0 113 113" fill="none" xmlns="http://www.w3.org/2000/svg">
<g clip-path="url(#clip0_166_2100)">
<path d="M96.0945 26.9041L110.926 12.0728C113.685 9.31401 113.685 4.83374 110.926 2.07495C108.167 -0.683838 103.687 -0.683838 100.928 2.07495L86.1187 16.9062C77.8644 10.7265 67.6017 7.06284 56.5003 7.06284C29.1994 7.06284 7.06284 29.1994 7.06284 56.5003C7.06284 67.6017 10.7265 77.8644 16.9062 86.1187L2.07495 100.95C-0.683838 103.709 -0.683838 108.189 2.07495 110.948C4.83374 113.707 9.31401 113.707 12.0728 110.948L26.9041 96.1166C35.1583 102.296 45.399 105.96 56.5003 105.96C83.8013 105.96 105.938 83.8234 105.938 56.5224C105.938 45.421 102.274 35.1583 96.0945 26.9261V26.9041ZM75.9664 27.0585L27.0365 75.9664C23.3507 70.3826 21.1878 63.6953 21.1878 56.5003C21.1878 36.9902 36.9902 21.1878 56.5003 21.1878C63.6953 21.1878 70.3826 23.3507 75.9664 27.0365V27.0585ZM37.0123 85.9863L85.9642 37.0343C89.65 42.6181 91.8128 49.3054 91.8128 56.5003C91.8128 76.0105 76.0105 91.8128 56.5003 91.8128C49.3054 91.8128 42.6181 89.65 37.0343 85.9642L37.0123 85.9863Z" fill="#4E4E4E"/>
</g>
<defs>
<clipPath id="clip0_166_2100">
<rect width="113" height="113" fill="white"/>
</clipPath>
</defs>
</svg>
