<svg width="58" height="67" viewBox="0 0 58 67" fill="none" xmlns="http://www.w3.org/2000/svg">
<path d="M51.4557 19.5528L54.7597 16.2211C55.3822 15.684 55.7599 14.9128 55.8064 14.0885C55.8528 13.2642 55.5617 12.4554 55.0044 11.8528C54.4439 11.247 53.6667 10.9004 52.846 10.888C52.0286 10.8755 51.239 11.2033 50.663 11.7903L47.3589 15.122H47.362C39.6176 8.7366 29.1573 6.82241 19.6851 10.0637C10.2097 13.3048 3.06258 21.2385 0.771624 31.0593C-1.51981 40.876 1.36926 51.1932 8.4139 58.3553C15.4585 65.5151 25.6682 68.5062 35.4218 66.2738C45.1794 64.0381 53.1034 56.8943 56.3884 47.3645C59.6769 37.8379 57.8624 27.2745 51.5887 19.4186L51.4557 19.5528ZM29.1946 60.5504C21.6266 60.5535 14.5571 56.7442 10.3517 50.3995C6.14656 44.0547 5.36003 36.0113 8.25535 28.9611C11.1506 21.9106 17.347 16.7839 24.7692 15.2939C32.1917 13.8076 39.8618 16.1525 45.2126 21.5512C49.4611 25.8352 51.8486 31.6462 51.8486 37.7036C51.8486 43.7642 49.4611 49.5723 45.2126 53.8592C40.9641 58.1432 35.2018 60.5504 29.1946 60.5504ZM15.9816 3.03192C15.9816 1.38327 17.2883 0.0374893 18.9233 0H39.4689H39.4658C41.1256 0 42.4726 1.35825 42.4726 3.03192C42.4726 4.70559 41.1256 6.06383 39.4658 6.06383H18.9233C17.2884 6.02636 15.9816 4.68057 15.9816 3.03192ZM32.0341 38.8682C31.8855 39.2335 31.6594 39.5645 31.3745 39.8361L21.8619 49.3939C20.6729 50.5492 18.7901 50.5492 17.6011 49.3939C16.4399 48.2011 16.4399 46.2902 17.6011 45.0974L26.1878 36.4389V21.1826C26.1878 19.5089 27.5348 18.1538 29.1946 18.1538C30.8544 18.1538 32.2013 19.5089 32.2013 21.1826V37.8377C32.1797 38.1906 32.0992 38.5403 31.9691 38.8682H32.0341Z" fill="#E6792A"/>
</svg>
