<svg width="27" height="27" viewBox="0 0 27 27" fill="none" xmlns="http://www.w3.org/2000/svg">
<g clip-path="url(#clip0_122_548)">
<path d="M13.3515 2.70751C16.2286 2.70751 18.9879 3.85044 21.0223 5.88485C23.0567 7.91927 24.1996 10.6785 24.1996 13.5556C24.1996 16.4327 23.0567 19.192 21.0223 21.2264C18.9879 23.2608 16.2286 24.4037 13.3515 24.4037C10.4744 24.4037 7.71517 23.2608 5.68075 21.2264C3.64634 19.192 2.50341 16.4327 2.50341 13.5556C2.50341 10.6785 3.64634 7.91927 5.68075 5.88485C7.71517 3.85044 10.4744 2.70751 13.3515 2.70751ZM13.3515 26.9072C16.8926 26.9072 20.2886 25.5005 22.7925 22.9966C25.2964 20.4927 26.7031 17.0967 26.7031 13.5556C26.7031 10.0146 25.2964 6.61857 22.7925 4.11467C20.2886 1.61078 16.8926 0.204102 13.3515 0.204102C9.81048 0.204102 6.41447 1.61078 3.91057 4.11467C1.40668 6.61857 0 10.0146 0 13.5556C0 17.0967 1.40668 20.4927 3.91057 22.9966C6.41447 25.5005 9.81048 26.9072 13.3515 26.9072ZM13.3515 6.87987C12.6579 6.87987 12.0998 7.43792 12.0998 8.13157V13.9729C12.0998 14.6665 12.6579 15.2246 13.3515 15.2246C14.0452 15.2246 14.6032 14.6665 14.6032 13.9729V8.13157C14.6032 7.43792 14.0452 6.87987 13.3515 6.87987ZM15.0205 18.5625C15.0205 18.1198 14.8446 17.6953 14.5316 17.3823C14.2187 17.0693 13.7942 16.8935 13.3515 16.8935C12.9089 16.8935 12.4844 17.0693 12.1714 17.3823C11.8584 17.6953 11.6826 18.1198 11.6826 18.5625C11.6826 19.0051 11.8584 19.4296 12.1714 19.7426C12.4844 20.0556 12.9089 20.2314 13.3515 20.2314C13.7942 20.2314 14.2187 20.0556 14.5316 19.7426C14.8446 19.4296 15.0205 19.0051 15.0205 18.5625Z" fill="#D11F1F"/>
</g>
<defs>
<clipPath id="clip0_122_548">
<rect width="26.7031" height="26.7031" fill="white" transform="translate(0 0.204102)"/>
</clipPath>
</defs>
</svg>
