<svg width="28" height="28" viewBox="0 0 28 28" fill="none" xmlns="http://www.w3.org/2000/svg">
<g clip-path="url(#clip0_122_689)">
<path opacity="0.4" d="M19.7694 0.0655135C20.0428 0.180357 20.2397 0.426451 20.2944 0.716295L21.3826 6.61708L27.2834 7.69989C27.5733 7.75458 27.8194 7.95145 27.9342 8.22489C28.049 8.49833 28.0162 8.81005 27.8467 9.05614L24.4397 13.9999L27.8467 18.9382C28.0162 19.1843 28.049 19.496 27.9342 19.7694C27.8194 20.0429 27.5733 20.2397 27.2834 20.2944L21.3826 21.3827L20.2944 27.2835C20.2397 27.5733 20.0428 27.8194 19.7694 27.9343C19.4959 28.0491 19.1842 28.0163 18.9381 27.8468L13.9998 24.4397L9.06155 27.8468C8.81545 28.0163 8.50373 28.0491 8.2303 27.9343C7.95686 27.8194 7.75998 27.5733 7.7053 27.2835L6.61701 21.3827L0.716234 20.2944C0.42639 20.2397 0.180296 20.0429 0.0654525 19.7694C-0.0493912 19.496 -0.0165787 19.1843 0.152952 18.9382L3.55998 13.9999L0.152952 9.06161C-0.0165787 8.81551 -0.0493912 8.50379 0.0654525 8.23036C0.180296 7.95692 0.42639 7.76004 0.716234 7.70536L6.61701 6.61708L7.7053 0.716295C7.75998 0.426451 7.95686 0.180357 8.2303 0.0655135C8.50373 -0.0493302 8.81545 -0.0165177 9.06155 0.153014L13.9998 3.56004L18.9381 0.153014C19.1842 -0.0165177 19.4959 -0.0493302 19.7694 0.0655135ZM13.9998 20.9999C15.8563 20.9999 17.6368 20.2624 18.9496 18.9496C20.2623 17.6369 20.9998 15.8564 20.9998 13.9999C20.9998 12.1434 20.2623 10.3629 18.9496 9.05014C17.6368 7.73739 15.8563 6.99989 13.9998 6.99989C12.1433 6.99989 10.3628 7.73739 9.05008 9.05014C7.73732 10.3629 6.99983 12.1434 6.99983 13.9999C6.99983 15.8564 7.73732 17.6369 9.05008 18.9496C10.3628 20.2624 12.1433 20.9999 13.9998 20.9999Z" fill="#D11F1F"/>
<path d="M14 8.75C12.6076 8.75 11.2723 9.30312 10.2877 10.2877C9.30312 11.2723 8.75 12.6076 8.75 14C8.75 15.3924 9.30312 16.7277 10.2877 17.7123C11.2723 18.6969 12.6076 19.25 14 19.25C15.3924 19.25 16.7277 18.6969 17.7123 17.7123C18.6969 16.7277 19.25 15.3924 19.25 14C19.25 12.6076 18.6969 11.2723 17.7123 10.2877C16.7277 9.30312 15.3924 8.75 14 8.75Z" fill="#D11F1F"/>
</g>
<defs>
<clipPath id="clip0_122_689">
<rect width="28" height="28" fill="white"/>
</clipPath>
</defs>
</svg>
