<svg width="494" height="496" viewBox="0 0 494 496" fill="none" xmlns="http://www.w3.org/2000/svg">
<path d="M241.505 17H169.388V74.75H212.658V105.791C122.782 119.687 54 197.469 54 291.312C54 394.992 137.927 479 241.505 479C345.084 479 429.01 394.992 429.01 291.312C429.01 253.595 417.922 218.493 398.811 189.167L420.537 167.421L441 146.938L400.164 106.061L379.79 126.454L360.229 146.035C334.897 125.281 304.157 111.024 270.352 105.791V74.75H313.623V17H241.505ZM263.14 211.906V312.969V334.625H219.87V312.969V211.906V190.25H263.14V211.906Z" fill="white"/>
</svg>
