<svg width="25" height="28" viewBox="0 0 25 28" fill="none" xmlns="http://www.w3.org/2000/svg">
<g clip-path="url(#clip0_122_655)">
<path opacity="0.4" d="M15.6788 9.53667C15.6788 1.89594 21.7159 0.197998 22.5784 0.197998C23.5325 0.197998 24.3033 0.956765 24.3033 1.89594V18.8753H19.1286C17.2258 18.8753 15.6788 17.3525 15.6788 15.4795V9.53667ZM2.83376 0.203304C3.27576 0.251059 3.60457 0.611871 3.60457 1.04697V8.16771C3.60457 8.45424 3.84174 8.6877 4.13282 8.6877C4.40772 8.6877 4.63411 8.48077 4.66107 8.21016L5.33485 0.972684C5.37258 0.53228 5.74451 0.197998 6.19191 0.197998C6.6393 0.197998 7.01123 0.53228 7.04896 0.972684L7.71736 8.21016C7.74431 8.48077 7.9707 8.6877 8.24561 8.6877C8.53668 8.6877 8.77386 8.45424 8.77386 8.16771V1.04697C8.77386 0.611871 9.10266 0.251059 9.54467 0.203304C9.98667 0.15555 10.3856 0.442077 10.4826 0.861256L12.1158 8.09342C12.1913 8.4277 12.229 8.76729 12.229 9.10688C12.229 11.6856 10.1053 13.7815 7.48019 13.7815H4.90363C2.27856 13.7815 0.154785 11.6909 0.154785 9.10688C0.154785 8.76729 0.192517 8.4277 0.267981 8.09342L1.90124 0.861256C1.99826 0.442077 2.39715 0.15555 2.83376 0.203304ZM6.19191 9.08035L6.17574 9.11749H6.19191H6.20808L6.19191 9.08035Z" fill="#D11F1F"/>
<path d="M7.91683 25.6671V13.7815H4.46704V25.6671C4.46704 26.6063 5.23785 27.365 6.19193 27.365C7.14601 27.365 7.91683 26.6063 7.91683 25.6671ZM24.3033 25.6671V18.8753H20.8535V25.6671C20.8535 26.6063 21.6243 27.365 22.5784 27.365C23.5325 27.365 24.3033 26.6063 24.3033 25.6671Z" fill="#D11F1F"/>
</g>
<defs>
<clipPath id="clip0_122_655">
<rect width="24.1485" height="27.1671" fill="white" transform="translate(0.154785 0.197998)"/>
</clipPath>
</defs>
</svg>
